<svg width="496" height="267" viewBox="0 0 496 267" fill="none" xmlns="http://www.w3.org/2000/svg">
<g clip-path="url(#clip0_229_5523)">
<path d="M95.8815 176.126C126.413 176.126 151.163 144.346 151.163 105.142C151.163 65.9381 126.413 34.1572 95.8815 34.1572C65.3503 34.1572 40.5999 65.9381 40.5999 105.142C40.5999 144.346 65.3503 176.126 95.8815 176.126Z" fill="#03DBDE"/>
<path d="M95.8816 93.1855L92.335 265.723H100.551V93.1855H95.8816Z" fill="#03C9CC"/>
<path d="M129.845 119.849C130.437 121.066 130.047 120.852 130.665 122.057L98.3154 139.15V134.665L129.845 119.849Z" fill="#03C9CC"/>
<path d="M298.898 185.079C328.528 185.079 352.549 156.473 352.549 121.186C352.549 85.8995 328.528 57.2939 298.898 57.2939C269.268 57.2939 245.248 85.8995 245.248 121.186C245.248 156.473 269.268 185.079 298.898 185.079Z" fill="#03DBDE"/>
<path d="M346.117 210.202C358.214 210.202 368.022 200.536 368.022 188.612C368.022 176.689 358.214 167.022 346.117 167.022C334.019 167.022 324.211 176.689 324.211 188.612C324.211 200.536 334.019 210.202 346.117 210.202Z" fill="#03DBDE"/>
<path d="M298.392 110.425L302.089 265.723H294.696V110.425H298.392Z" fill="#03C9CC"/>
<path d="M345.326 188.613L302.089 210.946L294.696 214.421V210.384L302.089 206.909L344.535 186.965L345.326 188.613Z" fill="#03C9CC"/>
<path d="M268.328 134.423C267.795 135.518 268.112 134.902 267.556 135.987L296.707 151.795V147.759L268.328 134.423Z" fill="#03C9CC"/>
<path d="M327.277 150.677C327.809 151.772 327.254 150.687 327.809 151.772L298.897 168.049V164.013L327.277 150.677Z" fill="#03C9CC"/>
<path d="M343.922 79.8099C343.958 79.335 343.983 78.8559 343.983 78.3714C343.983 68.2329 335.896 60.0142 325.922 60.0142C315.946 60.0142 307.86 68.2329 307.86 78.3714C307.86 78.8559 307.885 79.335 307.921 79.8099H343.922Z" fill="#A3FEFF"/>
<path d="M397.546 79.8101C397.579 79.3821 397.6 78.9508 397.6 78.5143C397.6 69.3767 390.312 61.9692 381.321 61.9692C372.331 61.9692 365.042 69.3767 365.042 78.5143C365.042 78.9508 365.064 79.3821 365.097 79.8101H397.546Z" fill="#A3FEFF"/>
<path d="M378.626 79.81C378.767 78.6888 378.838 77.5474 378.838 76.3879C378.838 61.5358 366.992 49.4956 352.379 49.4956C337.766 49.4956 325.92 61.5358 325.92 76.3879C325.92 77.5474 325.992 78.6888 326.132 79.81H378.626Z" fill="#A3FEFF"/>
<path d="M395.466 265.447C395.497 265.022 395.52 264.594 395.52 264.161C395.52 255.092 388.287 247.741 379.364 247.741C370.442 247.741 363.209 255.092 363.209 264.161C363.209 264.594 363.23 265.022 363.263 265.447H395.466Z" fill="#03DBDE"/>
<path d="M443.43 265.447C443.459 265.063 443.479 264.678 443.479 264.287C443.479 256.114 436.96 249.488 428.919 249.488C420.877 249.488 414.358 256.114 414.358 264.287C414.358 264.678 414.378 265.063 414.407 265.447H443.43Z" fill="#03DBDE"/>
<path d="M426.507 265.447C426.632 264.445 426.696 263.423 426.696 262.386C426.696 249.101 416.1 238.332 403.03 238.332C389.96 238.332 379.364 249.102 379.364 262.386C379.364 263.423 379.429 264.444 379.554 265.447H426.507Z" fill="#03DBDE"/>
<path d="M32.7751 89.3246C32.7953 89.0542 32.8091 88.7827 32.8091 88.5069C32.8091 82.7434 28.2126 78.0713 22.5418 78.0713C16.8709 78.0713 12.2744 82.7434 12.2744 88.5069C12.2744 88.7827 12.2883 89.0542 12.3085 89.3246H32.7751Z" fill="#A3FEFF"/>
<path d="M63.2578 89.3248C63.2759 89.081 63.2887 88.8361 63.2887 88.588C63.2887 83.3942 59.1458 79.1831 54.035 79.1831C48.9242 79.1831 44.7812 83.3942 44.7812 88.588C44.7812 88.8361 44.794 89.081 44.8121 89.3248H63.2578Z" fill="#A3FEFF"/>
<path d="M52.5027 89.3247C52.5826 88.6879 52.623 88.0384 52.623 87.3794C52.623 78.937 45.8895 72.0928 37.5824 72.0928C29.2752 72.0928 22.5417 78.937 22.5417 87.3794C22.5417 88.0384 22.5833 88.6879 22.6621 89.3247H52.5027Z" fill="#A3FEFF"/>
<path d="M48.627 147.296C48.627 147.296 43.9879 147.015 39.7886 151.2C36.2355 154.741 33.1733 166.506 31.9573 169.747C30.7414 172.988 28.1775 188.216 28.1775 188.216L32.3353 189.699L39.5075 172.148L46.6455 159.404C46.6466 159.405 56.8309 149.327 48.627 147.296Z" fill="#018764"/>
<path d="M27.8538 199.178C27.8357 199.178 27.8187 199.173 27.8017 199.164C27.7537 199.136 27.7378 199.074 27.7665 199.026C27.7953 198.978 30.6669 194.164 29.9525 191.959C29.8151 191.534 29.5479 191.232 29.1582 191.062C26.4782 189.89 22.084 197.179 22.0403 197.254C22.0116 197.301 21.9498 197.317 21.9008 197.289C21.8529 197.261 21.8359 197.199 21.8646 197.151C22.0488 196.844 26.3962 189.633 29.2401 190.879C29.6852 191.074 29.9897 191.417 30.1452 191.898C30.8862 194.188 28.0604 198.928 27.9401 199.13C27.923 199.159 27.889 199.178 27.8538 199.178Z" fill="#103558"/>
<path d="M25.5656 198.296C25.5411 198.296 25.5176 198.288 25.4974 198.27C25.4559 198.233 25.4516 198.17 25.4889 198.129C25.5293 198.084 29.5509 193.613 29.1037 191.567C29.0228 191.195 28.8013 190.936 28.4276 190.772C25.7338 189.592 19.801 196.318 19.7414 196.386C19.7041 196.427 19.6402 196.433 19.5976 196.397C19.555 196.36 19.5508 196.298 19.587 196.255C19.834 195.973 25.6784 189.349 28.5096 190.588C28.9408 190.777 29.2081 191.092 29.3028 191.525C29.7713 193.671 25.8104 198.077 25.6411 198.263C25.6209 198.284 25.5932 198.296 25.5656 198.296Z" fill="#103558"/>
<path d="M14.7084 194.153L0.0415039 222.729L8.21025 225.698L18.9993 195.713L14.7084 194.153Z" fill="#F05B5B"/>
<path d="M20.0034 196.078L8.1687 225.683L21.5803 230.559L30.8883 200.035L20.0034 196.078Z" fill="#E54547"/>
<path d="M17.8761 195.304L6.25122 220.09L8.21036 225.698L20.0376 196.089L17.8761 195.304Z" fill="#F1696A"/>
<path d="M6.25113 220.09L0 222.714L8.16875 225.683L6.25113 220.09Z" fill="#F05B5B"/>
<path d="M23.3702 197.735L12.7952 228.718L21.4888 230.54L27.9369 198.692L23.3702 197.735Z" fill="#0394C2"/>
<path d="M29.0058 198.917L21.4451 230.532L35.7169 233.524L40.5892 201.345L29.0058 198.917Z" fill="#03BBE6"/>
<path d="M26.7412 198.442L18.6768 225.156L21.4888 230.54L29.0421 198.924L26.7412 198.442Z" fill="#038AB5"/>
<path d="M18.6768 225.156L12.7515 228.708L21.4451 230.531L18.6768 225.156Z" fill="#0394C2"/>
<path d="M32.4321 189.424L31.6719 191.977C31.6719 191.977 33.0476 192.809 32.7345 193.645C31.7156 195.486 28.1423 195.752 27.283 195.304C26.4238 194.856 25.3505 193.42 25.6114 192.094C25.8722 190.767 28.1774 188.216 28.1774 188.216C28.1774 188.216 31.7305 188.153 32.4321 189.424Z" fill="#F7A58E"/>
<path d="M27.9368 189.02L29.042 183.288C30.0854 184.601 33.532 185.113 34.3221 184.838L32.2107 190.168L27.9368 189.02Z" fill="#F7A58E"/>
<path d="M47.6976 175.493C46.6382 176.355 41.7531 181.331 39.8877 190.918C39.3265 193.799 36.1834 248.702 35.1804 262.043H41.2239C47.4793 233.589 53.0341 211.778 60.0306 180.054C61.2327 172.863 52.8275 168.931 47.6976 175.493Z" fill="#024263"/>
<path d="M52.8731 178.023C52.016 179.656 53.8687 189.566 53.8687 195.934C53.8687 203.636 53.7047 264.942 53.7047 264.942H58.8389C62.244 242.639 67.6433 214.999 68.8188 196.522C69.4853 186.049 68.6282 184.402 65.6937 173.737C63.5259 167.582 55.9098 171.562 52.8731 178.023Z" fill="#024263"/>
<path d="M58.2448 153.469L48.0818 153.779L49.8046 139.297L57.935 139.05L58.2448 153.469Z" fill="#FF9E82"/>
<path d="M81.7726 133.726C80.5886 132.162 77.7393 132.499 77.5232 132.525V137.786C77.6531 138.682 80.0158 138.742 81.0752 137.786C81.0752 137.786 82.7873 135.256 81.7726 133.726Z" fill="#FFBAA6"/>
<path d="M79.1799 133.069C78.8488 130.777 78.2578 128.999 77.8341 129.054C77.4093 129.11 77.3092 130.978 77.5956 133.275C77.8075 134.873 79.2214 134.197 79.1799 133.069Z" fill="#FFBAA6"/>
<path d="M35.3453 259.841C35.8873 259.143 39.5351 261.236 41.6295 259.841C41.6295 259.841 51.2069 262.313 47.5538 264.943C42.6666 264.943 34.962 264.943 34.962 264.943C34.1805 264.128 34.0006 262.592 35.3453 259.841Z" fill="white"/>
<path d="M53.6378 259.841C54.1798 259.143 57.8276 261.236 59.922 259.841C59.922 259.841 69.4994 262.313 65.8462 264.943C60.958 264.943 53.2545 264.943 53.2545 264.943C52.473 264.128 52.2931 262.592 53.6378 259.841Z" fill="white"/>
<path d="M63.8092 129.265C64.6546 136.002 63.2194 141.601 58.2438 142.111C53.2682 142.622 46.3367 136.285 45.7905 131.112C45.2443 125.938 48.8357 121.332 53.8112 120.822C58.7879 120.312 63.1619 124.103 63.8092 129.265Z" fill="#FF9E82"/>
<path d="M53.7569 118.951C53.7569 118.951 63.7197 118.37 65.3605 125.678C67.178 132.052 61.7095 127.81 60.1731 132.383C58.413 137.621 61.1718 141.02 64.2851 141.69C62.0204 145.65 46.7381 147.157 42.0958 141.132C38.5118 133.333 40.9767 120.776 53.7569 118.951Z" fill="#0D0D0D"/>
<path d="M60.3935 134.068C61.4191 134.068 62.2505 133.249 62.2505 132.238C62.2505 131.227 61.4191 130.408 60.3935 130.408C59.368 130.408 58.5366 131.227 58.5366 132.238C58.5366 133.249 59.368 134.068 60.3935 134.068Z" fill="#FF9E82"/>
<path d="M80.4096 136.781L77.571 137.003C77.4305 138.439 77.208 140.734 76.9609 143.268H81.403C81.058 140.636 80.6939 138.319 80.4096 136.781Z" fill="#FFBAA6"/>
<path d="M76.9609 143.268C76.5308 147.694 76.0293 152.85 75.7769 155.448L63.8539 147.518C63.8539 147.518 56.4198 142.956 54.2041 148.764C52.18 154.069 59.9569 157.62 59.9569 157.62C59.9569 157.62 81.0485 168.777 82.2144 161.049C82.8948 157.222 82.2027 149.386 81.402 143.269H76.9609V143.268Z" fill="#018764"/>
<path d="M67.817 159.689C67.7733 161.579 65.8738 175.501 65.8738 175.501C65.8738 175.501 55.5522 175.626 47.6964 175.493C44.1072 160.691 38.826 151.989 47.6411 147.068C60.1072 142.451 69.0106 148.611 67.817 159.689Z" fill="#018764"/>
<path d="M60.2445 146.247C51.11 149.214 47.6421 147.069 47.6421 147.069C49.6076 145.562 56.9437 144.486 60.2445 146.247Z" fill="#FF9E82"/>
<path d="M47.6421 172.149C45.6691 176.539 42.8869 179.868 41.3962 183.866C41.3962 183.866 50.9705 189.245 68.6411 185.418C68.6411 185.418 67.3485 178.046 65.5629 172.149C63.7762 166.252 50.7022 164.528 47.6421 172.149Z" fill="#018764"/>
<path d="M37.6804 201.079C37.641 201.079 37.6037 201.057 37.5867 201.018C37.558 200.952 34.6938 194.422 31.6124 191.996C31.5687 191.962 31.5613 191.898 31.5964 191.855C31.6316 191.811 31.6955 191.805 31.7391 191.839C34.8609 194.298 37.7443 200.874 37.773 200.94C37.7954 200.991 37.7709 201.049 37.7198 201.072C37.707 201.077 37.6932 201.079 37.6804 201.079Z" fill="#103558"/>
<path d="M31.1301 199.735C31.1131 199.735 31.095 199.731 31.079 199.722C31.0311 199.694 26.3196 196.947 25.5114 192.954C25.5008 192.9 25.5359 192.847 25.5913 192.836C25.6466 192.825 25.6999 192.86 25.7105 192.915C26.5016 196.819 31.1344 199.521 31.1812 199.548C31.2302 199.576 31.2462 199.637 31.2174 199.685C31.1983 199.718 31.1653 199.735 31.1301 199.735Z" fill="#103558"/>
<path d="M340.63 134.381C340.04 139.862 342.843 145.707 346.369 145.664C351.206 145.607 357.461 141.683 358.049 136.201C358.639 130.719 355.217 125.867 350.408 125.365C345.598 124.863 341.22 128.9 340.63 134.381Z" fill="#FF9070"/>
<path d="M370.605 260.569C370.605 260.569 365.525 260.008 361.564 260.569C358.28 262.706 356.862 262.581 356.862 262.581C355.459 262.943 354.833 264.844 356.051 264.844H371.015L370.605 260.569Z" fill="white"/>
<path d="M358.039 260.569C358.039 260.569 352.959 260.008 348.998 260.569C345.713 262.706 344.296 262.581 344.296 262.581C342.893 262.943 342.267 264.844 343.485 264.844H358.449L358.039 260.569Z" fill="white"/>
<path d="M351.026 152.153L360.431 149.023L353.618 135.039L347.006 138.168L351.026 152.153Z" fill="#FF9070"/>
<path d="M341.691 161.961C341.691 161.961 334.394 167.23 337.956 172.821C340.61 176.988 349.105 172.475 349.105 167.629C349.105 163.259 345.692 160.682 341.691 161.961Z" fill="#F0C46E"/>
<path d="M364.23 183.652C364.23 183.652 365.984 186.65 367.158 192.621C367.575 194.743 367.086 204.338 367.226 220.501C370.637 241.401 371.016 262.332 371.016 262.332L361.566 260.568L347.099 184.523L364.23 183.652Z" fill="#0D0D0D"/>
<path d="M342.836 185.59C343.211 199.939 343.873 212.818 345.214 222.212L348.998 260.568L358.247 262.261C358.238 250.359 357.896 235.493 356.236 221.705L360.432 185.702L342.836 185.59Z" fill="#0D0D0D"/>
<path d="M367.025 184.855C366.402 188.563 366.063 188.813 366.063 188.813L342.836 189.319C342.836 189.319 343.301 185.937 342.233 183.654C342.076 183.313 342.094 182.175 342.254 180.5C342.48 178.098 342.998 174.595 343.692 170.76C345.185 162.516 347.499 152.74 349.534 149.067L359.985 146.596C359.985 146.596 364.645 151.256 365.672 155.379C366.7 159.503 367.649 181.148 367.025 184.855Z" fill="#FFD175"/>
<path d="M350.185 168.048L342.254 180.499C342.481 178.097 342.998 174.594 343.692 170.759L350.185 168.048Z" fill="#F0BC56"/>
<path d="M353.044 164.946C353.044 164.946 355.855 170.914 352.935 172.512C350.016 174.11 347.096 168.995 347.096 168.995L353.044 164.946Z" fill="#FF9070"/>
<path d="M341.466 149.042L343.489 161.92L349.786 154.613C349.786 154.613 355.445 148.957 359.988 154.064C364.531 159.17 357.438 164.276 357.438 164.276C357.438 164.276 347.076 172.588 340.461 171.724C333.846 170.859 337.975 149.285 337.975 149.285L341.466 149.042Z" fill="#FFD175"/>
<path d="M341.466 149.042L342.486 144.136L339.885 140.243C339.885 140.243 338.916 139.539 338.558 141.7C337.846 142.705 336.977 143.451 337.079 144.587C337.181 145.723 337.975 149.286 337.975 149.286L341.466 149.042Z" fill="#FF9070"/>
<path d="M359.985 146.595L359.245 144.71L348.174 149.042L347.303 153.78L359.985 146.595Z" fill="white"/>
<path d="M356.874 141.814C356.874 141.814 360.485 136.692 359.355 130.566C358.225 124.441 349.016 123.16 349.016 123.16C349.016 123.16 339.411 122.603 337.265 132.237C338.281 133.518 342.463 131.402 342.463 131.402L349.335 137.583C349.335 137.583 349.254 132.738 351.677 133.964C354.1 135.189 353.377 139.086 353.377 139.086C353.377 139.086 355.636 141.424 356.874 141.814Z" fill="#733602"/>
<path d="M249.658 266.356L140.729 265.709C134.37 265.668 129.226 259.962 129.238 252.97L129.62 21.1471C129.631 14.4051 134.694 8.92809 140.929 8.90786L247.878 8.58843C254.163 8.5682 259.302 14.0378 259.356 20.8096L261.167 253.705C261.222 260.729 256.068 266.397 249.658 266.356Z" fill="#027F99"/>
<path d="M251.064 264.67C250.642 264.726 250.208 264.753 249.777 264.75L140.88 263.991C135.416 263.95 130.95 258.947 130.959 252.845L131.311 21.2759C131.32 15.39 135.716 10.5869 141.075 10.5635L248.017 10.1355C248.174 10.1344 248.331 10.1376 248.487 10.145C251.001 10.26 253.35 11.3887 255.107 13.3212C256.902 15.2952 257.901 17.9124 257.922 20.6935L259.709 253.824C259.752 259.348 256.049 264.012 251.064 264.67Z" fill="#0D0D0D"/>
<path d="M254.418 21.8638L256.136 247.511L134.348 246.834L134.64 21.8638H254.418Z" fill="#CEFFFF"/>
<path d="M161.687 21.5156L148.07 69.2823H167.674L175.691 21.5156H161.687Z" fill="#F13005"/>
<path d="M135.587 21.5156L111.53 69.2823H128.465L147.685 21.5156H135.587Z" fill="#F13005"/>
<path d="M243.781 21.5156L263 69.2823H279.936L255.879 21.5156H243.781Z" fill="#F13005"/>
<path d="M175.691 21.5156L167.675 69.2823H187.28L189.695 21.5156H175.691Z" fill="#FF8469"/>
<path d="M147.685 21.5156L128.465 69.2823H148.07L161.687 21.5156H147.685Z" fill="#FF8469"/>
<path d="M203.698 21.5156L206.884 69.2823H226.489L217.702 21.5156H203.698Z" fill="#FF8469"/>
<path d="M243.781 21.5156H231.705L246.093 69.2823H263L243.781 21.5156Z" fill="#FF8469"/>
<path d="M217.702 21.5156L226.489 69.2823H246.093L231.705 21.5156H217.702Z" fill="#F13005"/>
<path d="M189.694 21.5156L187.28 69.2823H206.884L203.698 21.5156H189.694Z" fill="#F13005"/>
<path d="M120.059 88.9386H119.936C115.293 88.9386 111.53 85.1747 111.53 80.5324V69.2822H128.466V80.5324C128.465 85.1758 124.702 88.9386 120.059 88.9386Z" fill="#E32A00"/>
<path d="M139.025 88.9387H137.51C132.514 88.9387 128.465 84.8894 128.465 79.8936V69.2812H148.069V79.8936C148.07 84.8894 144.021 88.9387 139.025 88.9387Z" fill="#FF7051"/>
<path d="M158.629 88.9387H157.114C152.119 88.9387 148.069 84.8894 148.069 79.8936V69.2812H167.673V79.8936C167.674 84.8894 163.625 88.9387 158.629 88.9387Z" fill="#E32A00"/>
<path d="M178.235 88.9387H176.72C171.724 88.9387 167.675 84.8894 167.675 79.8936V69.2812H187.279V79.8936C187.28 84.8894 183.229 88.9387 178.235 88.9387Z" fill="#FF7051"/>
<path d="M197.839 88.9387H196.324C191.328 88.9387 187.279 84.8894 187.279 79.8936V69.2812H206.883V79.8936C206.884 84.8894 202.835 88.9387 197.839 88.9387Z" fill="#E32A00"/>
<path d="M217.444 88.9387H215.929C210.933 88.9387 206.884 84.8894 206.884 79.8936V69.2812H226.488V79.8936C226.488 84.8894 222.439 88.9387 217.444 88.9387Z" fill="#FF7051"/>
<path d="M237.048 88.9387H235.533C230.537 88.9387 226.488 84.8894 226.488 79.8936V69.2812H246.092V79.8936C246.093 84.8894 242.043 88.9387 237.048 88.9387Z" fill="#E32A00"/>
<path d="M254.622 88.9386H254.499C249.856 88.9386 246.093 85.1747 246.093 80.5324V69.2822H263.029V80.5324C263.029 85.1758 259.265 88.9386 254.622 88.9386Z" fill="#FF7051"/>
<path d="M271.53 88.9386H271.407C266.764 88.9386 263.001 85.1747 263.001 80.5324V69.2822H279.937V80.5324C279.936 85.1758 276.172 88.9386 271.53 88.9386Z" fill="#E32A00"/>
<path d="M139.997 195.887V148.372C139.997 118.288 164.829 93.813 195.352 93.813C225.876 93.813 250.708 118.287 250.708 148.372V195.887H139.997Z" fill="#0091B4"/>
<path d="M247.262 192.491H143.443V148.372C143.443 120.115 166.683 97.2095 195.353 97.2095C224.022 97.2095 247.262 120.115 247.262 148.372V192.491Z" fill="#005875"/>
<path d="M253.465 192.491H137.24V197.543H253.465V192.491Z" fill="#0091B4"/>
<path d="M163.532 164.791H158.578V175.101H163.532V164.791Z" fill="#016566"/>
<path d="M236.291 128.594H154.376V130.103H236.291V128.594Z" fill="#006F94"/>
<path d="M236.311 144.022H154.396V145.531H236.311V144.022Z" fill="#006F94"/>
<path d="M236.291 159.599H154.376V161.107H236.291V159.599Z" fill="#006F94"/>
<path d="M236.291 175.101H154.376V176.61H236.291V175.101Z" fill="#006F94"/>
<path d="M170.11 137.675H158.97V144.096H170.11V137.675Z" fill="#006F94"/>
<path d="M174.488 131.416H163.348V137.836H174.488V131.416Z" fill="#006F94"/>
<path d="M183.352 137.675H172.212V144.096H183.352V137.675Z" fill="#006F94"/>
<path d="M195.772 137.675H184.633V144.096H195.772V137.675Z" fill="#006F94"/>
<path d="M197.301 153.178H186.162V159.599H197.301V153.178Z" fill="#006F94"/>
<path d="M208.442 153.178H197.302V159.599H208.442V153.178Z" fill="#006F94"/>
<path d="M214.326 168.511H203.187V174.932H214.326V168.511Z" fill="#006F94"/>
<path d="M225.466 168.511H214.326V174.932H225.466V168.511Z" fill="#006F94"/>
<path d="M188.273 131.416H177.134V137.836H188.273V131.416Z" fill="#006F94"/>
<path d="M210.456 133.787H205.503V144.097H210.456V133.787Z" fill="#006F94"/>
<path d="M216.493 133.787H211.54V144.097H216.493V133.787Z" fill="#006F94"/>
<path d="M222.529 133.787H217.576V144.097H222.529V133.787Z" fill="#006F94"/>
<path d="M228.565 133.787H223.612V144.097H228.565V133.787Z" fill="#006F94"/>
<path d="M185.079 118.284H180.126V128.594H185.079V118.284Z" fill="#006F94"/>
<path d="M191.115 118.284H186.162V128.594H191.115V118.284Z" fill="#006F94"/>
<path d="M197.152 118.284H192.199V128.594H197.152V118.284Z" fill="#006F94"/>
<path d="M203.188 118.284H198.235V128.594H203.188V118.284Z" fill="#006F94"/>
<path d="M169.569 164.792H164.615V175.101H169.569V164.792Z" fill="#006F94"/>
<path d="M175.605 164.792H170.652V175.101H175.605V164.792Z" fill="#006F94"/>
<path d="M181.641 164.792H176.688V175.101H181.641V164.792Z" fill="#006F94"/>
<path d="M166.959 146.767L149.915 156.115L127.856 158.062L127.163 161.134C127.163 161.134 147.869 165.26 152.146 164.466C157.744 163.54 175.885 155.965 175.885 155.965C178.515 148.95 170.302 144.798 166.959 146.767Z" fill="#FF9E82"/>
<path d="M169.978 144.439C169.978 144.439 163.851 145.712 159.15 150.576C159.886 157.133 165.646 161.728 165.646 161.728C165.646 161.728 175.976 160.693 178.017 153.293C180.06 145.894 169.978 144.439 169.978 144.439Z" fill="#F14924"/>
<path d="M187.448 176.854L186.656 188.129L186.577 189.273L186.339 192.628H171.833L171.406 186.233L171.227 183.544C171.224 183.541 171.224 183.541 171.224 183.541L170.804 177.242L183.284 176.953L187.448 176.854Z" fill="#03C9CC"/>
<path d="M198.111 192.628H185.704L184.884 187.282L183.303 176.952L182.889 174.249L196.717 172.096L197.643 185.734L198.111 192.628Z" fill="#03C9CC"/>
<path d="M197.805 178.732C196.721 160.329 191.843 145.649 188.715 143.312C182.889 138.957 166.009 142.471 165.99 149.573C165.976 154.539 169.172 172.181 170.604 178.549C178.104 180.714 187.088 180.885 197.805 178.732Z" fill="#F14924"/>
<path d="M197.825 179.579C192.152 181.609 175.881 182.051 170.244 180.22L170.185 177.771C179.877 179.341 188.482 179.789 197.777 177.613L197.825 179.579Z" fill="#0D0D0D"/>
<path d="M169.431 158.396L170.711 165.896L178.187 165.234L177.102 157.16L169.431 158.396Z" fill="#03C9CC"/>
<path d="M203.004 159.851C199.641 154.554 196.618 150.857 194.122 148.286C192.206 150.845 190.3 153.411 188.303 155.906L195.503 162.203L196.33 183.802L200.096 184.252C200.095 184.252 205.587 168.742 203.004 159.851Z" fill="#FF9E82"/>
<path d="M186.398 142.145C186.398 142.145 192.766 142.775 198.053 152.466C196.767 156.578 190.809 159.666 190.809 159.666C190.809 159.666 180.067 152.505 182.889 145.433C184.251 141.992 186.398 142.145 186.398 142.145Z" fill="#F14924"/>
<path d="M182.394 142.321C181.136 144.732 173.597 147.438 172.911 146.033L171.754 144.056L169.218 139.737L174.407 135.876L175.586 134.997L182.394 142.321Z" fill="#FF9E82"/>
<path d="M180.132 140.186C180.132 140.186 179.887 144.006 174.838 146.338C176.967 146.408 179.439 148.833 179.439 148.833C179.439 148.833 183.354 145.934 182.986 141.346C181.796 139.523 180.132 140.186 180.132 140.186Z" fill="#03C9CC"/>
<path d="M171.329 143.335C171.329 143.335 168.052 144.199 170.976 149.225C171.634 147.576 174.34 146.401 174.34 146.401C174.34 146.401 173.507 146.046 171.329 143.335Z" fill="#03C9CC"/>
<path d="M172.263 144.452C171.283 143.385 170.257 141.652 169.218 139.736L175.805 136.182C175.848 138.325 174.713 142.724 172.263 144.452Z" fill="#DE7F67"/>
<path d="M176.471 137.918C174.854 140.269 170.641 143.069 166.644 143.149C163.496 143.212 160.975 139.186 159.787 134.168C159.498 132.95 159.287 131.673 159.165 130.383C159.033 128.968 159.028 127.667 159.151 126.483C159.676 121.377 162.548 118.444 167.518 117.928C173.641 117.291 178.081 119.723 178.885 127.228C179.275 130.88 177.831 135.943 176.471 137.918Z" fill="#FF9E82"/>
<path d="M173.808 122.805C173.808 122.805 172.39 131.668 159.786 134.168C159.497 132.95 159.286 131.673 159.164 130.383C159.032 128.968 159.027 127.667 159.15 126.483C164.749 123.247 171.74 120.749 173.808 122.805Z" fill="#FC8365"/>
<path d="M160.551 129.294C160.509 129.205 160.547 129.1 160.637 129.057C160.726 129.015 160.834 129.053 160.876 129.142C160.919 129.23 160.88 129.335 160.791 129.378C160.701 129.421 160.594 129.382 160.551 129.294Z" fill="#F7A28A"/>
<path d="M174.343 123.113C174.343 123.113 169.592 131.63 156.346 130.469C155.35 126.038 158.398 121.299 161.386 119.464C165.95 116.663 172.206 117.148 174.256 118.265C176.609 119.547 177.312 121.139 174.343 123.113Z" fill="#0D0D0D"/>
<path d="M176.845 120.137C176.509 120.057 174.447 120.665 173.102 124.266C173.209 128.75 176.509 132.454 179.623 130.862C181.67 125.306 180.509 121.005 176.845 120.137Z" fill="#0D0D0D"/>
<path d="M177.298 135.314C178.876 135.314 180.154 134.053 180.154 132.497C180.154 130.942 178.876 129.681 177.298 129.681C175.72 129.681 174.441 130.942 174.441 132.497C174.441 134.053 175.72 135.314 177.298 135.314Z" fill="#FF9E82"/>
<path d="M158.737 121.882C158.737 121.882 149.462 123.49 151.437 125.983C153.412 128.477 166.83 126.667 171.452 124.087C171.452 124.088 165.32 121.394 158.737 121.882Z" fill="#03C9CC"/>
<path d="M174.853 116.59C174.992 116.22 174.444 115.672 173.628 115.365C172.813 115.058 172.039 115.108 171.9 115.477C171.761 115.847 172.309 116.395 173.125 116.702C173.94 117.009 174.714 116.959 174.853 116.59Z" fill="#03C9CC"/>
<path d="M173.206 116.06C173.031 115.994 172.856 115.928 172.675 115.863C167.574 114.027 160.302 115.22 158.737 121.882C158.737 121.882 161.526 121.951 165.863 122.792C166.873 116.68 173.206 116.06 173.206 116.06Z" fill="#F14924"/>
<path d="M173.206 116.06C173.276 116.107 178.87 119.989 176.402 125.775C177.807 126.303 179.252 126.901 180.722 127.582C181.552 121.581 179.996 118.621 173.206 116.06Z" fill="#F14924"/>
<path d="M173.206 116.06C173.206 116.06 166.872 116.68 165.862 122.792C168.794 123.361 172.433 124.283 176.401 125.776C178.87 119.99 173.276 116.108 173.206 116.06Z" fill="#FF8166"/>
<path d="M198.091 192.628H171.832L171.405 186.233C172.022 187.198 174.293 190.224 178.52 190.695C182.423 191.137 184.243 189.47 184.864 188.695C185.047 188.467 185.126 188.318 185.126 188.318C185.126 188.318 185.667 188.777 186.576 189.272C186.6 189.289 186.628 189.303 186.655 189.315C187.895 189.981 189.78 190.694 191.912 190.474C195.699 190.086 197.76 187.469 197.76 187.469L198.091 192.628Z" fill="#02B6B8"/>
<path d="M126.387 148.396L127.945 166.409L117.802 167.262L116.238 149.188L116.241 149.183L117.027 149.805L117.698 149.061L118.487 149.683L119.155 148.938L119.944 149.56L120.616 148.816L121.365 149.407L121.402 149.438L122.072 148.692L122.862 149.314L123.53 148.57L123.954 148.903L124.319 149.192L124.991 148.448L125.78 149.069L126.387 148.396Z" fill="#FF9E4D"/>
<path d="M126.387 148.396L127.946 166.409L122.874 166.836L121.365 149.407L121.402 149.438L122.072 148.692L122.862 149.314L123.53 148.57L123.954 148.903L124.319 149.192L124.991 148.448L125.78 149.069L126.387 148.396Z" fill="#FFC594"/>
<path d="M123.954 148.903L125.136 163.483L122.874 166.836L121.365 149.407L121.402 149.438L122.072 148.692L122.862 149.314L123.53 148.57L123.954 148.903Z" fill="#FFB06E"/>
<path d="M130.152 157.49C130.152 157.49 124.897 153.695 123.335 152.929C122.531 154.092 123.059 154.971 124.409 155.352C125.758 155.733 125.103 160.322 128.445 160.594C131.787 160.864 132.14 158.08 130.152 157.49Z" fill="#FF9E82"/>
<path d="M240.605 179.426L243.704 161.589H211.363L208.265 179.426H240.605Z" fill="#049799"/>
<path d="M242.149 179.426L245.248 161.589H212.907L209.809 179.426H242.149Z" fill="#0D0D0D"/>
<path d="M229.115 192.49H224.7L222.854 178.587H227.268L229.115 192.49Z" fill="#0D0D0D"/>
<path d="M210.581 192.49H205.685V188.752L210.581 186.78V192.49Z" fill="#049799"/>
<path d="M242.351 186.78H210.581V192.491H242.351V186.78Z" fill="#0D0D0D"/>
<path d="M168.128 176.042V192.366H158.935V175.985L158.938 175.982L159.596 176.601L160.259 175.982L160.921 176.601L161.579 175.982L162.241 176.601L162.903 175.982L163.532 176.571L163.561 176.601L164.224 175.982L164.886 176.601L165.544 175.982L165.9 176.313L166.206 176.601L166.869 175.982L167.531 176.601L168.128 176.042Z" fill="#FFC594"/>
<path d="M168.128 176.042V192.366H163.531V176.571L163.561 176.601L164.224 175.982L164.886 176.601L165.544 175.982L165.899 176.313L166.206 176.601L166.868 175.982L167.531 176.601L168.128 176.042Z" fill="#FF9E4D"/>
<path d="M165.899 176.313L165.828 189.521L163.531 192.366V176.571L163.561 176.601L164.224 175.982L164.886 176.601L165.544 175.982L165.899 176.313Z" fill="#ED9348"/>
<path d="M156.456 176.042V192.366H147.262V175.985L147.266 175.982L147.924 176.601L148.587 175.982L149.248 176.601L149.907 175.982L150.569 176.601L151.231 175.982L151.859 176.571L151.89 176.601L152.552 175.982L153.213 176.601L153.872 175.982L154.228 176.313L154.534 176.601L155.197 175.982L155.858 176.601L156.456 176.042Z" fill="#FFC594"/>
<path d="M156.456 176.042V192.366H151.859V176.571L151.89 176.601L152.552 175.982L153.213 176.601L153.872 175.982L154.228 176.313L154.534 176.601L155.197 175.982L155.858 176.601L156.456 176.042Z" fill="#FF9E4D"/>
<path d="M154.228 176.313L154.155 189.521L151.859 192.366V176.571L151.89 176.601L152.552 175.982L153.213 176.601L153.872 175.982L154.228 176.313Z" fill="#ED9348"/>
<path d="M198.949 186.42L198.994 187.756L185.746 189.906L185.702 188.571L198.949 186.42Z" fill="#0D0D0D"/>
<path d="M184.521 191.452C186.386 191.024 187.699 189.807 187.453 188.733C187.207 187.659 185.495 187.135 183.629 187.562C181.763 187.99 180.451 189.207 180.697 190.281C180.943 191.355 182.655 191.879 184.521 191.452Z" fill="#0D0D0D"/>
<path d="M198.965 186.912L198.922 185.577L185.559 184.287L185.603 185.622L198.965 186.912Z" fill="#027273"/>
<path d="M187.357 185.358C187.534 184.271 186.145 183.14 184.256 182.832C182.366 182.524 180.69 183.156 180.513 184.243C180.336 185.33 181.725 186.461 183.614 186.769C185.504 187.077 187.18 186.445 187.357 185.358Z" fill="#027273"/>
<path d="M198.99 187.741C199.173 187.735 199.306 187.245 199.286 186.646C199.266 186.047 199.101 185.566 198.918 185.572C198.734 185.579 198.602 186.069 198.622 186.668C198.642 187.267 198.807 187.747 198.99 187.741Z" fill="#027273"/>
<path d="M196.065 183.024C196.065 183.024 193.034 185.04 194.993 185.38C195.738 185.875 195.542 187.604 195.542 187.604C195.542 187.604 194.612 188.967 197.351 189.508C200.091 190.049 202.182 188.471 202.2 186.953C202.218 185.435 200.568 181.901 200.568 181.901L196.065 183.024Z" fill="#FF9E82"/>
<path d="M237.314 204.303H154.23V241.095H237.314V204.303Z" fill="#03E3E6"/>
<path d="M202.586 210.354H196.873V213.231H202.586V210.354Z" fill="white"/>
<path d="M190.69 210.354H158.767V213.231H190.69V210.354Z" fill="white"/>
<path d="M190.69 217.489H158.767V220.367H190.69V217.489Z" fill="white"/>
<path d="M202.586 217.489H196.873V220.367H202.586V217.489Z" fill="white"/>
<path d="M190.69 224.623H158.767V227.501H190.69V224.623Z" fill="white"/>
<path d="M202.586 224.623H196.873V227.501H202.586V224.623Z" fill="white"/>
<path d="M190.69 231.757H158.767V234.635H190.69V231.757Z" fill="white"/>
<path d="M202.586 231.757H196.873V234.635H202.586V231.757Z" fill="white"/>
<path d="M220.17 209.092H207.945V221.139H220.17V209.092Z" fill="white"/>
<path d="M232.394 224.623H220.17V236.67H232.394V224.623Z" fill="white"/>
<path d="M277.562 193.778L264.264 265.444H267.109L278.795 204.266L277.562 193.778Z" fill="#0D0D0D"/>
<path d="M277.099 265.41L324.497 265.371L317.979 179.843L270.58 179.883L277.099 265.41Z" fill="#027273"/>
<path d="M320.771 261.978L314.771 183.242L274.306 183.275L280.307 262.011L320.771 261.978Z" fill="#CEFFFF"/>
<path d="M287.668 213.796H314.212L314.432 216.651H287.889L287.668 213.796Z" fill="#04F2F5"/>
<path d="M283.866 213.796L284.087 216.651H280.283L280.063 213.796H283.866Z" fill="#04F2F5"/>
<path d="M288.28 221.703H314.822L315.042 224.558H288.5L288.28 221.703Z" fill="#04F2F5"/>
<path d="M284.476 221.703L284.697 224.558H280.894L280.674 221.703H284.476Z" fill="#04F2F5"/>
<path d="M285.087 229.611L285.308 232.466H281.506L281.284 229.611H285.087Z" fill="#04F2F5"/>
<path d="M288.89 229.611H315.433L315.653 232.466H289.11L288.89 229.611Z" fill="#04F2F5"/>
<path d="M289.501 237.519H316.044L316.264 240.374H289.721L289.501 237.519Z" fill="#04F2F5"/>
<path d="M285.699 237.519L285.919 240.374H282.116L281.896 237.519H285.699Z" fill="#04F2F5"/>
<path d="M302.061 256.543H316.17L315.261 244.794H301.152L302.061 256.543Z" fill="#04F2F5"/>
<path d="M283.915 256.543H298.024L297.117 244.794H283.008L283.915 256.543Z" fill="#04F2F5"/>
<path d="M304.401 205.737C307.949 201.284 306.922 194.564 302.108 190.729C297.294 186.893 290.515 187.394 286.967 191.847C283.419 196.301 284.445 203.02 289.26 206.856C294.074 210.691 300.853 210.19 304.401 205.737Z" fill="#04F2F5"/>
<path d="M462.235 153.056C459.571 146.396 452.086 148.124 452.086 148.124C452.086 148.124 453.831 144.188 450.84 141.19C447.849 138.192 443.887 139.454 443.887 139.454C443.887 139.454 442.221 135.972 439.213 136.151C436.204 136.33 436.174 140.591 436.174 140.591C436.174 140.591 436.108 140.574 435.991 140.548C436.048 141.275 436.135 142 436.258 142.717C437.255 148.468 441.997 152.809 443.256 158.498C444.085 162.243 442.648 166.112 443.649 169.808C443.912 170.778 444.333 171.647 444.862 172.443C446.283 173.419 453.121 177.672 457.663 172.615C462.755 166.947 458.793 162.345 458.793 162.345C458.793 162.345 464.898 159.716 462.235 153.056Z" fill="#0D0D0D"/>
<path d="M442.229 144.938C443.177 138.936 439.992 133.447 435.116 132.676C430.239 131.906 425.518 136.147 424.57 142.149C423.622 148.15 426.807 153.64 431.684 154.41C436.56 155.18 441.281 150.939 442.229 144.938Z" fill="#FFA88F"/>
<path d="M431.157 136.411C431.218 136.197 431.987 143.209 442.568 144.086C446.845 138.344 441.044 126.924 431.744 132.852C429.755 131.126 423.509 131.994 423.564 137.877C419.041 140.133 420.734 144.552 423.766 143.229C423.766 143.229 429.592 141.891 431.157 136.411Z" fill="#0D0D0D"/>
<path d="M441.613 146.066C442.631 146.066 443.457 145.252 443.457 144.248C443.457 143.244 442.631 142.431 441.613 142.431C440.594 142.431 439.769 143.244 439.769 144.248C439.769 145.252 440.594 146.066 441.613 146.066Z" fill="#FFA88F"/>
<path d="M463.148 193.22L460.984 189.256L465.384 187.428C466.319 190.43 466.376 191.242 466.376 191.242C467.481 194.813 464.343 195.313 463.148 193.22Z" fill="#FFA88F"/>
<path d="M453.456 174.834L439.013 163.888C433.397 157.811 441.823 152.588 445.957 156.001C445.957 156.001 458.325 166.23 459.619 169.559C460.485 171.788 463.49 181.349 465.382 187.429L460.983 189.257L453.456 174.834Z" fill="#02A659"/>
<path d="M447.803 176.845C447.803 176.845 456.263 181.847 457.785 188.851C459.308 195.855 457.948 218.449 457.948 218.449L477.759 252.101L473.665 255.172C473.665 255.172 447.634 226.536 444.081 219.2C442.263 210.529 439.851 178.846 439.851 178.846L447.803 176.845Z" fill="#024263"/>
<path d="M435.221 182.461L418.213 260.122C418.521 261.31 422.354 262.21 423.086 261.229C423.086 261.229 451.892 195.882 451.875 185.708C451.858 175.536 437.652 175.178 435.221 182.461Z" fill="#024263"/>
<path d="M423.086 261.229C414.795 260.311 414.943 255.319 410.025 257.762C409.582 259.18 413.831 265.183 422.469 265.183C423.596 263.384 423.086 261.229 423.086 261.229Z" fill="white"/>
<path d="M430.519 165.155C431.1 167.596 431.739 169.634 432.395 171.498C433.383 174.316 434.403 176.739 435.314 179.551C435.658 180.614 435.986 181.734 436.289 182.952C436.293 182.965 436.297 182.979 436.299 182.994C436.299 182.994 443.154 183.992 450.173 180.18C450.003 179.06 449.866 177.98 449.755 176.936C448.474 164.951 450.478 157.908 443.51 154.048C439.639 155.033 438.516 155.589 434.648 156.538C433.097 158.609 430.754 162.249 430.519 165.155Z" fill="#02A659"/>
<path d="M434.645 156.539C434.678 156.308 433.394 147.109 433.394 147.109L439.752 144.86L443.509 154.049C440.541 154.831 437.591 155.679 434.645 156.539Z" fill="#FFA88F"/>
<path d="M432.576 194.557C440.875 200.63 458.271 195.467 458.271 195.467C460.061 184.99 449.755 176.937 449.755 176.937H449.754L438.662 178.944L435.313 179.551L435.288 179.555L433.966 186.869L432.576 194.557Z" fill="#02A659"/>
<path d="M435.289 179.555L433.966 186.869C437.03 181.699 444.147 169.689 447.302 164.365C441.643 162.506 436.221 166.948 432.394 171.498C433.382 174.317 434.402 176.739 435.313 179.551L435.289 179.555Z" fill="#026636"/>
<path d="M438.695 186.762L438.976 186.718C438.93 186.44 434.51 158.949 441.305 156.673C442.931 156.127 444.28 156.215 445.429 156.938C448.972 159.167 449.82 166.978 450.64 174.532C451.034 178.165 451.406 181.596 452.069 184.308L452.346 184.242C451.688 181.547 451.316 178.125 450.923 174.502C450.096 166.882 449.241 159.004 445.581 156.701C444.372 155.94 442.901 155.841 441.213 156.406C438.248 157.4 436.926 162.822 437.284 172.522C437.55 179.706 438.684 186.693 438.695 186.762Z" fill="black"/>
<path d="M439.411 196.168C441.968 197.636 453.529 195.639 455.091 193.458C454.807 189.836 453.87 186.748 452.352 184.136C447.654 184.001 443.133 184.822 438.769 186.483C438.168 189.206 438.442 193.408 439.411 196.168Z" fill="#DB6704"/>
<path d="M452.352 184.136C452.352 184.136 452.406 189.63 446.105 190.68C439.803 191.73 438.769 186.483 438.769 186.483C438.769 186.483 444.949 183.81 452.352 184.136Z" fill="#ED8934"/>
<path d="M446.845 192.504C447.183 192.445 447.41 192.126 447.352 191.792L446.961 189.599C446.901 189.266 446.577 189.041 446.239 189.1C445.902 189.158 445.674 189.478 445.732 189.811L446.123 192.004C446.183 192.337 446.508 192.562 446.845 192.504Z" fill="white"/>
<path d="M408.315 181.01L412.63 179.536L413.759 184.108C410.603 184.538 409.781 184.466 409.781 184.466C406.027 184.972 406.027 181.839 408.315 181.01Z" fill="#FFA88F"/>
<path d="M428.276 174.513L438.137 159.414C443.814 153.391 449.797 161.23 446.692 165.575C446.692 165.575 436.118 180.622 432.576 181.35C430.205 181.838 420.15 183.237 413.759 184.108L412.63 179.536L428.276 174.513Z" fill="#02A659"/>
<path d="M480.402 254.824L477.604 265.613H468.755C468.291 263.748 469.761 261.416 473.528 260.909C473.528 260.909 474.299 258.014 473.238 255.166C472.178 252.318 477.604 251.89 477.604 251.89L480.402 254.824Z" fill="white"/>
<path d="M411.453 179.88C411.453 179.88 405.58 177.732 405.241 178.581C404.903 179.428 405.145 180.364 405.145 180.364C405.145 180.364 400.894 179.97 400.608 180.936C400.323 181.902 400.753 188.416 412.497 184.223C410.758 181.577 411.453 179.88 411.453 179.88Z" fill="#FFA88F"/>
<path d="M462.908 192.78C462.896 192.865 463.667 195.338 465.14 196.467C466.612 197.597 468.877 198.077 468.877 198.077C470.327 198.074 473.735 194.671 471.181 193.966C469.082 193.387 468.068 193.061 468.068 193.061L466.489 191.667C466.489 191.667 463.355 189.508 462.908 192.78Z" fill="#FFA88F"/>
<path d="M211.74 254.053H178.667V256.544H211.74V254.053Z" fill="#CEFFFF"/>
<path d="M496.001 265.383H16.6953V266.063H496.001V265.383Z" fill="#027F99"/>
<path d="M339.674 117.101C336.001 117.072 328.761 117.038 315.326 117.038C313.239 117.038 311.544 115.371 311.544 113.314V106.99C311.544 104.933 313.236 103.266 315.323 103.266H339.26C341.347 103.266 343.039 104.933 343.039 106.99V113.807C343.04 115.636 341.53 117.116 339.674 117.101Z" fill="white"/>
<path d="M317.238 111.447C317.947 111.447 318.521 110.881 318.521 110.182C318.521 109.484 317.947 108.917 317.238 108.917C316.53 108.917 315.955 109.484 315.955 110.182C315.955 110.881 316.53 111.447 317.238 111.447Z" fill="#027273"/>
<path d="M323.941 111.447C324.649 111.447 325.224 110.881 325.224 110.182C325.224 109.484 324.649 108.917 323.941 108.917C323.232 108.917 322.658 109.484 322.658 110.182C322.658 110.881 323.232 111.447 323.941 111.447Z" fill="#027273"/>
<path d="M330.643 111.447C331.352 111.447 331.926 110.881 331.926 110.182C331.926 109.484 331.352 108.917 330.643 108.917C329.935 108.917 329.36 109.484 329.36 110.182C329.36 110.881 329.935 111.447 330.643 111.447Z" fill="#027273"/>
<path d="M337.346 111.447C338.054 111.447 338.629 110.881 338.629 110.182C338.629 109.484 338.054 108.917 337.346 108.917C336.637 108.917 336.063 109.484 336.063 110.182C336.063 110.881 336.637 111.447 337.346 111.447Z" fill="#027273"/>
<path d="M330.083 114.622V120.371L322.656 114.837L330.083 114.622Z" fill="white"/>
<path d="M272.216 25.6272C274.418 25.6272 276.202 23.8686 276.202 21.6993C276.202 19.53 274.418 17.7715 272.216 17.7715C270.015 17.7715 268.231 19.53 268.231 21.6993C268.231 23.8686 270.015 25.6272 272.216 25.6272Z" fill="white"/>
<path d="M291.042 22.4724L293.597 22.2616C293.367 9.01297 282.468 -0.845533 269.062 0.0573732L269.071 2.58402C281.069 1.79611 290.818 10.6175 291.042 22.4724Z" fill="white"/>
<path d="M285.738 22.91L288.292 22.6992C288.073 12.3445 279.561 4.64108 269.081 5.30336L269.089 7.83C278.161 7.28272 285.524 13.948 285.738 22.91Z" fill="white"/>
<path d="M280.604 23.3336L283.158 23.1228C282.949 15.5663 276.749 9.95188 269.098 10.382L269.106 12.9087C275.349 12.5935 280.401 17.1698 280.604 23.3336Z" fill="white"/>
</g>
<defs>
<clipPath id="clip0_229_5523">
<rect width="496" height="266.356" fill="white"/>
</clipPath>
</defs>
</svg>
