<svg width="54" height="38" viewBox="0 0 54 38" fill="none" xmlns="http://www.w3.org/2000/svg">
<path d="M39.8512 0.265007C34.8075 0.403757 30.8981 1.77251 27.0919 3.09626C23.0212 4.51001 19.1794 5.84313 13.8562 5.89751C10.2994 5.95376 6.73688 5.33876 3.23625 4.12751L0.75 3.26876V35.2975L1.99875 35.7419C5.25937 36.895 8.59313 37.5606 11.9119 37.7181C12.4388 37.7425 12.9544 37.7556 13.4606 37.7556C19.11 37.7556 23.4356 36.2556 27.63 34.8081C32.0513 33.2781 36.2212 31.8325 41.9119 32.1006C44.9282 32.2556 47.9055 32.8519 50.7487 33.8706L53.25 34.7556V2.71376L52.0162 2.26376C48.8258 1.10182 45.4765 0.434118 42.0844 0.283757C41.3405 0.250732 40.5956 0.244477 39.8512 0.265007ZM39.9525 3.98876C40.59 3.97001 41.2425 3.97001 41.9194 3.99626C42.6206 4.02626 43.3219 4.09001 44.0212 4.17251C44.3065 5.34898 45.0367 6.36906 46.0584 7.01837C47.0801 7.66768 48.3137 7.89565 49.5 7.65438V24.7206C48.8858 24.5956 48.2527 24.5953 47.6384 24.7198C47.024 24.8442 46.4409 25.0908 45.9238 25.445C45.4066 25.7991 44.9659 26.2536 44.6278 26.7814C44.2897 27.3093 44.0611 27.8996 43.9556 28.5175C43.3346 28.4536 42.7118 28.4074 42.0881 28.3788C35.685 28.0975 30.9638 29.7081 26.4 31.2906C21.9731 32.8244 17.7787 34.2738 12.0919 34.0038C11.3836 33.9667 10.6769 33.9042 9.97313 33.8163C9.68542 32.643 8.95504 31.6266 7.93489 30.9797C6.91473 30.3328 5.68388 30.1056 4.5 30.3456V13.2794C5.1179 13.4051 5.75486 13.4046 6.37253 13.2777C6.99021 13.1509 7.57583 12.9003 8.09416 12.5412C8.61248 12.1821 9.0528 11.7219 9.3886 11.1882C9.7244 10.6545 9.94874 10.0583 10.0481 9.43563C11.3325 9.56876 12.6169 9.64563 13.8975 9.62501C19.8319 9.56501 24.1462 8.06313 28.3219 6.61188C31.9988 5.33126 35.5031 4.12751 39.9525 3.98876ZM27 9.62501C22.8638 9.62501 19.5 13.8306 19.5 19C19.5 24.1694 22.8638 28.375 27 28.375C31.1362 28.375 34.5 24.1694 34.5 19C34.5 13.8306 31.1362 9.62501 27 9.62501ZM27 13.375C29.0325 13.375 30.75 15.9513 30.75 19C30.75 22.0488 29.0325 24.625 27 24.625C24.9675 24.625 23.25 22.0488 23.25 19C23.25 15.9513 24.9675 13.375 27 13.375ZM41.0625 13.375C40.3166 13.375 39.6012 13.6713 39.0738 14.1988C38.5463 14.7262 38.25 15.4416 38.25 16.1875C38.25 16.9334 38.5463 17.6488 39.0738 18.1762C39.6012 18.7037 40.3166 19 41.0625 19C41.8084 19 42.5238 18.7037 43.0512 18.1762C43.5787 17.6488 43.875 16.9334 43.875 16.1875C43.875 15.4416 43.5787 14.7262 43.0512 14.1988C42.5238 13.6713 41.8084 13.375 41.0625 13.375ZM12.9375 19C12.1916 19 11.4762 19.2963 10.9488 19.8238C10.4213 20.3512 10.125 21.0666 10.125 21.8125C10.125 22.5584 10.4213 23.2738 10.9488 23.8012C11.4762 24.3287 12.1916 24.625 12.9375 24.625C13.6834 24.625 14.3988 24.3287 14.9262 23.8012C15.4537 23.2738 15.75 22.5584 15.75 21.8125C15.75 21.0666 15.4537 20.3512 14.9262 19.8238C14.3988 19.2963 13.6834 19 12.9375 19Z" fill="#DF9C43"/>
</svg>
