<svg width="60" height="60" viewBox="0 0 60 60" fill="none" xmlns="http://www.w3.org/2000/svg">
<path d="M39.9773 34.4343C39.5363 34.4343 39.1133 34.6095 38.8015 34.9213C38.4896 35.2332 38.3144 35.6561 38.3144 36.0971C38.3144 36.5382 38.4896 36.9611 38.8015 37.273C39.1133 37.5848 39.5363 37.76 39.9773 37.76H45.5202C45.9613 37.76 46.3842 37.5848 46.6961 37.273C47.0079 36.9611 47.1831 36.5382 47.1831 36.0971C47.1831 35.6561 47.0079 35.2332 46.6961 34.9213C46.3842 34.6095 45.9613 34.4343 45.5202 34.4343H39.9773ZM5.05677 11.7082C5.05677 10.0911 5.69915 8.54025 6.8426 7.3968C7.98606 6.25335 9.53691 5.61096 11.154 5.61096H41.0859C42.703 5.61096 44.2538 6.25335 45.3973 7.3968C46.5407 8.54025 47.1831 10.0911 47.1831 11.7082V14.4974C49.2877 14.638 51.2602 15.5733 52.7011 17.1138C54.1419 18.6543 54.9434 20.6848 54.9432 22.7941V46.0744C54.9432 48.2796 54.0673 50.3944 52.508 51.9536C50.9487 53.5129 48.8339 54.3888 46.6288 54.3888H13.38C11.1749 54.3888 9.06012 53.5129 7.50087 51.9536C5.94161 50.3944 5.06563 48.2796 5.06563 46.0744V22.7941H5.05677V12.2625H5.08115C5.06472 12.0782 5.05659 11.8932 5.05677 11.7082V11.7082ZM46.6288 17.8054H8.3914V46.0744C8.3914 47.3975 8.91699 48.6664 9.85254 49.6019C10.7881 50.5375 12.057 51.0631 13.38 51.0631H46.6288C47.9519 51.0631 49.2208 50.5375 50.1563 49.6019C51.0919 48.6664 51.6175 47.3975 51.6175 46.0744V22.7941C51.6175 21.471 51.0919 20.2021 50.1563 19.2666C49.2208 18.331 47.9519 17.8054 46.6288 17.8054ZM43.8574 11.7082C43.8574 10.1783 42.6157 8.93673 41.0859 8.93673H11.154C10.419 8.93673 9.71403 9.22872 9.19428 9.74847C8.67452 10.2682 8.38253 10.9732 8.38253 11.7082C8.38253 12.4432 8.67452 13.1482 9.19428 13.6679C9.71403 14.1877 10.419 14.4797 11.154 14.4797H43.8574V11.7082Z" fill="#DF9C43"/>
</svg>
