<svg width="90" height="49" viewBox="0 0 90 49" fill="none" xmlns="http://www.w3.org/2000/svg">
<rect x="0.994873" y="1.73047" width="87.563" height="45.0388" rx="4" fill="#DF9C43"/>
<path d="M82.6309 0.5H7.37014C6.40224 0.49986 5.4438 0.691443 4.54955 1.06381C3.6553 1.43617 2.84276 1.98202 2.15835 2.67018C1.47394 3.35834 0.931069 4.17533 0.560734 5.07448C0.190399 5.97363 -0.000139642 6.93733 7.67839e-08 7.91053V41.0905C7.67839e-08 43.0556 0.776383 44.9403 2.15835 46.3298C3.54032 47.7194 5.41468 48.5 7.36908 48.5H82.6309C84.5853 48.5 86.4597 47.7194 87.8417 46.3298C89.2236 44.9403 90 43.0556 90 41.0905V7.91053C90.0001 6.93742 89.8096 5.9738 89.4394 5.07472C89.0691 4.17564 88.5263 3.3587 87.842 2.67056C87.1577 1.98241 86.3453 1.43654 85.4512 1.06411C84.5571 0.691687 83.5987 0.5 82.6309 0.5ZM86.7845 44.0819C85.7464 45.6723 84.3541 46.5225 82.3703 46.5161C69.9095 46.4787 57.4454 46.4958 44.9867 46.4958H8.16683C4.68226 46.4958 2.40389 44.4006 2.07734 40.8852C2.04224 40.5087 2.03798 40.1291 2.03798 39.7515C2.03798 29.5685 2.03515 19.3855 2.02948 9.20248C2.02948 7.96614 2.25072 6.79505 2.79957 5.69561C3.8526 3.58763 5.47044 2.47857 7.91261 2.48177C32.5344 2.50958 57.1561 2.51528 81.7779 2.49889C85.2975 2.49889 87.6121 4.64643 87.9269 8.20999C87.9599 8.58645 87.9641 8.96612 87.9641 9.34365C87.9641 19.4889 87.9666 29.6338 87.9716 39.7783C87.9726 41.3376 87.6344 42.7803 86.7845 44.0819Z" fill="white"/>
<path d="M37.8102 9.44559C34.5767 9.44559 31.575 9.45521 28.5733 9.44559C27.2746 9.43917 26.4822 8.77716 26.3598 7.66702C26.2152 6.3494 26.9002 5.46921 28.2085 5.31413C28.5084 5.28768 28.8096 5.27875 29.1105 5.28739C33.2886 5.28739 37.4656 5.29488 41.6437 5.27991C42.6648 5.27991 43.6519 5.33659 44.1209 6.42747C44.5815 7.49697 44.138 8.36754 43.4327 9.20816C40.2066 13.0519 37.0103 16.9203 33.8044 20.7812C33.5215 21.1223 33.2428 21.4667 32.8205 21.9822H39.0217C40.0003 21.9822 40.9789 21.9704 41.9574 21.9822C43.4806 22.0047 44.2507 22.6774 44.2922 23.9982C44.3347 25.3586 43.5689 26.1372 41.9989 26.1671C39.6663 26.2121 37.3326 26.18 34.9989 26.18C32.929 26.18 30.8591 26.18 28.7893 26.18C27.8373 26.18 26.9534 26.0292 26.5279 25.042C26.1131 24.0795 26.363 23.2303 27.0321 22.4303C30.5815 18.1791 34.1097 13.9075 37.8102 9.44559Z" fill="white"/>
<path d="M77.6556 41.8974C77.6556 42.6396 77.695 43.0481 77.6482 43.446C77.5333 44.4235 76.9685 44.9283 75.9793 44.892C75.0411 44.8567 74.4838 44.3444 74.4795 43.4054C74.4561 38.8329 74.454 34.2605 74.4731 29.688C74.4731 28.7447 75.1656 28.1159 76.0463 28.1116C76.9664 28.1116 77.6418 28.765 77.6556 29.7821C77.6833 31.6259 77.6631 33.4708 77.6631 35.6141C78.5321 34.7275 79.2128 34.0098 79.9244 33.3136C80.7892 32.474 81.7273 32.412 82.4102 33.1104C83.0931 33.8088 83.0091 34.767 82.1975 35.6152C81.3359 36.5114 80.4701 37.4066 79.5638 38.2568C79.1384 38.6557 79.1096 38.9049 79.55 39.3145C80.4318 40.1348 81.2689 41.0065 82.1113 41.8696C82.992 42.7722 83.1048 43.7626 82.4304 44.4588C81.7699 45.139 80.7052 45.0353 79.8563 44.185C79.1894 43.5166 78.5502 42.8268 77.6556 41.8974Z" fill="white"/>
<path d="M49.8375 38.7136C49.8375 37.2399 49.8163 35.765 49.8439 34.2913C49.8684 33.0175 50.7736 32.3587 51.9712 32.794C52.4382 32.9629 52.8222 32.9009 53.2583 32.8068C56.1887 32.1448 58.7606 33.9747 58.9574 36.9874C59.0925 39.0569 59.0436 41.1414 59.0021 43.2183C58.9787 44.3819 58.3479 44.9381 57.3257 44.9006C56.3216 44.8632 55.8058 44.2696 55.7951 43.075C55.7802 41.2569 55.7951 39.4462 55.7877 37.6324C55.7802 36.5875 55.2303 35.9094 54.4241 35.8966C53.6178 35.8837 53.02 36.55 53.0073 37.5853C52.9849 39.4034 53.0073 41.2141 52.9977 43.028C52.9913 44.2921 52.4658 44.8974 51.4022 44.8942C50.3385 44.891 49.8439 44.3188 49.8375 43.0215C49.8322 41.5863 49.8375 40.1499 49.8375 38.7136Z" fill="white"/>
<path d="M9.20899 35.5146C9.20899 33.6965 9.19729 31.888 9.20899 30.0741C9.21962 28.7512 9.77805 28.1341 10.8906 28.164C11.9171 28.1907 12.4021 28.8057 12.4042 30.1019C12.4042 33.5019 12.4191 36.9028 12.3957 40.3028C12.3904 41.1199 12.5138 41.6236 13.4998 41.7594C14.3944 41.8824 14.7635 42.6418 14.6422 43.5551C14.5252 44.4396 13.9838 44.8567 13.1095 44.8973C11.0396 44.9946 9.27281 43.2931 9.21643 41.0675C9.17282 39.2172 9.21005 37.3659 9.20899 35.5146Z" fill="white"/>
<path d="M33.6572 38.8502C33.6572 40.3219 33.6743 41.7946 33.6519 43.2651C33.6349 44.3506 33.0807 44.8982 32.0766 44.895C31.0959 44.895 30.5088 44.3175 30.5013 43.2448C30.4815 40.2637 30.4815 37.2824 30.5013 34.3006C30.5088 33.2814 31.1778 32.6236 32.0968 32.6301C33.0158 32.6365 33.6381 33.2814 33.6519 34.3209C33.6711 35.831 33.6562 37.3412 33.6572 38.8502Z" fill="white"/>
<path d="M32.0239 28.1616C33.1588 28.1381 34.0172 28.9648 34.0448 30.1102C34.0767 31.2728 33.28 32.107 32.1111 32.1348C30.9421 32.1626 30.1039 31.3594 30.0901 30.2001C30.0848 29.0215 30.8762 28.1852 32.0239 28.1616Z" fill="white"/>
<path d="M59.666 5.60405C56.3282 3.39554 51.7268 3.63939 48.4847 6.18692C43.2195 10.3259 42.5228 18.4658 46.986 23.6978C51.079 28.4955 58.4023 28.6057 62.3602 23.9298C63.1931 22.9448 63.2037 21.7641 62.3868 20.9898C61.5699 20.2155 60.4041 20.3021 59.4905 21.2251C58.9586 21.7598 58.413 22.2721 57.7407 22.6379C53.8392 24.7598 49.2729 22.3256 48.2603 17.6198C48.1071 16.9075 48.1539 16.637 48.9867 16.6573C51.3183 16.7118 53.6531 16.6765 55.9857 16.6765C58.3183 16.6765 60.652 16.6765 62.9857 16.6765C63.3728 16.6765 63.7494 16.7931 63.9015 16.1578C64.8694 12.113 63.2239 7.95587 59.666 5.60405ZM59.466 12.7247C55.8602 12.7066 52.2543 12.7162 48.5272 12.7162C50.0451 8.49382 54.2859 6.80616 57.6354 8.95692C58.7533 9.67669 59.5022 10.6874 59.9393 11.944C60.1042 12.4264 60.1404 12.728 59.466 12.7247Z" fill="white"/>
<path d="M21.0437 19.1061C19.913 20.66 18.5972 22.2514 15.619 22.2514C12.6407 22.2514 11.5111 20.66 11.5111 20.66C11.5111 20.66 19.0014 16.35 22.1382 14.5639C25.2749 12.7778 25.1558 12.0346 25.1558 11.1822C25.1558 10.3298 22.3626 4.83899 15.5509 4.83899C8.73919 4.83899 4.78235 10.58 4.78235 15.6666C4.78235 20.7531 8.43817 26.6278 15.6541 26.6278C22.87 26.6278 25.8483 20.8301 25.0143 19.1061C24.1804 17.382 22.1744 17.5521 21.0437 19.1061ZM9.24549 16.1489C9.2306 15.92 9.22954 15.7008 9.22954 15.7008C9.22954 13.9989 9.90193 12.3667 11.0988 11.1633C12.2956 9.95988 13.9189 9.28381 15.6115 9.28381C15.6115 9.28381 17.2655 9.15654 19.2046 10.3972C19.3598 10.4849 19.5028 10.5928 19.6301 10.718L9.3359 16.8708C9.29197 16.6321 9.26178 16.3911 9.24549 16.1489Z" fill="white"/>
<path d="M80.7332 5.60405C77.3965 3.39554 72.794 3.63939 69.5531 6.18692C64.2879 10.3259 63.5912 18.4658 68.0543 23.6978C72.1473 28.4955 79.4739 28.6057 83.4275 23.9288C84.2604 22.9438 84.271 21.7631 83.4541 20.9887C82.6372 20.2144 81.4714 20.3011 80.5577 21.224C80.0259 21.7588 79.4803 22.2711 78.808 22.6368C74.9076 24.7598 70.3402 22.3256 69.3286 17.6198C69.1755 16.9075 69.2223 16.637 70.0551 16.6573C72.3867 16.7118 74.7214 16.6765 77.054 16.6765C79.3866 16.6765 81.7203 16.6765 84.054 16.6765C84.4412 16.6765 84.8177 16.7931 84.9698 16.1578C85.9378 12.113 84.2923 7.95587 80.7332 5.60405ZM80.5354 12.7247C76.9296 12.7066 73.3238 12.7162 69.5967 12.7162C71.1124 8.49489 75.3543 6.80723 78.7038 8.96226C79.8217 9.68203 80.5705 10.6927 81.0077 11.9494C81.1736 12.4264 81.2076 12.728 80.5354 12.7247Z" fill="white"/>
</svg>
