<svg width="60" height="60" viewBox="0 0 60 60" fill="none" xmlns="http://www.w3.org/2000/svg">
<path d="M38.9285 30H42.4999V33.5714H38.9285V30Z" fill="#DF9C43"/>
<path d="M17.5 30H31.7857V33.5714H17.5V30Z" fill="#DF9C43"/>
<path d="M38.9285 22.8571H42.4999V26.4285H38.9285V22.8571Z" fill="#DF9C43"/>
<path d="M17.5 22.8571H31.7857V26.4285H17.5V22.8571Z" fill="#DF9C43"/>
<path d="M17.5 15.7144H42.5V19.2858H17.5V15.7144Z" fill="#DF9C43"/>
<path d="M46.0715 5H13.9286C12.9817 5.00095 12.0738 5.37752 11.4043 6.04709C10.7347 6.71666 10.3581 7.62452 10.3572 8.57143V53.2143C10.3572 53.6879 10.5453 54.1421 10.8802 54.477C11.2151 54.8119 11.6693 55 12.1429 55H13.9286C14.2059 55.0001 14.4793 54.9357 14.7273 54.8117C14.9753 54.6877 15.1909 54.5076 15.3572 54.2857L19.2857 49.0482L23.2143 54.2857C23.3877 54.4969 23.6057 54.6671 23.8528 54.7839C24.0998 54.9007 24.3696 54.9613 24.6429 54.9613C24.9161 54.9613 25.186 54.9007 25.433 54.7839C25.68 54.6671 25.8981 54.4969 26.0715 54.2857L30 49.0482L33.9286 54.2857C34.102 54.4969 34.32 54.6671 34.567 54.7839C34.8141 54.9007 35.0839 54.9613 35.3572 54.9613C35.6304 54.9613 35.9003 54.9007 36.1473 54.7839C36.3943 54.6671 36.6124 54.4969 36.7857 54.2857L40.7143 49.0482L44.6429 54.2857C44.8092 54.5075 45.0249 54.6875 45.2729 54.8115C45.5208 54.9355 45.7942 55 46.0715 55H47.8572C48.3308 55 48.785 54.8119 49.1199 54.477C49.4548 54.1421 49.6429 53.6879 49.6429 53.2143V8.57143C49.6419 7.62452 49.2654 6.71666 48.5958 6.04709C47.9262 5.37752 47.0184 5.00095 46.0715 5ZM46.0715 50.2375L42.1429 45C41.9695 44.7888 41.7515 44.6187 41.5044 44.5018C41.2574 44.385 40.9876 44.3244 40.7143 44.3244C40.4411 44.3244 40.1712 44.385 39.9242 44.5018C39.6772 44.6187 39.4591 44.7888 39.2858 45L35.3572 50.2375L31.4286 45C31.2552 44.7888 31.0372 44.6187 30.7902 44.5018C30.5431 44.385 30.2733 44.3244 30 44.3244C29.7268 44.3244 29.4569 44.385 29.2099 44.5018C28.9629 44.6187 28.7448 44.7888 28.5715 45L24.6429 50.2375L20.7143 45C20.5409 44.7888 20.3229 44.6187 20.0759 44.5018C19.8289 44.385 19.559 44.3244 19.2857 44.3244C19.0125 44.3244 18.7426 44.385 18.4956 44.5018C18.2486 44.6187 18.0305 44.7888 17.8572 45L13.9286 50.2375V8.57143H46.0715V50.2375Z" fill="#DF9C43"/>
</svg>
