<svg width="496" height="184" viewBox="0 0 496 184" fill="none" xmlns="http://www.w3.org/2000/svg">
<g clip-path="url(#clip0_229_6516)">
<path d="M14.8155 182.157C14.8155 182.157 -11.449 98.8065 31.4933 70.6376C72.9083 43.4698 113.579 67.2996 128.469 35.3031C138.073 14.6648 194.359 -4.64027 223.769 37.3268C253.179 79.2925 278.46 79.0796 298.753 71.3172C322.024 62.414 334.105 32.231 370.531 37.8978C412.633 44.4463 409.958 83.0727 436.161 80.6245C483.812 76.1729 524.115 138.617 470.43 182.682L14.8155 182.157Z" fill="#EAF1F8"/>
<path d="M186.242 181.987C186.242 181.987 177.395 157.164 211.87 157.267C253.882 157.392 227.986 136.741 256.873 126.395C280.975 117.762 306.217 141.137 306.217 141.137C306.217 141.137 334.281 64.8908 371.222 86.56C408.162 108.229 358.727 149.304 358.727 149.304C358.727 149.304 383.618 164.807 385.568 182.446L186.242 181.987Z" fill="#ACD29A"/>
<path d="M372.259 176.328C372.259 176.328 398.51 175.649 396.495 167.83C394.479 160.011 372.259 176.328 372.259 176.328Z" fill="#ACD29A"/>
<path d="M375.938 171.58C375.938 171.58 392.462 163.003 388.751 158.644C385.039 154.283 375.938 171.58 375.938 171.58Z" fill="#ACD29A"/>
<path d="M229.177 166.554C229.177 166.554 221.587 123.995 208.529 122.359C195.47 120.725 204.303 140.304 229.177 166.554Z" fill="#ACD29A"/>
<path d="M219.917 161.994C219.917 161.994 205.529 139.527 197.699 141.681C189.867 143.836 199.53 152.91 219.917 161.994Z" fill="#ACD29A"/>
<path d="M378.762 0.356445H292.787C290.092 0.356445 287.887 2.56188 287.887 5.25697V177.186C287.887 179.881 290.092 182.087 292.787 182.087H378.762C381.457 182.087 383.662 179.881 383.662 177.186V5.25697C383.664 2.56188 381.458 0.356445 378.762 0.356445Z" fill="#4A75CB"/>
<path d="M369.477 0.356445H283.503C280.808 0.356445 278.603 2.56188 278.603 5.25697V177.186C278.603 179.881 280.808 182.087 283.503 182.087H369.477C372.173 182.087 374.378 179.881 374.378 177.186V5.25697C374.379 2.56188 372.174 0.356445 369.477 0.356445Z" fill="#699FF0"/>
<path d="M370.953 14.8872H282.23V162.147H370.953V14.8872Z" fill="#EBF2F9"/>
<path d="M337.352 7.23584H312.455C311.922 7.23584 311.486 7.67123 311.486 8.20428C311.486 8.73733 311.922 9.17272 312.455 9.17272H337.352C337.885 9.17272 338.321 8.73733 338.321 8.20428C338.321 7.67123 337.885 7.23584 337.352 7.23584Z" fill="#4A75CB"/>
<path d="M341.774 7.23584C341.241 7.23584 340.805 7.67123 340.805 8.20428C340.805 8.73733 341.241 9.17272 341.774 9.17272C342.307 9.17272 342.742 8.73733 342.742 8.20428C342.742 7.67123 342.307 7.23584 341.774 7.23584Z" fill="#4A75CB"/>
<path d="M324.521 168.374C321.781 168.374 319.561 170.594 319.561 173.334C319.561 176.074 321.781 178.294 324.521 178.294C327.261 178.294 329.481 176.074 329.481 173.334C329.481 170.594 327.261 168.374 324.521 168.374Z" fill="#4A75CB"/>
<path d="M370.953 110.281H281.878V163.76H370.953V110.281Z" fill="#ADCBF9"/>
<path d="M323.349 154.176C313.575 154.176 305.623 146.223 305.623 136.449C305.623 126.675 313.575 118.723 323.349 118.723C333.123 118.723 341.075 126.675 341.075 136.449C341.075 146.225 333.123 154.176 323.349 154.176ZM323.349 121.04C314.851 121.04 307.938 127.953 307.938 136.451C307.938 144.948 314.851 151.862 323.349 151.862C331.847 151.862 338.76 144.948 338.76 136.451C338.76 127.953 331.847 121.04 323.349 121.04Z" fill="#699FF0"/>
<path d="M311.393 133.816C311.393 133.816 319.16 142.812 323.777 146.911C323.777 146.911 332.71 128.538 343.43 115.686C343.43 115.686 331.02 124.884 320.608 136.502C320.608 136.502 317.712 136.088 311.393 133.816Z" fill="#F1A34F"/>
<path d="M310.898 41.9819H352.539L357.868 81.867H323.189L310.898 41.9819Z" fill="#D86713"/>
<path d="M338.07 46.3465C338.067 46.3465 338.063 46.3465 338.06 46.3465C337.719 46.3411 337.445 46.059 337.45 45.7172C337.584 36.9673 336.218 31.1404 333.39 28.3978C331.977 27.0279 330.229 26.4107 328.042 26.5111C319.764 26.8936 319.135 45.5558 319.13 45.7443C319.12 46.0861 318.834 46.3519 318.492 46.3465C318.15 46.337 317.88 46.0522 317.89 45.709C317.913 44.8925 318.565 25.7068 327.985 25.2727C330.497 25.1574 332.604 25.9089 334.253 27.508C337.38 30.5408 338.831 36.5034 338.688 45.7362C338.684 46.0752 338.408 46.3465 338.07 46.3465Z" fill="#D86713"/>
<path d="M343.819 41.9819H305.242L297.101 81.867H339.494L343.819 41.9819Z" fill="#EE9849"/>
<path d="M322.305 56.4175C321.913 57.6233 321.198 58.6514 320.159 59.4991C319.12 60.3469 317.997 60.7714 316.787 60.7714C315.595 60.7714 314.746 60.3482 314.241 59.4991C313.737 58.6514 313.68 57.6247 314.072 56.4175C314.474 55.1764 315.203 54.1225 316.255 53.2572C317.308 52.3918 318.449 51.9592 319.676 51.9592C320.904 51.9592 321.758 52.4054 322.24 53.2965C322.686 54.1347 322.707 55.1751 322.305 56.4175ZM317.487 58.6134C318.082 58.6134 318.63 58.3869 319.128 57.9339C319.557 57.5324 319.873 57.0184 320.076 56.3917C320.274 55.7814 320.292 55.2673 320.13 54.8482C319.955 54.3599 319.57 54.1158 318.975 54.1158C318.36 54.1158 317.811 54.3518 317.325 54.8224C316.897 55.2239 316.578 55.7461 316.368 56.3917C316.181 56.9668 316.181 57.4809 316.367 57.9339C316.552 58.3869 316.925 58.6134 317.487 58.6134ZM329.846 52.7987C329.761 53.0619 329.541 53.4118 329.187 53.8499L321.869 62.8141C321.475 63.3214 320.864 64.0836 320.041 65.0982C319.032 66.3284 317.525 68.1812 315.52 70.6593C314.936 71.3781 314.346 71.7376 313.749 71.7376C313.415 71.7376 313.171 71.6277 313.014 71.4093C312.856 71.1896 312.833 70.9143 312.94 70.5806C313.026 70.3175 313.289 69.9146 313.728 69.3707L327.136 52.8788C327.749 52.1246 328.327 51.7476 328.871 51.7476C329.748 51.7476 330.073 52.0989 329.846 52.7987ZM328.616 67.1883C328.217 68.4158 327.495 69.4507 326.45 70.2917C325.404 71.134 324.277 71.5545 323.067 71.5545C321.892 71.5545 321.054 71.1245 320.552 70.2659C320.05 69.4073 319.995 68.3806 320.381 67.1883C320.791 65.9256 321.513 64.8649 322.546 64.0063C323.58 63.1477 324.718 62.7178 325.964 62.7178C327.227 62.7178 328.088 63.1437 328.548 63.9941C329.009 64.8432 329.032 65.9079 328.616 67.1883ZM326.379 67.1097C326.579 66.4966 326.598 65.9785 326.436 65.558C326.233 65.1023 325.834 64.8744 325.238 64.8744C324.642 64.8744 324.098 65.1199 323.605 65.6109C323.17 66.0314 322.854 66.5495 322.655 67.1626C322.466 67.7417 322.462 68.2409 322.641 68.6613C322.838 69.1347 323.216 69.3721 323.778 69.3721C324.373 69.3721 324.924 69.1347 325.428 68.6613C325.857 68.2585 326.174 67.7404 326.379 67.1097Z" fill="white"/>
<path d="M334.056 46.3465C334.053 46.3465 334.049 46.3465 334.047 46.3465C333.705 46.3411 333.431 46.059 333.436 45.7172C333.571 36.9673 332.205 31.1404 329.377 28.3978C327.963 27.0279 326.215 26.4107 324.029 26.5111C315.751 26.8936 315.121 45.5558 315.116 45.7443C315.106 46.0861 314.82 46.3519 314.478 46.3465C314.137 46.337 313.867 46.0522 313.876 45.709C313.899 44.8925 314.552 25.7068 323.972 25.2727C326.484 25.1574 328.59 25.9089 330.239 27.508C333.366 30.5408 334.817 36.5034 334.675 45.7362C334.671 46.0752 334.394 46.3465 334.056 46.3465Z" fill="#D86713"/>
<path d="M348.279 43.4966L344.823 81.8517H354.411L348.279 43.4966Z" fill="#C95C12"/>
<path d="M295.569 93.3767L320.48 93.3224C321.005 93.3211 321.434 92.8911 321.432 92.3662C321.431 91.8413 321.001 91.4127 320.476 91.4141L295.565 91.4683C295.041 91.4697 294.612 91.8996 294.613 92.4245C294.615 92.9494 295.046 93.3781 295.569 93.3767Z" fill="#ADCBF9"/>
<path d="M292.092 93.3835H292.16C292.684 93.3822 293.112 92.9522 293.112 92.4273C293.11 91.9024 292.68 91.4737 292.156 91.4751H292.088C291.563 91.4765 291.134 91.9064 291.136 92.4314C291.137 92.9563 291.567 93.3849 292.092 93.3835Z" fill="#ADCBF9"/>
<path d="M295.578 96.743L320.489 96.6888C321.013 96.6874 321.442 96.2574 321.441 95.7325C321.439 95.2075 321.009 94.7789 320.484 94.7803L295.574 94.8345C295.049 94.8359 294.62 95.2659 294.621 95.7908C294.623 96.3157 295.053 96.743 295.578 96.743Z" fill="#ADCBF9"/>
<path d="M292.099 96.7502H292.166C292.691 96.7488 293.12 96.3189 293.119 95.794C293.117 95.2691 292.687 94.8404 292.162 94.8418H292.095C291.57 94.8432 291.141 95.2731 291.142 95.798C291.144 96.3229 291.574 96.7515 292.099 96.7502Z" fill="#ADCBF9"/>
<path d="M320.491 98.147L295.58 98.2012C295.055 98.2026 294.627 98.6326 294.628 99.1575C294.63 99.6824 295.06 100.111 295.584 100.11L320.495 100.055C321.02 100.054 321.449 99.624 321.447 99.0991C321.446 98.5742 321.016 98.1456 320.491 98.147Z" fill="#ADCBF9"/>
<path d="M292.17 98.2095H292.103C291.578 98.2108 291.149 98.6408 291.15 99.1657C291.152 99.6906 291.582 100.119 292.107 100.118H292.174C292.699 100.117 293.128 99.6865 293.127 99.1616C293.125 98.6354 292.694 98.2081 292.17 98.2095Z" fill="#ADCBF9"/>
<path d="M151.458 63.5964C151.458 63.5964 143.009 59.9112 141.601 68.5661C140.923 72.7369 144.582 76.9321 143.672 79.086C142.761 81.2399 139.282 85.8773 141.518 88.0312C141.518 88.0312 141.353 85.9601 142.678 84.3867C142.678 84.3867 140.9 90.1146 144.605 90.8538C148.311 91.593 154.44 88.2794 154.025 82.4824C153.612 76.6826 151.458 63.5964 151.458 63.5964Z" fill="#163560"/>
<path d="M157.504 64.9215C157.504 64.9215 155.681 62.4367 150.879 63.2654C146.074 64.0941 147.561 74.0186 151.662 75.7235L157.504 64.9215Z" fill="#163560"/>
<path d="M177.38 180.886C177.279 181.194 176.701 181.808 175.208 182.088H171.4C170.593 181.948 170.363 181.78 169.021 181.945C166.974 182.198 165.171 182.198 165.066 180.919C165.029 180.468 165.111 180.023 165.192 179.588C165.346 178.786 165.997 178.175 165.876 177.259C165.609 175.219 162.999 168.999 162.999 168.999L167.482 168.162C167.482 168.162 168.618 175.42 169.862 177.014C170.966 178.428 172.408 179.332 174.078 179.743C174.265 179.789 174.451 179.834 174.638 179.877C176.118 180.226 177.501 180.521 177.38 180.886Z" fill="#B77446"/>
<path d="M177.381 180.886C177.279 181.194 176.701 181.809 175.208 182.088H171.4C170.593 181.948 170.363 181.78 169.021 181.946C166.975 182.198 165.171 182.198 165.066 180.919C165.03 180.469 165.111 180.024 165.192 179.588C166.522 179.721 168.491 180.511 170.418 180.69C172.781 180.909 174.62 179.904 174.62 179.904L174.638 179.877C176.118 180.226 177.501 180.522 177.381 180.886Z" fill="#365DA4"/>
<path d="M169.074 173.388C169.074 173.388 167.9 174.166 166.797 174.366C165.141 174.668 164.373 174.334 164.373 174.334C164.373 174.334 156.41 154.341 156.864 147.585C156.875 147.422 156.882 147.25 156.883 147.067C156.897 145.895 156.727 144.333 156.437 142.535C156.33 141.876 156.206 141.186 156.069 140.471C155.751 138.805 155.355 137.008 154.921 135.176C154.729 134.369 154.53 133.555 154.328 132.742C152.326 124.748 149.88 116.872 149.88 116.872C149.88 116.872 164.25 112.177 165.062 116.565C165.374 118.248 166.413 124.985 165.945 135.286C165.568 143.577 165.812 150.046 166.528 157.552C167.156 164.144 168.235 169.813 169.074 173.388Z" fill="#365DA4"/>
<path d="M156.883 147.067C156.897 145.895 156.727 144.333 156.437 142.535C156.33 141.876 156.206 141.186 156.069 140.471C155.751 138.805 155.355 137.008 154.921 135.176C154.729 134.369 154.53 133.555 154.328 132.742C154.611 130.304 154.841 128.63 154.841 128.63C154.841 128.63 160.806 136.733 156.883 147.067Z" fill="#285493"/>
<path d="M159.253 180.886C159.151 181.194 158.573 181.809 157.08 182.088H153.273C152.466 181.948 152.235 181.78 150.894 181.946C148.848 182.198 147.043 182.198 146.94 180.919C146.902 180.469 146.983 180.024 147.065 179.588C147.218 178.787 147.748 178.183 147.748 177.26C147.748 174.517 147.113 169.534 147.113 169.534L151.328 171.039C151.328 171.039 150.377 175.993 151.735 177.014C153.168 178.092 154.282 179.332 155.95 179.743C156.137 179.789 156.324 179.834 156.51 179.877C157.99 180.226 159.374 180.522 159.253 180.886Z" fill="#B77446"/>
<path d="M159.253 180.886C159.151 181.194 158.573 181.809 157.08 182.088H153.273C152.466 181.948 152.235 181.78 150.894 181.946C148.848 182.198 147.043 182.198 146.94 180.919C146.902 180.469 146.983 180.024 147.065 179.588C148.394 179.721 150.365 180.511 152.291 180.69C154.653 180.909 156.493 179.904 156.493 179.904L156.51 179.877C157.99 180.226 159.374 180.522 159.253 180.886Z" fill="#365DA4"/>
<path d="M158.534 115.306C158.534 115.306 153.859 138.606 153.069 151.286C152.28 163.967 151.294 174.466 151.294 174.466C151.294 174.466 150.274 174.834 149.103 174.767C147.868 174.697 146.887 174.316 146.887 174.316C146.887 174.316 142.254 155.236 143.788 147.6C145.322 139.963 144.044 132.918 143.307 126.584C142.251 117.502 146.316 113.28 149.152 110.401C152.026 107.488 158.534 115.306 158.534 115.306Z" fill="#365DA4"/>
<path d="M159.555 84.814L157.316 88.1737L152.803 87.9512L150.719 82.5638C150.719 82.5638 151.361 82.4417 151.661 75.7236L157.293 77.4421C157.293 77.4421 156.993 79.1932 157.393 81.1002C157.671 82.4295 158.28 83.8496 159.555 84.814Z" fill="#D9935C"/>
<path d="M160.183 82.4428C159.893 82.4428 154.588 80.6687 147.013 83.753C147.013 83.753 150.609 104.328 149.065 108.256C147.52 112.182 146.933 115.668 146.933 115.668L163.692 115.876C163.692 115.876 163.457 102.398 164.231 97.6272C165.002 92.8569 160.183 82.4428 160.183 82.4428Z" fill="#D9935C"/>
<path d="M188.017 96.2889C187.967 95.703 187.782 95.57 187.782 95.57C182.425 96.3567 178.874 96.312 177.134 96.651C175.766 96.9155 175.208 96.9535 174.973 96.6226C167.571 86.2152 162.333 82.9464 162.333 82.9464C162.333 82.9464 161.774 82.6141 159.589 82.313C159.589 82.313 159.274 86.2708 157.241 86.6059C153.723 87.1864 150.889 83.9637 150.061 82.667C150.061 82.667 146.021 83.687 144.835 85.0379C143.983 86.0091 144.094 88.3325 144.346 89.7933C144.426 90.2572 144.521 90.6342 144.603 90.8526C144.852 91.5145 145.799 96.3662 146.23 98.2977C146.24 98.3465 146.251 98.3926 146.259 98.4347C146.289 98.5635 146.314 98.6774 146.339 98.7724C146.34 98.7751 146.34 98.7778 146.34 98.7805C146.366 98.8836 146.386 98.9636 146.404 99.0165C146.413 99.0477 146.424 99.0803 146.434 99.1115C146.434 99.1128 146.435 99.1155 146.437 99.1169C147.059 101.104 147.435 103.129 147.214 105.611C147.188 105.903 147.12 106.255 147.021 106.651C146.458 109.536 144.12 115.226 143.634 117.837C143.914 118.427 144.548 118.894 145.32 119.266C146.327 119.751 147.564 120.075 148.55 120.3C149.312 120.475 150.485 120.672 151.838 120.824C152.555 120.904 153.324 120.972 154.107 121.018C154.217 121.025 154.326 121.032 154.436 121.036C159.485 121.287 165.138 121.162 165.874 118.762C166.227 117.611 164.821 110.687 164.632 108.629C164.304 105.014 164.838 100.065 165.08 96.2319C169.223 100.797 173.499 102.441 173.499 102.441C174.523 102.394 175.701 102.201 176.934 101.926C178.258 101.63 179.647 101.237 180.973 100.815C184.727 99.6269 188.254 97.964 188.254 97.964C188.254 97.964 188.128 97.5815 188.017 96.2889Z" fill="#80BDCC"/>
<path d="M158.023 113.3C157.066 116.545 156.51 119.214 154.108 121.019C153.326 120.975 152.556 120.905 151.839 120.825C150.487 120.674 149.313 120.477 148.551 120.302C147.566 120.075 146.328 119.753 145.322 119.267C144.55 118.895 143.917 118.429 143.636 117.839C144.121 115.226 146.46 109.538 147.023 106.653C147.078 106.372 147.116 106.118 147.134 105.896C147.343 103.311 147.008 101.188 146.438 99.117C146.437 99.1156 146.435 99.1129 146.435 99.1115C146.404 99.0017 146.373 98.8918 146.342 98.7819C146.34 98.7792 146.34 98.7765 146.34 98.7738C146.32 98.7019 146.293 98.5866 146.26 98.4361C146.251 98.394 146.241 98.3492 146.232 98.2991C145.847 96.4693 144.837 90.7252 144.581 89.9764C144.5 89.7391 144.409 89.3335 144.329 88.833L146.347 86.8921C146.347 86.8921 157.924 91.836 160.475 98.6544C163.026 105.471 159.395 108.647 158.023 113.3Z" fill="#5F9AA8"/>
<path d="M180.978 100.815C178.416 101.627 175.627 102.339 173.503 102.441C173.503 102.441 169.252 100.868 165.084 96.2317C164.909 95.4436 164.655 94.033 165.61 94.4142C166.949 94.9486 171.898 101.304 173.771 101.437C175.11 101.534 178.921 101.081 180.978 100.815Z" fill="#5F9AA8"/>
<path d="M171.834 99.0053C171.834 99.0053 166.128 101.871 161.18 103.058C159.756 103.4 158.385 103.641 157.216 103.697C157.216 103.697 151.858 102.087 147.834 96.3726C140.399 85.8148 146.046 84.2007 146.046 84.2007C146.046 84.2007 151.286 87.4695 158.686 97.8782C158.945 98.2431 159.595 98.1603 161.278 97.8199C163.076 97.4564 166.655 97.4998 171.596 96.7741C171.596 96.7741 171.678 96.9572 171.729 97.5432C171.84 98.8358 171.834 99.0053 171.834 99.0053Z" fill="#80BDCC"/>
<path d="M188.257 97.9637C188.257 97.9637 184.729 99.6266 180.976 100.815C179.648 101.237 178.261 101.63 176.937 101.926C176.405 99.5601 176.773 97.7168 177.134 96.6493C178.874 96.3102 182.592 96.2872 187.949 95.5005L188.257 97.9637Z" fill="#A86337"/>
<path d="M186.613 95.8358C186.613 95.8358 187.968 95.5726 189.098 95.007C190.228 94.4428 193.239 94.0657 193.879 94.6679C194.52 95.2702 193.201 97.7171 190.453 97.793C187.705 97.8676 186.914 98.3206 186.914 98.3206L186.613 95.8358Z" fill="#A86337"/>
<path d="M191.499 87.4983L176.176 90.4769C175.505 90.6071 174.957 91.2622 174.957 91.9336V102.523C174.957 103.194 175.506 103.636 176.176 103.505L191.499 100.526C192.17 100.396 192.718 99.7408 192.718 99.0694V88.4803C192.718 87.8103 192.17 87.3681 191.499 87.4983Z" fill="#CA5F00"/>
<path d="M192.109 87.4983L176.787 90.4769C176.115 90.6071 175.567 91.2622 175.567 91.9336V102.523C175.567 103.194 176.116 103.636 176.787 103.505L192.109 100.526C192.781 100.396 193.329 99.7408 193.329 99.0694V88.4803C193.329 87.8103 192.781 87.3681 192.109 87.4983Z" fill="#E69D43"/>
<path d="M177.042 91.3045C176.765 91.3588 176.541 91.626 176.541 91.9027C176.541 92.1794 176.765 92.3598 177.042 92.3055C177.318 92.2513 177.542 91.984 177.542 91.7073C177.542 91.432 177.318 91.2502 177.042 91.3045Z" fill="#CA5F00"/>
<path d="M178.751 95.4829C178.067 94.8399 174.852 95.2414 173.647 95.845C172.941 96.1977 172.155 96.4404 171.623 96.5802C171.622 96.5747 171.622 96.572 171.622 96.572C166.68 97.2977 163.076 97.455 161.279 97.8185C161.842 99.0325 162.267 100.91 161.182 103.058C165.907 101.926 171.444 99.3973 171.932 99.1722C172.487 99.0311 173.47 98.8629 175.095 98.8195C178.026 98.7381 179.433 96.1258 178.751 95.4829Z" fill="#B77446"/>
<path d="M157.395 81.1002C155.067 80.9117 151.663 75.7236 151.663 75.7236L157.294 77.4421C157.294 77.4408 156.994 79.1932 157.395 81.1002Z" fill="#CC7C46"/>
<path d="M158.77 77.822C158.77 77.822 152.026 79.1756 151.248 74.9641C150.469 70.7513 149.073 68.0887 153.347 67.0457C157.62 66.0027 158.756 67.4553 159.359 68.7981C159.958 70.1409 160.503 77.3608 158.77 77.822Z" fill="#D9935C"/>
<path d="M155.474 65.9943C155.474 65.9943 155.592 67.4226 153.374 69.8477C151.157 72.2729 152.415 76.0815 152.415 76.0815C152.415 76.0815 147.948 69.5683 149.941 67.3249C151.935 65.0815 155.474 65.9943 155.474 65.9943Z" fill="#163560"/>
<path d="M152.763 64.1349C152.763 64.1349 156.116 63.0132 159.443 66.2915C160.876 67.7034 160.659 70.4799 159.892 72.0913C159.892 72.0913 158.713 68.6393 156.567 67.8865C154.42 67.1338 152.763 64.1349 152.763 64.1349Z" fill="#163560"/>
<path d="M156.669 75.7492C156.669 75.7492 156.849 76.2497 158.119 76.0218C158.119 76.0218 159.185 75.832 159.087 75.2705C159.086 75.2705 157.998 74.9897 156.669 75.7492Z" fill="white"/>
<path d="M219.352 92.8149L218.336 94.4616C217.808 95.0679 217.666 95.407 217.248 95.6131C216.239 96.1096 214.374 97.3845 214.233 100.063C214.233 100.063 214.264 101.58 215.281 101.087C216.297 100.596 215.854 100.641 217.298 99.9806C218.743 99.3187 219.278 97.2136 219.404 96.4961L220.583 94.9485L219.352 92.8149Z" fill="#D9935C"/>
<path d="M283.726 68.6894C283.726 68.6894 284.804 66.0486 285.989 65.9401C287.175 65.8329 290.948 65.2388 291.218 65.7787C291.488 66.3171 291.218 68.2581 290.41 68.9593C289.601 69.6605 284.588 70.7917 284.588 70.7917L283.726 68.6894Z" fill="#D9935C"/>
<path d="M265.523 180.418C265.39 180.83 264.624 181.662 262.617 182.051H257.368C256.674 181.924 256.281 181.793 255.337 181.856C255.302 181.859 255.265 181.861 255.229 181.864C255.182 181.867 255.135 181.871 255.088 181.876C254.907 181.893 254.705 181.917 254.481 181.945C254.183 181.986 253.887 182.021 253.6 182.051C253.469 182.065 253.341 182.077 253.214 182.088H251.047C250.968 182.077 250.892 182.065 250.818 182.051C250.57 182.005 250.346 181.941 250.148 181.855C250.145 181.855 250.142 181.853 250.14 181.852C249.619 181.624 249.289 181.241 249.234 180.647C249.178 180.053 249.278 179.462 249.38 178.885C249.392 178.816 249.407 178.747 249.422 178.678C249.632 177.692 250.176 177.369 250.277 176.23C250.461 174.099 248.698 166.703 248.698 166.703H255.417C255.417 166.703 255.235 173.398 256.004 175.653C256.729 177.781 258.922 178.436 261.136 178.956C261.384 179.013 261.632 179.07 261.88 179.126C261.971 179.145 262.061 179.166 262.15 179.185C264.008 179.599 265.67 179.957 265.523 180.418Z" fill="#D9935C"/>
<path d="M241.414 108.283C241.981 111.467 242.791 114.757 243.493 118.179C244.622 123.682 245.475 129.526 244.601 135.82C244.49 136.63 244.429 137.524 244.416 138.485C244.246 149.609 249.217 169.768 249.217 169.768C249.217 169.768 250.567 170.35 252.829 170.239C253.994 170.181 255.782 169.431 255.782 169.431C255.782 169.431 256.252 156.932 256.281 140.122C256.301 127.938 258.694 111.895 259.177 102.468C259.47 96.7636 258.834 89.164 258.834 89.164C258.834 89.164 248.925 81.1967 245.368 85.2726C241.852 89.2996 239.293 96.373 241.414 108.283Z" fill="#80BDCC"/>
<path d="M244.603 135.82C244.492 136.629 244.431 137.523 244.417 138.485C251.838 127.734 253.478 104.292 253.478 104.292L245.327 108.248C245.327 108.248 244.433 112.644 243.493 118.179C244.622 123.68 245.475 129.525 244.603 135.82Z" fill="#5F9AA8"/>
<path d="M244.087 180.504C243.964 180.888 243.291 181.636 241.576 182.051H235.494C235.03 181.959 234.631 181.893 233.901 181.942C233.866 181.944 233.829 181.946 233.793 181.95C233.747 181.952 233.699 181.957 233.652 181.961C233.471 181.977 233.269 182.001 233.045 182.031C232.992 182.038 228.809 181.982 228.712 181.94C228.709 181.94 228.705 181.939 228.704 181.938C228.181 181.708 227.853 181.327 227.798 180.733C227.742 180.138 227.842 179.548 227.944 178.971C227.956 178.902 227.97 178.833 227.986 178.764C228.195 177.778 228.773 177.151 228.875 176.013C229.059 173.882 228.672 166.371 228.672 166.371L234.898 166.89C234.898 166.89 233.798 173.482 234.567 175.739C235.293 177.866 237.486 178.522 239.7 179.042C239.948 179.097 240.196 179.156 240.443 179.21C240.535 179.23 240.625 179.251 240.714 179.271C242.571 179.683 244.233 180.041 244.087 180.504Z" fill="#D9935C"/>
<path d="M228.675 170.337C228.675 170.337 230.276 171.093 231.427 171.324C232.579 171.555 234.973 171.104 234.973 171.104C235.404 166.263 236.408 158.695 238.357 150.154C240.577 140.43 243.88 128.939 248.485 118.057C249.468 115.734 253.524 104.734 254.213 101.957C256.295 93.5695 254.205 94.4728 254.205 94.4728L236.013 92.3379C236.013 92.3379 233.772 93.4894 232.74 105.335C232.431 108.881 232.393 124.197 231.928 127.1C231.487 129.849 230.97 132.136 230.365 133.621C226.985 141.917 228.675 170.337 228.675 170.337Z" fill="#80BDCC"/>
<path d="M244.087 180.523C243.964 180.912 243.291 181.669 241.576 182.088H235.494C235.03 181.996 234.631 181.928 233.901 181.977C233.866 181.98 233.829 181.981 233.793 181.985C233.747 181.988 233.699 181.993 233.652 181.997C233.467 182.011 233.265 182.031 233.041 182.057C232.95 182.068 232.86 182.079 232.769 182.088H229.098C228.961 182.057 228.833 182.02 228.712 181.976C228.709 181.976 228.705 181.974 228.704 181.973C228.181 181.741 227.853 181.356 227.798 180.755C227.742 180.153 227.842 179.557 227.944 178.974C227.956 178.903 227.97 178.834 227.986 178.764C229.819 179.021 232.427 180.056 234.982 180.304C237.888 180.589 240.226 179.521 240.714 179.276C242.571 179.694 244.233 180.056 244.087 180.523Z" fill="#B84C42"/>
<path d="M265.523 180.439C265.39 180.856 264.624 181.697 262.617 182.092H257.368C256.674 181.963 256.281 181.832 255.337 181.894C255.302 181.897 255.265 181.899 255.229 181.902C255.182 181.905 255.135 181.909 255.088 181.914C254.903 181.928 254.702 181.947 254.477 181.975C254.089 182.022 253.708 182.062 253.338 182.092C252.487 182.163 251.695 182.176 251.028 182.092C250.702 182.051 250.407 181.986 250.148 181.893C250.145 181.893 250.142 181.891 250.139 181.89C249.619 181.659 249.289 181.273 249.233 180.671C249.178 180.07 249.278 179.47 249.38 178.887C249.392 178.816 249.407 178.747 249.422 178.677C251.254 178.934 253.863 179.971 256.418 180.219C259.323 180.506 261.662 179.435 262.15 179.191C264.008 179.61 265.67 179.972 265.523 180.439Z" fill="#B84C42"/>
<path d="M256.512 37.8663C257.126 32.8478 255.559 24.8182 245.543 26.1013C235.527 27.3844 232.37 37.2275 234.391 41.6044C236.41 45.9814 231.483 47.0367 229.935 51.7432C228.606 55.7865 228.143 60.8064 225.992 63.0593C219.058 70.3226 232.649 81.4936 240.842 79.1376C255.764 74.8474 257.688 74.2072 257.157 62.4815C256.886 56.4742 252.212 54.1467 255.18 52.4078C262.349 48.2099 255.121 49.2218 256.512 37.8663Z" fill="#B74B42"/>
<path d="M241.79 51.0011L244.55 58.1315L250.504 58.4218L253.475 53.9851C251.6 52.5596 250.808 50.4206 250.517 48.5054C250.279 46.9741 250.344 45.5879 250.411 44.8351C250.45 44.4526 250.489 44.2275 250.489 44.2275L243.069 41.9691L243.043 41.9556C242.951 43.9223 242.845 45.4672 242.726 46.6689C242.304 50.9089 241.79 51.0011 241.79 51.0011Z" fill="#D9935C"/>
<path d="M253.501 50.7505C253.117 50.7505 246.613 49.4267 235.628 52.237C235.628 52.237 241.643 79.7996 239.601 84.9945C237.557 90.1893 236.781 94.7996 236.781 94.7996L258.952 95.0749C258.952 95.0749 258.641 77.2442 259.664 70.9331C260.684 64.622 253.501 50.7505 253.501 50.7505Z" fill="#D9935C"/>
<path d="M283.815 67.3645C283.815 67.3645 271.182 72.1131 269.926 72.2027C267.192 72.398 264.408 59.1965 261.852 54.7979C260.121 51.8193 254.287 50.8698 253.554 50.7613C253.536 50.7573 253.518 50.7546 253.499 50.7505V50.7532C253.484 50.7505 253.476 50.7505 253.476 50.7505L253.492 50.8183C253.436 51.4219 252.927 55.9372 250.415 56.3509C245.761 57.1186 242.012 52.8556 240.916 51.1398H240.915C240.915 51.1398 235.641 51.3486 233.196 53.6233C230.43 56.1963 226.315 71.93 225.204 79.5921C225.204 79.5921 219.623 90.2287 217.846 94.4483C217.846 94.4483 218.178 95.0248 218.844 95.4602C219.49 95.882 220.304 96.0488 220.304 96.0488C220.304 96.0488 230.372 84.8114 231.032 83.0345C231.347 82.1909 233.745 78.2941 236.104 72.8483C236.938 75.4946 237.445 78.1856 237.15 81.4937C236.826 85.1423 233.417 93.4785 234.153 95.2553C234.927 97.1203 235.999 98.0644 238.349 98.6042C239.968 98.9772 242.193 99.1576 245.342 99.3136C252.021 99.6459 259.178 98.8063 260.152 95.6311C260.619 94.1065 260.44 88.2104 260.192 85.4882C259.866 81.9101 260.181 77.3433 260.493 73.1467C260.508 73.1697 260.523 73.1928 260.539 73.2172C261.269 74.324 262.095 75.5135 262.946 76.6149C264.227 78.2697 265.563 79.721 266.706 80.3815C266.983 80.5429 267.249 80.6555 267.501 80.7152C268.376 80.9227 269.978 80.4385 271.879 79.6043C272.553 79.3086 273.267 78.9682 273.998 78.5993C279.273 75.934 285.511 71.7578 285.511 71.7578C285.92 69.3367 283.815 67.3645 283.815 67.3645Z" fill="#E69D43"/>
<path d="M234.16 95.255C234.933 97.12 236.006 98.0641 238.355 98.6039C241.495 98.0003 243.567 92.2222 244.633 89.3793C245.861 86.1023 239.461 69.255 237.693 69.4083C236.381 69.5222 236.128 71.6707 236.085 72.768C236.934 75.44 237.453 78.1527 237.155 81.4934C236.831 85.142 233.422 93.4796 234.16 95.255Z" fill="#E58638"/>
<path d="M260.545 73.2158C261.275 74.3225 262.101 75.5121 262.953 76.6134C264.174 78.1163 265.521 79.5689 266.713 80.38C266.99 80.5414 267.255 80.654 267.508 80.7137C268.383 80.9212 269.984 80.437 271.886 79.6028C270.755 79.6856 269.643 79.6463 268.551 79.5527C266.637 79.3899 266.081 77.3174 263.055 74.21C261.245 72.3531 260.696 72.6393 260.545 73.2158Z" fill="#E58638"/>
<path d="M243.07 41.9692C244.193 43.8044 246.899 47.5805 250.518 48.5056C250.28 46.9742 250.346 45.588 250.412 44.8352C250.451 44.4527 250.491 44.2276 250.491 44.2276L243.07 41.9692Z" fill="#CC7C46"/>
<path d="M252.438 44.7321C252.438 44.7321 243.518 46.5239 242.487 40.9506C241.456 35.3773 239.611 31.8562 245.263 30.4754C250.915 29.096 252.418 31.0166 253.216 32.7935C254.012 34.5716 254.733 44.1218 252.438 44.7321Z" fill="#D9935C"/>
<path d="M248.079 29.0852C248.079 29.0852 248.235 30.976 245.301 34.1824C242.368 37.3902 242.939 43.8763 242.939 43.8763C242.939 43.8763 238.121 33.8135 240.759 30.8458C243.398 27.878 248.079 29.0852 248.079 29.0852Z" fill="#B74B42"/>
<path d="M244.492 26.6249C244.492 26.6249 248.927 25.141 253.328 29.4773C255.224 31.3463 254.938 35.018 253.922 37.1502C253.922 37.1502 252.363 32.5833 249.524 31.5878C246.685 30.5922 244.492 26.6249 244.492 26.6249Z" fill="#B74B42"/>
<path d="M249.659 41.9896C249.659 41.9896 249.898 42.6515 251.577 42.3504C251.577 42.3504 252.988 42.0981 252.858 41.3561C252.858 41.3575 251.42 40.9845 249.659 41.9896Z" fill="white"/>
<path d="M117.193 156.78H21.3328C19.9968 156.78 18.9036 157.832 18.9036 159.118C18.9036 160.404 19.9968 161.457 21.3328 161.457H23.541V180.584C23.541 181.402 24.2368 182.072 25.0872 182.072H34.1436C34.994 182.072 35.6899 181.403 35.6899 180.584V161.457H98.5856V180.576C98.5856 181.399 99.2854 182.072 100.141 182.072H109.179C110.035 182.072 110.734 181.399 110.734 180.576V161.457H117.195C118.531 161.457 119.624 160.404 119.624 159.118C119.624 157.831 118.531 156.78 117.193 156.78Z" fill="#A6C7F9"/>
<path d="M193.902 4.15283H170.47C164.305 4.15283 159.262 9.19713 159.262 15.3604V34.6628C159.262 40.8274 164.307 45.8704 170.47 45.8704H193.902C200.067 45.8704 205.11 40.8261 205.11 34.6628V15.3604C205.11 9.19578 200.066 4.15283 193.902 4.15283Z" fill="#A6D9F1"/>
<path d="M170.181 22.8095C170.181 22.8095 161.369 27.1959 161.203 28.2905L179.621 28.3353C179.621 28.3353 183.966 27.4699 184.832 24.0397C186.134 18.8882 188.418 19.1921 188.418 19.1921L188.302 28.3556L190.922 28.3624C190.922 28.3624 194.853 14.7256 194.86 12.0359C194.867 9.34626 193.748 8.59619 193.748 8.59619C193.748 8.59619 186.874 9.10211 178.775 21.5589C178.775 21.5603 177.181 23.0767 170.181 22.8095Z" fill="#D86713"/>
<path d="M177.181 31.0533C177.181 31.0533 169.318 36.9752 169.355 38.082L187.472 34.7629C187.472 34.7629 191.584 33.119 191.811 29.5884C192.151 24.2851 194.452 24.1671 194.452 24.1671L196.01 33.1977L198.588 32.7257C198.588 32.7257 199.964 18.6006 199.478 15.9543C198.994 13.3094 197.757 12.7764 197.757 12.7764C197.757 12.7764 191.091 14.5288 185.403 28.2551C185.402 28.2565 184.112 30.0374 177.181 31.0533Z" fill="#F1A34F"/>
<path d="M174.259 29.6226C174.259 29.6226 175.001 32.3705 173.477 33.3037C172.02 34.1962 170.729 34.3725 170.729 34.3725C170.729 34.3725 175.149 34.1569 176.154 38.0171C176.154 38.0171 174.809 33.9222 178.805 33.0121C178.805 33.0121 175.977 34.1257 174.259 29.6226Z" fill="#EBF2F9"/>
<path d="M180.052 66.4722C179.694 66.6241 179.528 67.0378 179.679 67.3958C179.831 67.7539 180.245 67.9208 180.603 67.7688C180.961 67.6169 181.128 67.2032 180.976 66.8452C180.823 66.4871 180.409 66.3203 180.052 66.4722Z" fill="#A6D9F1"/>
<path d="M185.133 60.6508C184.455 60.9383 184.139 61.7223 184.427 62.4005C184.714 63.0787 185.498 63.3947 186.177 63.1072C186.855 62.8196 187.171 62.0356 186.883 61.3574C186.596 60.6793 185.812 60.3619 185.133 60.6508Z" fill="#A6D9F1"/>
<path d="M191.018 52.1423C190.561 51.0653 189.318 50.5635 188.241 51.0206C187.164 51.4777 186.662 52.7214 187.119 53.7984C187.576 54.8753 188.82 55.3772 189.897 54.9201C190.974 54.463 191.476 53.2192 191.018 52.1423Z" fill="#A6D9F1"/>
<path d="M66.726 69.3813H52.3174C48.5264 69.3813 45.4258 72.4833 45.4258 76.273V88.1424C45.4258 91.9334 48.5278 95.0341 52.3174 95.0341H66.726C70.5171 95.0341 73.6177 91.9321 73.6177 88.1424V76.273C73.6177 72.4833 70.5171 69.3813 66.726 69.3813Z" fill="#EE9849"/>
<path d="M57.606 77.384C57.606 78.4216 57.2818 79.3073 56.6362 80.0371C55.9905 80.7695 55.1564 81.1344 54.1323 81.1344C53.1232 81.1344 52.2877 80.7695 51.6258 80.0371C50.9666 79.3073 50.6343 78.4216 50.6343 77.384C50.6343 76.3152 50.9625 75.4078 51.6149 74.6632C52.2687 73.9158 53.1137 73.5442 54.154 73.5442C55.193 73.5442 56.038 73.928 56.6931 74.6971C57.3008 75.4187 57.606 76.3152 57.606 77.384ZM54.1323 79.2761C54.6355 79.2761 55.037 79.0808 55.3341 78.6902C55.5863 78.3457 55.7125 77.9035 55.7125 77.3623C55.7125 76.8374 55.585 76.3925 55.3341 76.0331C55.0533 75.6126 54.6586 75.4024 54.154 75.4024C53.6345 75.4024 53.2331 75.6058 52.9509 76.0114C52.6987 76.3559 52.5739 76.8062 52.5739 77.3623C52.5739 77.856 52.7136 78.3009 52.9957 78.6902C53.2778 79.0808 53.6549 79.2761 54.1323 79.2761ZM62.9934 74.2685C62.9934 74.495 62.9053 74.7974 62.7249 75.1732L58.9962 82.8949C58.8023 83.3317 58.4957 83.9881 58.078 84.863C57.5639 85.9237 56.7962 87.5201 55.7803 89.6537C55.4833 90.2735 55.0831 90.5828 54.5786 90.5828C54.2964 90.5828 54.0591 90.4865 53.8651 90.2993C53.6725 90.1108 53.5776 89.8734 53.5776 89.5858C53.5776 89.3593 53.6874 89.0121 53.9112 88.5442L60.7242 74.3376C61.0362 73.6879 61.4214 73.3638 61.8826 73.3638C62.6218 73.3624 62.9934 73.6649 62.9934 74.2685ZM65.9109 86.6629C65.9109 87.7195 65.5854 88.612 64.9303 89.3363C64.2779 90.0606 63.4383 90.4241 62.4156 90.4241C61.4214 90.4241 60.5927 90.0538 59.9335 89.3119C59.2716 88.5726 58.942 87.6896 58.942 86.6615C58.942 85.5737 59.2607 84.6595 59.8982 83.9203C60.5357 83.1811 61.3821 82.8108 62.4373 82.8108C63.5061 82.8108 64.3525 83.1784 64.9764 83.9095C65.599 84.6419 65.9109 85.5602 65.9109 86.6629ZM63.9944 86.5937C63.9944 86.0647 63.8696 85.6198 63.616 85.2563C63.3189 84.863 62.9188 84.6663 62.4143 84.6663C61.9083 84.6663 61.515 84.8779 61.2342 85.3025C60.9806 85.6633 60.8558 86.1095 60.8558 86.6371C60.8558 87.1363 60.9887 87.5662 61.2559 87.9297C61.553 88.3366 61.9395 88.5414 62.4143 88.5414C62.9175 88.5414 63.3189 88.3366 63.616 87.9297C63.8696 87.5839 63.9944 87.139 63.9944 86.5937Z" fill="#E58638"/>
<path d="M66.2976 83.9097C65.6737 83.1773 64.8273 82.811 63.7585 82.811C62.7033 82.811 61.8583 83.1813 61.2194 83.9205C60.5819 84.6598 60.2632 85.5739 60.2632 86.6617C60.2632 87.6885 60.5928 88.5715 61.2547 89.3121C61.9139 90.0526 62.7426 90.4243 63.7368 90.4243C64.7609 90.4243 65.5991 90.0608 66.2515 89.3365C66.9053 88.6122 67.2322 87.7197 67.2322 86.6631C67.2335 85.5604 66.9215 84.6421 66.2976 83.9097ZM64.9385 87.9313C64.6415 88.3382 64.2414 88.543 63.7368 88.543C63.2621 88.543 62.8755 88.3382 62.5785 87.9313C62.3099 87.5678 62.1784 87.1392 62.1784 86.6387C62.1784 86.1111 62.3031 85.6648 62.5568 85.304C62.8376 84.8795 63.2309 84.6679 63.7368 84.6679C64.24 84.6679 64.6415 84.8659 64.9385 85.2579C65.1922 85.6214 65.317 86.0649 65.317 86.5953C65.317 87.1392 65.1922 87.5841 64.9385 87.9313Z" fill="white"/>
<path d="M57.9587 80.0372C58.6043 79.3075 58.9285 78.4218 58.9285 77.3842C58.9285 76.3154 58.6246 75.4188 58.0156 74.6959C57.3619 73.9268 56.5155 73.543 55.4765 73.543C54.4362 73.543 53.5926 73.916 52.9374 74.662C52.285 75.4066 51.9568 76.314 51.9568 77.3828C51.9568 78.4204 52.2877 79.3061 52.9483 80.0358C53.6102 80.7683 54.4457 81.1331 55.4548 81.1331C56.4789 81.1345 57.313 80.7696 57.9587 80.0372ZM54.3182 78.6903C54.0361 78.3011 53.8964 77.8575 53.8964 77.3625C53.8964 76.805 54.0212 76.356 54.2735 76.0115C54.5556 75.606 54.9571 75.4025 55.4765 75.4025C55.9797 75.4025 56.3758 75.6128 56.6566 76.0332C56.9089 76.3927 57.035 76.8375 57.035 77.3625C57.035 77.9023 56.9075 78.3458 56.6566 78.6903C56.3595 79.081 55.9594 79.2763 55.4548 79.2763C54.9774 79.2763 54.6003 79.081 54.3182 78.6903Z" fill="white"/>
<path d="M64.0475 75.1731C64.2265 74.7974 64.316 74.495 64.316 74.2685C64.316 73.6649 63.9444 73.3638 63.2038 73.3638C62.744 73.3638 62.3575 73.6879 62.0455 74.3376L55.2311 88.5428C55.0087 89.0107 54.8975 89.3579 54.8975 89.5845C54.8975 89.872 54.9938 90.1094 55.185 90.2979C55.379 90.4864 55.6163 90.5814 55.8985 90.5814C56.4017 90.5814 56.8032 90.2721 57.1002 89.6523C58.1175 87.5187 58.8838 85.9223 59.3979 84.8616C59.817 83.9881 60.1222 83.3316 60.3161 82.8935L64.0475 75.1731Z" fill="white"/>
<path d="M58.2094 107.783C57.9896 107.876 57.8865 108.13 57.9801 108.351C58.0737 108.571 58.3274 108.674 58.5484 108.58C58.7682 108.487 58.8713 108.233 58.7777 108.012C58.6841 107.792 58.4291 107.689 58.2094 107.783Z" fill="#EE9849"/>
<path d="M61.3344 104.203C60.918 104.381 60.7227 104.863 60.9004 105.279C61.0781 105.697 61.5596 105.891 61.976 105.713C62.3924 105.535 62.5877 105.054 62.41 104.637C62.2323 104.221 61.7508 104.026 61.3344 104.203Z" fill="#EE9849"/>
<path d="M64.9531 98.9717C64.6723 98.3098 63.9073 98.0005 63.2455 98.2827C62.5836 98.5634 62.2743 99.3284 62.5551 99.9903C62.8358 100.652 63.6008 100.961 64.2627 100.679C64.9246 100.399 65.2339 99.6336 64.9531 98.9717Z" fill="#EE9849"/>
<path d="M458.168 59.6782H434.665C428.483 59.6782 423.424 64.7374 423.424 70.9197V90.2804C423.424 96.4641 428.483 101.522 434.665 101.522H458.168C464.351 101.522 469.41 96.4627 469.41 90.2804V70.9197C469.411 64.7374 464.352 59.6782 458.168 59.6782Z" fill="#A6D9F1"/>
<path d="M444.278 122.316C443.918 122.468 443.751 122.883 443.903 123.243C444.055 123.602 444.47 123.769 444.83 123.617C445.189 123.465 445.356 123.05 445.204 122.691C445.051 122.331 444.637 122.163 444.278 122.316Z" fill="#A6D9F1"/>
<path d="M449.374 116.477C448.693 116.766 448.377 117.551 448.666 118.232C448.954 118.913 449.74 119.229 450.421 118.94C451.102 118.651 451.419 117.866 451.13 117.185C450.84 116.504 450.054 116.188 449.374 116.477Z" fill="#A6D9F1"/>
<path d="M455.276 107.943C454.818 106.863 453.57 106.359 452.49 106.819C451.411 107.277 450.906 108.525 451.366 109.605C451.824 110.684 453.072 111.189 454.152 110.729C455.232 110.271 455.735 109.023 455.276 107.943Z" fill="#A6D9F1"/>
<path d="M463.395 74.2457L432.359 68.2478C431.769 68.1339 431.194 68.5232 431.08 69.1132L427.788 86.1477C427.674 86.7377 428.064 87.3128 428.654 87.4267L459.69 93.4245C460.28 93.5385 460.855 93.1492 460.969 92.5592L464.261 75.5247C464.375 74.9347 463.985 74.3596 463.395 74.2457Z" fill="#E69D43"/>
<path d="M430.749 70.9059L430.015 74.7012L463.195 81.1154L463.929 77.3202L430.749 70.9059Z" fill="#D86713"/>
<path opacity="0.4" d="M432.312 76.2457L431.735 79.23L452.036 83.1546L452.613 80.1703L432.312 76.2457Z" fill="#D86713"/>
<path d="M434.591 82.236L432.069 81.7491C431.622 81.6623 431.189 81.9553 431.102 82.4029L430.682 84.5785C430.595 85.0261 430.888 85.4588 431.336 85.5456L433.857 86.0325C434.305 86.1193 434.737 85.8263 434.824 85.3787L435.245 83.2031C435.331 82.7542 435.038 82.3215 434.591 82.236Z" fill="#D86713"/>
<path opacity="0.2" d="M459.237 86.4273L439.294 82.5738C439.121 82.5399 438.954 82.6539 438.92 82.8275L438.86 83.134C438.827 83.3076 438.94 83.4745 439.114 83.5084L459.057 87.3632C459.23 87.3971 459.397 87.2831 459.431 87.1095L459.491 86.803C459.523 86.628 459.411 86.4612 459.237 86.4273Z" fill="#D86713"/>
<path opacity="0.2" d="M458.898 88.2012L438.947 84.345C438.776 84.3125 438.611 84.4237 438.577 84.5946L438.52 84.8876C438.487 85.0585 438.598 85.2253 438.769 85.2579L458.72 89.1126C458.891 89.1452 459.056 89.034 459.09 88.8631L459.147 88.5701C459.181 88.3992 459.07 88.2337 458.898 88.2012Z" fill="#D86713"/>
<path opacity="0.2" d="M458.571 89.837L438.641 85.9849C438.464 85.951 438.293 86.0663 438.258 86.2426L438.194 86.5736C438.16 86.7499 438.276 86.9208 438.452 86.9561L458.382 90.8081C458.559 90.8421 458.73 90.7268 458.765 90.5504L458.829 90.2195C458.864 90.0432 458.749 89.8723 458.571 89.837Z" fill="#D86713"/>
<path d="M14.6555 162.526H30.6605L32.7087 182.408H19.3797L14.6555 162.526Z" fill="#3B76CA"/>
<path d="M25.098 164.676C25.0966 164.676 25.0953 164.676 25.0953 164.676C24.9502 164.675 24.8349 164.61 24.8362 164.53C24.8918 162.149 24.2937 160.614 23.0621 159.967C22.563 159.705 21.9716 159.591 21.2486 159.61C18.6254 159.692 17.9012 163.192 17.8442 164.535C17.8401 164.614 17.7031 164.684 17.5743 164.675C17.4305 164.672 17.3152 164.607 17.3179 164.527C17.3274 164.32 17.5783 159.434 21.2188 159.323C22.072 159.288 22.822 159.442 23.4242 159.758C24.7847 160.473 25.4181 162.034 25.3611 164.533C25.3584 164.613 25.2418 164.676 25.098 164.676Z" fill="#466AA5"/>
<path d="M12.4812 162.526L9.35205 182.408H25.646L27.3089 162.526H12.4812Z" fill="#699DEE"/>
<path d="M23.5558 164.676C23.5544 164.676 23.553 164.676 23.553 164.676C23.4079 164.675 23.2926 164.61 23.294 164.53C23.3496 162.149 22.7514 160.614 21.5199 159.967C21.0207 159.705 20.4307 159.591 19.7064 159.61C17.0819 159.692 16.3589 163.192 16.3019 164.535C16.2992 164.614 16.1907 164.684 16.032 164.675C15.8883 164.672 15.773 164.607 15.7757 164.527C15.7852 164.32 16.0347 159.434 19.6766 159.323C20.5311 159.288 21.2798 159.442 21.882 159.758C23.2424 160.473 23.8759 162.034 23.8189 164.533C23.8162 164.613 23.6995 164.676 23.5558 164.676Z" fill="#466AA5"/>
<path d="M69.0007 143.232H83.2059L85.0248 156.838H73.1946L69.0007 143.232Z" fill="#D86713"/>
<path d="M78.27 144.722C78.2686 144.722 78.2673 144.722 78.2673 144.722C78.1506 144.72 78.057 144.624 78.0597 144.508C78.1059 141.524 77.6393 139.535 76.6749 138.599C76.1934 138.131 75.5952 137.92 74.8506 137.955C72.0267 138.085 71.8124 144.452 71.8096 144.516C71.8069 144.632 71.7079 144.723 71.5926 144.72C71.476 144.716 71.3838 144.62 71.3878 144.503C71.396 144.225 71.6184 137.68 74.8316 137.532C75.6875 137.492 76.4077 137.749 76.9692 138.294C78.0353 139.329 78.5304 141.362 78.4829 144.512C78.4802 144.63 78.3853 144.722 78.27 144.722Z" fill="#D86713"/>
<path d="M67.072 143.232L64.2942 156.838H78.7571L80.2314 143.232H67.072Z" fill="#E69D43"/>
<path d="M70.2296 144.722C70.2268 144.722 70.2255 144.722 70.2228 144.722C70.1061 144.719 70.0139 144.622 70.018 144.505C70.0261 144.227 70.2485 137.681 73.4617 137.533C74.3176 137.494 75.0378 137.75 75.5994 138.296C76.6655 139.33 77.1605 141.364 77.1131 144.514C77.1117 144.63 77.0167 144.722 76.9015 144.722C76.9001 144.722 76.8987 144.722 76.8987 144.722C76.7821 144.721 76.6885 144.624 76.6912 144.508C76.7373 141.522 76.2708 139.535 75.3064 138.599C74.8249 138.131 74.2267 137.92 73.4821 137.955C72.0335 138.022 71.2848 139.774 70.9104 141.232C70.4927 142.864 70.4411 144.5 70.4411 144.516C70.4371 144.631 70.3435 144.722 70.2296 144.722Z" fill="#D86713"/>
<path d="M81.7531 143.75L80.5745 156.833H83.8446L81.7531 143.75Z" fill="#C95C12"/>
<path d="M55.566 138.119C55.566 138.119 57.1896 137.109 57.8935 137.262C58.5975 137.415 60.5276 137.966 60.5886 138.762C60.6497 139.558 57.8325 140.814 55.7505 140.109C53.6671 139.405 55.566 138.119 55.566 138.119Z" fill="#E49963"/>
<path d="M46.96 180.48C46.9613 180.836 47.1363 181.082 47.4347 181.246C47.4361 181.247 47.4374 181.247 47.4388 181.247C47.9908 181.551 48.8724 181.318 49.9263 181.272C50.062 181.266 50.2708 181.527 50.3793 181.527C50.4078 181.527 50.4363 181.527 50.4634 181.528C50.4851 181.528 50.5082 181.529 50.5285 181.529C51.5716 181.555 51.4617 181.867 53.4447 182.038C55.7058 182.231 56.5386 181.539 56.6715 181.224C56.7841 180.957 55.8129 180.653 54.7292 180.307C54.6763 180.291 54.6247 180.273 54.5705 180.257C54.4267 180.211 54.2816 180.164 54.1365 180.116C52.8452 179.687 51.5757 179.177 51.2583 177.871C50.9219 176.486 51.9324 172.619 51.9324 172.619L48.3502 172.233C48.3502 172.233 48.0044 176.275 47.7792 177.535C47.6585 178.208 47.3533 178.742 47.1743 179.319C47.1621 179.359 47.1499 179.4 47.139 179.439C47.0509 179.776 46.9586 180.123 46.96 180.48Z" fill="#D38957"/>
<path d="M46.96 180.48C46.9613 180.836 47.1363 181.082 47.4347 181.246C47.4361 181.247 47.4374 181.247 47.4388 181.247C48.239 181.763 49.6605 181.047 51.9744 182.114C52.0734 182.16 52.8506 182.106 53.3905 182.099C54.0931 182.09 55.1049 182.152 55.3423 182.114C56.4355 181.938 56.5969 181.399 56.6715 181.223C56.7841 180.956 55.8129 180.652 54.7292 180.306C54.4254 180.424 52.9754 180.927 51.261 180.602C49.7527 180.318 48.2539 179.567 47.177 179.316C47.1648 179.357 47.1526 179.397 47.1417 179.437C47.0509 179.776 46.9586 180.123 46.96 180.48Z" fill="#2F5791"/>
<path d="M47.3208 181.101L47.8498 182.089H48.9973V181.364L47.3208 181.101Z" fill="#2F5791"/>
<path d="M28.4483 146.022L40.0465 144.917C40.0465 144.917 57.7972 144.997 59.4506 147.341C59.4506 147.341 62.6204 149.538 59.0369 158.618C55.4547 167.698 51.2473 176.772 51.2473 176.772C51.2473 176.772 50.1758 177.065 48.7055 176.951C48.125 176.907 47.3424 176.707 47.3424 176.707C47.3424 176.707 48.1508 163.157 49.9425 157.885C51.7343 152.613 52.2849 153.638 49.1151 153.931C45.9453 154.224 35.7496 156.568 31.0647 155.982C26.3812 155.396 28.4483 146.022 28.4483 146.022Z" fill="#B74B42"/>
<path d="M92.1118 180.48C92.1104 180.836 91.9354 181.082 91.637 181.246C91.6357 181.247 91.6343 181.247 91.633 181.247C91.0809 181.551 90.1112 181.582 89.0573 181.536C88.9216 181.531 88.8009 181.527 88.6924 181.527C88.6639 181.527 88.6354 181.527 88.6083 181.528C88.5866 181.528 88.5635 181.529 88.5432 181.529C87.5002 181.555 87.61 181.867 85.627 182.038C83.366 182.231 82.5332 181.539 82.4003 181.224C82.2877 180.957 83.2588 180.653 84.3426 180.307C84.3955 180.291 84.447 180.273 84.5013 180.257C84.645 180.211 84.7902 180.164 84.9353 180.116C86.2265 179.687 87.4961 179.177 87.8135 177.871C88.1499 176.486 87.1394 172.619 87.1394 172.619L90.7215 172.233C90.7215 172.233 91.0674 176.275 91.2925 177.535C91.4133 178.208 91.7184 178.742 91.8975 179.319C91.9097 179.359 91.9219 179.4 91.9327 179.439C92.0209 179.776 92.1118 180.123 92.1118 180.48Z" fill="#E49963"/>
<path d="M92.1118 180.48C92.1104 180.837 91.9354 181.082 91.637 181.246C91.6357 181.247 91.6343 181.247 91.633 181.247C91.0457 181.519 90.0922 181.559 89.0586 181.53C88.923 181.526 88.8023 181.526 88.6924 181.527C88.6639 181.527 88.6354 181.527 88.6083 181.528C88.5866 181.528 88.5635 181.53 88.5432 181.53C87.5002 181.555 87.61 181.867 85.627 182.038C83.366 182.231 82.5332 181.539 82.4003 181.224C82.2877 180.957 83.2588 180.653 84.3426 180.308C84.6464 180.426 86.0963 180.929 87.8108 180.603C89.319 180.32 90.8178 179.568 91.8948 179.317C91.907 179.358 91.9192 179.399 91.93 179.438C92.0209 179.776 92.1118 180.123 92.1118 180.48Z" fill="#C65447"/>
<path d="M44.7246 180.48C44.726 180.836 44.901 181.082 45.1994 181.246C45.2007 181.247 45.2021 181.247 45.2034 181.247C45.7555 181.551 46.6371 181.318 47.691 181.272C47.8266 181.266 48.0355 181.527 48.144 181.527C48.1725 181.527 48.201 181.527 48.2281 181.528C48.2498 181.528 48.2729 181.529 48.2932 181.529C49.3362 181.555 49.2264 181.867 51.2094 182.038C53.4704 182.231 54.3032 181.539 54.4362 181.224C54.5487 180.957 53.5776 180.653 52.4939 180.307C52.441 180.291 52.3894 180.273 52.3365 180.257C52.1927 180.211 52.0476 180.164 51.9025 180.116C50.6112 179.687 49.3417 179.177 49.0243 177.871C48.6879 176.486 49.6984 172.619 49.6984 172.619L46.1163 172.233C46.1163 172.233 45.7704 176.275 45.5452 177.535C45.4245 178.208 45.1193 178.742 44.9403 179.319C44.9281 179.359 44.9159 179.4 44.905 179.439C44.8155 179.776 44.7233 180.123 44.7246 180.48Z" fill="#E49963"/>
<path d="M68.8638 175.907C68.6644 176.903 67.247 176.736 65.6614 176.349C64.0772 175.962 64.4529 176.423 62.1987 176.173C59.943 175.924 59.2608 175.083 59.1916 174.748C59.1306 174.451 60.2441 174.345 61.4391 174.208C61.5897 174.192 61.7402 174.173 61.8908 174.154C63.2403 173.984 64.2291 173.113 65.4539 172.398C66.615 171.722 68.347 168.961 68.347 168.961L71.4395 169.207C71.4395 169.207 69.816 171.671 69.1893 172.744C68.8204 173.375 68.8394 174.208 68.8855 174.852C68.9113 175.199 68.9343 175.556 68.8638 175.907Z" fill="#E49963"/>
<path d="M65.6614 176.348C64.0772 175.96 64.4529 176.422 62.1987 176.172C59.943 175.922 59.2608 175.081 59.1916 174.746C59.1306 174.449 60.2441 174.344 61.4391 174.207L61.4499 174.23C61.4499 174.23 62.8022 175.189 64.6794 175.233C66.2094 175.27 67.8303 174.832 68.8869 174.849C68.9113 175.199 68.933 175.558 68.8624 175.907C68.6644 176.902 67.2457 176.736 65.6614 176.348Z" fill="#C65447"/>
<path d="M75.7445 130.482C75.7445 130.482 75.008 128.676 74.1969 128.603C73.3858 128.53 70.8074 128.124 70.6229 128.493C70.4384 128.862 70.6229 130.189 71.1749 130.667C71.727 131.146 75.1545 131.921 75.1545 131.921L75.7445 130.482Z" fill="#FFB27D"/>
<path d="M80.7156 156.13L87.3807 174.068C87.3807 174.068 88.4048 174.167 89.3868 173.885C90.2901 173.625 91.325 172.941 91.325 172.941C91.325 172.941 89.6716 155.717 86.6401 152.135C83.61 148.552 80.7156 156.13 80.7156 156.13Z" fill="#365DA4"/>
<path d="M107.079 148.874C107.079 148.874 87.9259 142.397 83.6548 143.775C79.3836 145.153 66.5579 170.669 66.5579 170.669C66.5579 170.669 66.8468 171.054 67.6375 171.35C68.3727 171.625 70.1509 171.608 70.1509 171.608C70.1509 171.608 81.7247 161.687 83.1027 158.793C84.4808 155.9 85.0315 153.144 86.4095 153.419C87.7876 153.694 104.185 160.171 107.905 156.312C111.626 152.453 110.653 147.442 110.653 147.442L107.079 148.874Z" fill="#466AA5"/>
<path d="M95.3752 118.746C95.0701 118.114 94.7269 116.994 94.5601 114.993C94.5858 115.191 94.9304 117.714 95.9002 119.141C99.8838 121.756 107.517 130.488 107.367 132.143C107.367 132.143 110.056 127.582 110.103 127.554C110.103 127.554 115.063 121.246 109.184 117.633C106.196 115.796 106.211 113.439 106.336 111.392C106.462 109.344 105.521 100.53 99.5352 102.838C99.5352 102.838 98.5749 102.41 98.1449 102.474C98.1449 102.474 98.4962 102.542 98.6753 102.726C97.9808 102.686 96.9893 102.737 96.1619 103.208C93.966 104.454 92.002 115.642 95.3752 118.746Z" fill="#B74B42"/>
<path d="M96.1359 119.271C96.1156 119.281 98.0592 120.288 99.5214 119.89C100.897 119.515 101.795 117.732 101.776 117.727C101.194 117.612 101.026 116.812 101.038 113.374L100.775 113.425L96.3488 114.301C96.3488 114.301 96.4492 115.694 96.4519 117.006C96.4546 118.109 96.3882 119.153 96.1359 119.271Z" fill="#FFB27D"/>
<path d="M96.3489 114.303C96.3489 114.303 96.4493 115.696 96.452 117.007C98.9287 116.938 100.238 114.679 100.773 113.427L96.3489 114.303Z" fill="#E58D5C"/>
<path d="M101.23 112.944C101.23 112.944 102.528 110.893 102.84 109.139C103.063 107.887 102.425 103.247 97.7622 103.916C97.7622 103.916 96.4072 104.049 95.135 104.908C94.1231 105.592 92.661 107.068 94.2954 111.118L94.7199 112.485L101.23 112.944Z" fill="#B74B42"/>
<path d="M95.5215 115.545C95.5215 115.545 101.381 115.642 101.385 111.992C101.389 108.342 102.149 105.896 98.4065 105.68C94.6657 105.465 93.9373 106.856 93.6389 108.074C93.3419 109.291 93.997 115.426 95.5215 115.545Z" fill="#FFB27D"/>
<path d="M95.7385 105.591C95.7385 105.591 97.3431 109.873 99.8049 110.506C102.267 111.14 103.336 110.479 103.336 110.479C103.336 110.479 101.447 108.979 101.055 106.36C101.054 106.36 96.9484 103.552 95.7385 105.591Z" fill="#B74B42"/>
<path d="M96.136 105.938C96.136 105.938 94.9383 106.894 94.6453 107.824C94.3537 108.753 94.2222 110.666 93.6647 110.601C93.6647 110.601 92.4562 107.691 93.8139 106.044C95.2544 104.298 96.136 105.938 96.136 105.938Z" fill="#B74B42"/>
<path d="M109.184 135.035C109.762 132.611 107.797 127.909 105.744 124.016C103.882 120.488 101.949 117.625 101.776 117.728C96.8643 120.643 96.4208 118.219 96.4208 118.219C96.4208 118.219 91.9597 118.812 90.697 120.986C88.95 123.993 87.047 133.015 85.178 132.882C84.3194 132.821 75.6848 129.576 75.6848 129.576C75.6848 129.576 74.2457 130.924 74.5224 132.577C74.5224 132.577 78.7854 135.432 82.392 137.254C84.299 138.217 86.023 138.892 86.8327 138.701C88.4753 138.315 91.0415 134.507 92.4277 132.265C92.4304 132.26 92.4331 132.256 92.4372 132.25C94.2072 142.266 91.8011 144.547 93.0191 145.604C94.3049 146.719 96.1428 145.073 100.185 146.824C102.836 147.975 106.515 149.638 108.992 149.926C110.291 150.078 111.259 149.853 111.575 148.976C112.491 146.426 108.081 139.655 109.184 135.035Z" fill="#699DEE"/>
<path d="M96.8237 113.332C96.8237 113.332 96.7151 113.796 95.5609 113.724C95.5609 113.724 94.5924 113.664 94.6223 113.154C94.6223 113.155 95.5609 112.792 96.8237 113.332Z" fill="white"/>
<path d="M111.573 148.976C111.257 149.853 110.287 150.078 108.989 149.926C107.274 149.179 99.8701 146.31 99.9528 144.367C100.076 141.488 101.377 141.396 100.459 137.844C99.7209 134.991 106.564 129.688 107.654 128.535C109.706 132.428 109.763 132.612 109.186 135.036C108.082 139.655 112.491 146.426 111.573 148.976Z" fill="#3B76CA"/>
<path d="M92.4251 132.265C91.0389 134.507 88.4727 138.314 86.8301 138.701C86.0204 138.892 84.2964 138.218 82.3894 137.254C83.781 137.613 85.1333 137.602 86.4476 137.476C87.8718 137.338 88.2855 135.594 90.5357 132.974C91.9951 131.278 92.3532 131.705 92.4251 132.265Z" fill="#3B76CA"/>
<path d="M98.7903 140.34L97.0881 136.033C97.0338 135.895 96.8629 135.796 96.711 135.814L94.2953 136.092C94.2126 136.101 94.1529 136.145 94.1231 136.203H94.1204L93.8884 136.508L96.0355 141.229L98.3563 140.962L98.5055 140.889L98.774 140.532V140.531C98.8093 140.479 98.8188 140.412 98.7903 140.34Z" fill="#CC620A"/>
<path d="M98.534 140.68L96.8318 136.374C96.7775 136.235 96.6066 136.136 96.4547 136.154L94.039 136.432C93.8858 136.45 93.8057 136.577 93.86 136.715L95.5622 141.022C95.6165 141.16 95.7874 141.259 95.9393 141.242L98.355 140.964C98.5082 140.946 98.5882 140.817 98.534 140.68Z" fill="#EE9849"/>
<path d="M94.9815 136.721C94.9531 136.644 94.8608 136.585 94.7754 136.594L94.2057 136.642C94.1203 136.649 94.0742 136.72 94.1027 136.797C94.1311 136.874 94.2234 136.933 94.3088 136.924L94.8785 136.876C94.9626 136.869 95.0087 136.798 94.9815 136.721Z" fill="#CC620A"/>
<path d="M99.2856 137.775C99.2856 137.775 98.0459 136.81 96.874 137.04C95.7021 137.269 95.1283 138.073 95.1744 138.441C95.2206 138.808 95.8404 139.842 96.7356 139.934C97.6308 140.026 100.181 139.383 100.181 139.383L99.2856 137.775Z" fill="#FFB27D"/>
<path d="M101.774 117.728C101.774 117.728 106.55 118.022 108.204 120.328C110.531 123.573 114.573 136.825 113.47 139.857L98.9409 139.795C98.9409 139.795 98.5883 138.15 99.0793 137.354C99.5689 136.558 107.531 135.272 107.898 134.904C108.266 134.537 103.306 127.739 103.306 126.636C103.304 125.533 101.774 117.728 101.774 117.728Z" fill="#699DEE"/>
<path d="M26.8275 146.846L37.7041 145.928C37.7041 145.928 55.4548 146.005 57.1082 148.274C57.1082 148.274 59.7911 149.955 56.2076 158.748C52.6254 167.543 48.9958 177.22 48.9958 177.22C48.9958 177.22 48.1915 177.33 47.2203 177.251C45.9969 177.152 45.59 176.755 45.59 176.755C45.59 176.755 45.8423 164.721 47.634 159.615C49.4258 154.508 50.1148 155.029 46.945 155.312C43.7752 155.596 34.8653 157.819 28.7237 156.643C24.0863 155.756 26.8275 146.846 26.8275 146.846Z" fill="#C65447"/>
<path d="M38.3512 102.837C38.3512 102.837 34.7134 100.975 33.0288 105.752C33.0288 105.752 34.6524 103.731 35.5096 103.823C36.3655 103.914 38.3512 102.837 38.3512 102.837Z" fill="#163560"/>
<path d="M44.7246 180.48C44.726 180.836 44.901 181.082 45.1993 181.246C45.2007 181.247 45.2021 181.247 45.2034 181.247C46.0037 181.763 47.4251 181.047 49.7391 182.114C49.8381 182.16 50.6153 182.106 51.1551 182.099C51.8577 182.09 52.8695 182.152 53.1069 182.114C54.2001 181.938 54.3615 181.399 54.4375 181.223C54.5501 180.956 53.5789 180.652 52.4952 180.306C52.1914 180.424 50.7414 180.927 49.027 180.602C47.5187 180.318 46.0199 179.567 44.943 179.316C44.9308 179.357 44.9186 179.397 44.9077 179.437C44.8155 179.776 44.7233 180.123 44.7246 180.48Z" fill="#365DA4"/>
<path d="M45.0854 181.101L45.6131 182.089H46.7619V181.364L45.0854 181.101Z" fill="#365DA4"/>
<path d="M56.3582 140.219C56.3405 140.319 56.312 140.417 56.2714 140.508C55.8115 141.518 46.2587 142.804 45.0638 142.161C44.5293 141.874 43.7535 137.056 43.0591 131.818C42.2005 125.341 41.4653 118.22 41.4653 118.22C41.4653 118.22 45.4313 119.471 45.8898 121.584C46.3496 123.697 46.4405 136.741 47.6354 137.384C48.829 138.027 53.8828 137.476 55.6271 137.752C55.6284 137.752 56.5413 139.198 56.3582 140.219Z" fill="#EE9849"/>
<path d="M41.7243 103.208C40.9824 102.611 39.9041 102.686 39.211 102.727C39.39 102.542 39.7413 102.474 39.7413 102.474C39.3113 102.411 38.351 102.838 38.351 102.838C32.3654 100.532 31.6506 111.387 36.7953 112.627C38.7891 113.108 49.3335 109.32 41.7243 103.208Z" fill="#163560"/>
<path d="M41.7501 119.271C41.7705 119.281 39.8268 120.288 38.3647 119.89C36.9893 119.515 36.0914 117.732 36.1104 117.727C36.6923 117.612 36.8605 116.812 36.8483 113.374L37.1114 113.425L41.5372 114.301C41.5372 114.301 41.4368 115.694 41.4341 117.006C41.43 118.109 41.4978 119.153 41.7501 119.271Z" fill="#E49963"/>
<path d="M41.5372 114.303C41.5372 114.303 41.4369 115.696 41.4341 117.007C38.9574 116.938 37.6486 114.679 37.1128 113.427L41.5372 114.303Z" fill="#D68D5D"/>
<path d="M36.6543 112.944C36.6543 112.944 35.3563 110.893 35.0443 109.139C34.8219 107.887 35.4594 103.247 40.1225 103.916C40.1225 103.916 41.4775 104.049 42.7498 104.908C43.7617 105.592 45.2238 107.068 43.5894 111.118L43.1649 112.485L36.6543 112.944Z" fill="#163560"/>
<path d="M42.3645 115.545C42.3645 115.545 36.5051 115.642 36.501 111.992C36.4969 108.342 35.7374 105.896 39.4796 105.68C43.2204 105.465 43.9488 106.856 44.2472 108.074C44.5429 109.291 43.8877 115.426 42.3645 115.545Z" fill="#E49963"/>
<path d="M42.1475 105.591C42.1475 105.591 40.5429 109.873 38.0811 110.506C35.6193 111.14 34.5505 110.479 34.5505 110.479C34.5505 110.479 36.4386 108.979 36.8306 106.36C36.8306 106.36 40.9376 103.552 42.1475 105.591Z" fill="#163560"/>
<path d="M43.797 123.626C43.6939 123.21 44.5714 122.898 44.7871 123.268C45.19 123.963 45.27 124.838 45.43 125.535C45.8898 127.525 45.43 130.251 45.43 130.251L43.797 123.626Z" fill="#E58638"/>
<path d="M41.7502 105.938C41.7502 105.938 42.9479 106.894 43.2409 107.824C43.5325 108.753 43.6641 110.666 44.2215 110.601C44.2215 110.601 45.43 107.691 44.0723 106.044C42.6305 104.298 41.7502 105.938 41.7502 105.938Z" fill="#163560"/>
<path d="M41.061 113.332C41.061 113.332 41.1695 113.796 42.3238 113.724C42.3238 113.724 43.2923 113.664 43.2624 113.154C43.2624 113.155 42.3238 112.792 41.061 113.332Z" fill="white"/>
<path d="M56.3581 140.219C56.3404 140.319 56.312 140.417 56.2713 140.508C55.8115 141.518 46.2586 142.804 45.0637 142.161C44.5293 141.874 43.5934 135.884 44.2661 130.525C44.9877 133.589 45.2088 139.874 46.9002 140.17C48.8181 140.506 53.8515 139.866 56.3581 140.219Z" fill="#E58638"/>
<path d="M45.7881 130.495C43.4131 141.943 45.4002 143.7 44.1673 144.826C44.1605 144.832 43.0727 145.302 43.0646 145.309C41.7787 146.424 41.7462 145.073 37.7042 146.826C35.7782 147.661 33.311 148.767 31.1544 149.42C30.3419 149.666 29.5756 149.849 28.8974 149.928C27.598 150.079 26.6295 149.854 26.3135 148.977C25.3953 146.428 29.8048 139.657 28.7021 135.037C28.6926 134.998 28.6831 134.957 28.6749 134.918C28.5949 134.514 28.58 134.05 28.622 133.541C28.8282 130.964 30.4558 127.218 32.1418 124.018C34.0041 120.49 35.9369 117.627 36.1105 117.73C41.0219 120.645 41.4654 118.221 41.4654 118.221C41.4654 118.221 46.5992 126.59 45.7881 130.495Z" fill="#EE9849"/>
<path d="M43.4552 145.147C43.4484 145.152 43.462 145.141 43.4552 145.147C42.1694 146.262 41.7462 145.072 37.7042 146.823C35.7782 147.659 33.311 148.764 31.1544 149.418C30.1751 149.743 29.3952 149.905 28.8974 149.925C27.598 150.077 26.6295 149.852 26.3135 148.974C25.3953 146.426 29.8048 139.655 28.7021 135.035C28.6926 134.996 30.2944 129.455 31.9261 126.36C31.9804 124.416 41.2131 126.177 39.2749 137.567C38.6808 141.06 42.9452 142.437 43.4552 145.147Z" fill="#E58638"/>
<path d="M43.0564 145.728C43.0564 145.728 44.863 145.3 45.6904 145.636C46.5178 145.973 48.1712 146.83 48.0179 147.29C47.8646 147.749 45.9047 147.993 45.0787 147.535C44.2513 147.075 43.6396 147.657 42.6291 147.321C41.6173 146.984 43.0564 145.728 43.0564 145.728Z" fill="#E49963"/>
<path d="M36.1104 117.728C36.1104 117.728 29.4466 117.817 28.2516 121.032C27.058 124.248 27.4242 135.546 29.1699 138.945C30.9155 142.344 40.8373 146.937 41.9386 147.121C43.0413 147.304 43.7304 145.605 43.6843 145.422C43.6381 145.239 33.2579 136.832 33.3041 135.96C33.3502 135.088 36.1104 117.728 36.1104 117.728Z" fill="#EE9849"/>
<path d="M59.9958 134.697H59.9918C59.9348 134.628 59.8426 134.587 59.7286 134.598L56.4191 134.932C56.2102 134.953 56.0109 135.134 55.9783 135.334L54.9624 141.586C54.9448 141.69 54.9787 141.778 55.0424 141.838V141.841L55.5049 142.238L55.726 142.293L58.9053 141.971L60.396 135.033L59.9958 134.697Z" fill="#992B25"/>
<path d="M60.1707 134.979L56.8612 135.313C56.6523 135.334 56.4529 135.515 56.4204 135.715L55.4045 141.967C55.3719 142.168 55.517 142.314 55.7259 142.294L59.0354 141.96C59.2457 141.938 59.4437 141.757 59.4763 141.556L60.4922 135.304C60.5247 135.105 60.3796 134.959 60.1707 134.979Z" fill="#C65447"/>
<path d="M60.008 135.308L59.2335 135.409C59.1182 135.424 59.011 135.528 58.9961 135.639C58.9812 135.752 59.0639 135.831 59.1792 135.816L59.9537 135.715C60.069 135.7 60.1762 135.596 60.1911 135.485C60.2074 135.374 60.1246 135.294 60.008 135.308Z" fill="#992B25"/>
<path d="M474.148 181.962C474.148 181.962 482.984 182.719 483.361 181.044C483.412 180.821 484.654 172.454 484.654 172.454L486.179 161.764C486.179 161.764 483.595 161.452 482.587 164.493C481.579 167.534 478.609 172.434 474.202 173.713C469.566 175.058 474.148 181.962 474.148 181.962Z" fill="#163560"/>
<path d="M432.176 138.724L432.965 139.003C432.965 139.003 435.026 135.516 439.24 136.927C439.24 136.927 440.924 137.631 439.925 138.553C438.927 139.474 439.174 138.998 437.796 140.323C436.418 141.648 434.535 142.313 433.238 141.865L431.801 141.359L432.176 138.724Z" fill="#E49963"/>
<path d="M396.668 167.926C396.668 167.926 426.047 145.479 434.405 145.233C442.763 144.988 469.872 182.094 469.872 182.094H459.721C459.721 182.094 441.834 172.573 435.54 163.526C434.907 162.616 433.553 162.658 432.966 163.597C429.713 168.796 421.209 181.544 415.709 182.094C409.805 182.684 396.668 167.926 396.668 167.926Z" fill="#163560"/>
<path d="M399.481 106.844C399.481 106.844 399.296 108.316 399.057 110.131C398.74 112.489 398.315 115.419 398.037 116.333L389.198 118.573L388.548 112.145C388.548 112.145 390.761 107.706 390.748 101.424L399.481 106.844Z" fill="#E49963"/>
<path d="M391.793 120.222L404.353 135.608L408.745 140.989C408.745 140.989 416.612 142.462 420.742 142.821C423.722 143.079 433.237 141.865 433.237 141.865L432.963 139.005C432.963 139.005 427.059 136.494 424.254 135.905C421.392 135.306 414.164 133.674 414.164 133.674C411.431 132.68 401.044 119.253 401.044 119.253L391.793 120.222Z" fill="#4A75CB"/>
<path d="M383.599 175.164L409.287 173.067C409.287 173.067 409.357 172.551 409.477 171.687C409.513 171.42 409.534 171.141 409.542 170.849C409.6 168.283 408.592 164.824 408.158 161.422C407.871 159.178 407.834 156.959 408.522 155.039C409.313 152.826 409.676 148.621 409.837 144.625C410.04 139.622 409.923 134.945 409.926 134.911C410.183 131.724 409.425 128.185 408.156 124.82C405.65 118.184 400.978 114.427 398.782 112.199C398.782 112.199 396.102 112.861 389.133 110.769C388.925 110.707 388.328 111.584 388.062 112.096C388.062 112.096 385.047 115.913 383.808 125.219C382.694 133.549 383.599 175.164 383.599 175.164Z" fill="#739AF0"/>
<path d="M390.025 129.038C390.075 130.206 400.411 163.109 399.145 165.535C393.016 177.277 408.467 171.987 409.306 168.959C409.007 166.936 408.545 157.641 409.274 154.901C409.879 152.63 409.675 148.623 409.835 144.627C409.576 143.169 408.971 141.663 408.153 140.209C404.313 139.608 389.641 119.981 390.025 129.038Z" fill="#4A75CB"/>
<path d="M441.401 135.455L438.215 133.267C438.188 133.248 438.16 133.235 438.13 133.224L438.127 133.223L437.526 132.977L434.595 142.234L437.159 144.309L437.62 144.51H437.621L437.628 144.513V144.512C437.837 144.596 438.101 144.463 438.211 144.19L441.53 136.057C441.625 135.825 441.571 135.572 441.401 135.455Z" fill="#373480"/>
<path d="M440.847 135.229L437.66 133.041C437.443 132.892 437.133 133.029 437.011 133.327L433.838 141.102C433.749 141.32 433.791 141.56 433.94 141.685L436.98 144.229C437.194 144.408 437.528 144.277 437.656 143.964L440.975 135.831C441.07 135.599 441.016 135.345 440.847 135.229Z" fill="#575B9F"/>
<path d="M434.435 140.689L437.429 143.196L440.438 135.82L437.301 133.666L434.435 140.689Z" fill="#E2E7F2"/>
<path d="M435.483 142.032C435.368 141.984 435.242 142.067 435.2 142.215C435.158 142.363 435.218 142.522 435.333 142.568C435.448 142.614 435.574 142.532 435.616 142.385C435.657 142.237 435.597 142.079 435.483 142.032Z" fill="#373480"/>
<path d="M437.437 134.16L434.794 140.494L437.389 142.516L439.984 135.957L437.437 134.16Z" fill="#CED4EA"/>
<path d="M437.533 135.08L435.682 139.516L437.501 140.934L439.318 136.34L437.533 135.08Z" fill="#BCC5DD"/>
<path d="M432.547 143.211L434.162 143.158C434.162 143.158 435.772 139.819 439.459 141.401C439.459 141.401 440.937 142.173 440.122 143.034C439.307 143.896 439.497 143.437 438.374 144.678C437.251 145.919 435.664 146.488 434.53 145.987L433.271 145.422L432.547 143.211Z" fill="#E49963"/>
<path d="M392.413 112.256C392.413 112.256 398.72 114.92 401.995 120.61C404.177 124.402 407.935 130.853 410.201 134.736C411.406 136.803 413.422 138.272 415.759 138.786L423.413 140.47L434.162 143.156C434.162 143.156 434.417 143.612 434.355 144.357C434.266 145.415 433.575 145.626 433.575 145.626C433.575 145.626 423.539 148.042 419.966 148.311C411.164 148.973 406.991 147.818 405.699 147.344C405.41 147.238 405.152 147.083 404.913 146.889C403.565 145.793 398.393 141.461 395.671 137.321C393.022 133.294 385.718 122.827 385.718 122.827L392.413 112.256Z" fill="#739AF0"/>
<path d="M383.598 165.219C383.598 165.219 380.89 182.095 388.656 182.095C396.423 182.095 474.148 182.095 474.148 182.095C474.148 182.095 476.509 180.501 476.675 177.463C476.849 174.242 475.832 173.101 475.832 173.101C475.832 173.101 445.229 172.036 439.014 169.953C407.87 159.517 383.598 165.219 383.598 165.219Z" fill="#1C468A"/>
<path d="M399.482 106.844C399.482 106.844 399.296 108.316 399.057 110.131C390.89 107.749 390.748 101.424 390.748 101.424L399.482 106.844Z" fill="#D68D5D"/>
<path d="M400.766 107.315C400.766 107.315 390.839 107.609 390.751 101.424C390.663 95.2392 389.323 91.1118 395.657 90.6628C401.991 90.2139 403.256 92.5563 403.788 94.6125C404.32 96.6701 403.346 107.079 400.766 107.315Z" fill="#E49963"/>
<path d="M390.75 101.424C390.75 101.424 393.323 93.0215 402.155 93.4596C407.37 93.7187 406.642 87.6734 406.642 87.6734C406.642 87.6734 399.66 86.0674 393.987 87.6354C384.276 90.3196 389.881 100.1 390.75 101.424Z" fill="#1C468A"/>
<path d="M493.61 183.145H0.481507C0.217017 183.145 0 182.928 0 182.663V182.571C0 182.305 0.217017 182.089 0.481507 182.089H493.609C493.875 182.089 494.09 182.306 494.09 182.571V182.663C494.092 182.928 493.875 183.145 493.61 183.145Z" fill="#283250"/>
</g>
<defs>
<clipPath id="clip0_229_6516">
<rect width="496" height="182.788" fill="white" transform="translate(0 0.356445)"/>
</clipPath>
</defs>
</svg>
