<svg width="496" height="284" viewBox="0 0 496 284" fill="none" xmlns="http://www.w3.org/2000/svg">
<g clip-path="url(#clip0_229_4645)">
<g opacity="0.96">
<path d="M18.6272 282.602C18.6272 282.602 -15.6773 230.702 21.6835 169.642C59.0443 108.581 109.222 139.286 106.793 68.2163C104.364 -2.85342 210.495 -9.74643 248.001 10.8617C285.506 31.4697 318.621 19.6646 363.418 21.1022C436.071 23.4341 456.408 95.1218 436.265 130.009C407.685 179.509 525.798 185.328 457.809 282.602H18.6272Z" fill="#EBF3FA"/>
<g opacity="0.3">
<path opacity="0.3" d="M75.4329 170.751C72.0555 158.365 92.0493 151.121 92.0493 151.121C92.0493 151.121 115.269 162.637 119.093 160.992C122.917 159.347 101.162 147.269 101.162 147.269C107.673 142.551 130.226 140.69 130.226 140.69C130.226 140.69 141.917 163.161 145.218 160.626C148.519 158.09 133.852 141.256 133.852 141.256C141.706 139.34 152.514 143.474 152.514 143.474C167.755 151.591 156.543 170.741 156.543 170.741C156.543 170.741 160.763 178.441 170.535 184.38C170.535 184.38 172.531 185.364 175.202 187.459L173.382 188.526C172.947 188.125 172.506 187.75 172.058 187.403C172.056 187.399 172.055 187.397 172.051 187.397C172.045 187.391 172.038 187.388 172.032 187.382C171.743 187.175 171.328 186.878 170.819 186.521C170.819 186.521 170.817 186.521 170.817 186.519C170.817 186.518 170.815 186.519 170.815 186.518C169.62 185.756 168.772 185.171 168.194 184.729C168.192 184.727 168.19 184.727 168.188 184.725C164.516 182.285 159.499 179.24 157.35 179.246C157.35 179.246 157.385 178.844 157.249 178.181C157.281 178.521 157.315 178.874 157.35 179.246C158.153 187.754 143.22 198.013 133.493 201.329C123.764 204.643 126.113 199.973 128.456 193.254C130.799 186.534 141.21 181.835 143.191 178.577C145.171 175.319 140.026 176.243 134.498 180.086C128.971 183.928 129.474 191.415 120.645 197.794C111.815 204.172 94.37 190.765 94.37 190.765C102.002 188.98 111.489 178.624 110.628 176.135C109.767 173.648 92.7551 183.93 89.6913 184.83C86.6219 185.735 78.8103 183.136 75.4329 170.751Z" fill="#AEC3FF"/>
</g>
<path d="M409.845 261.863C422.264 249.802 404.023 227.672 404.023 227.672C404.023 227.672 369.162 225.107 365.852 220.574C362.542 216.041 396.085 216.946 396.085 216.946C391.764 207.001 366.858 189.363 366.858 189.363C366.858 189.363 337.866 207.43 335.773 202.221C333.68 197.012 362.262 187.533 362.262 187.533C354.458 179.918 339.074 177.302 339.074 177.302C315.811 176.268 315.684 206.194 315.684 206.194C315.684 206.194 305.501 212.239 290.081 212.428C290.081 212.428 287.089 212.2 282.55 212.8L283.931 215.29C284.712 215.124 285.481 214.99 286.239 214.894C286.245 214.893 286.248 214.891 286.252 214.893C286.263 214.891 286.274 214.891 286.286 214.889C286.766 214.846 287.449 214.788 288.285 214.723C288.285 214.723 288.287 214.723 288.289 214.723C288.291 214.723 288.291 214.723 288.293 214.723C290.205 214.657 291.59 214.562 292.564 214.446C292.568 214.446 292.57 214.446 292.574 214.444C298.513 214.133 306.425 214.037 308.918 215.52C308.918 215.52 309.153 215.029 309.765 214.353C309.495 214.724 309.214 215.113 308.918 215.52C302.148 224.847 312.443 247.003 321.462 257.528C330.482 268.052 330.961 261.019 332.851 251.611C334.742 242.203 325.879 229.601 325.818 224.461C325.754 219.321 331.094 223.923 334.873 232.177C338.654 240.431 332.931 248.779 338.805 262.242C344.677 275.705 374.132 272.111 374.132 272.111C366.496 264.802 362.589 246.268 365.296 243.969C368.003 241.673 380.697 265.285 383.637 268.433C386.572 271.583 397.425 273.924 409.845 261.863Z" fill="#DFEBFD"/>
<g opacity="0.5">
<path opacity="0.5" d="M146.871 134.092C146.871 134.092 131.005 117.565 113.526 113.745C111.203 113.237 109.527 115.939 110.998 117.808C111.022 117.839 111.048 117.869 111.072 117.901C113.638 121.051 134.363 126.859 146.871 134.092Z" fill="#C5DDFF"/>
</g>
<g opacity="0.5">
<path opacity="0.5" d="M151.925 138.438C151.925 138.438 125.531 122.731 102.12 124.637C100.692 124.753 99.5511 125.961 99.6146 127.393C99.6557 128.324 100.19 129.426 101.792 130.567C106.065 133.608 133.867 133.726 151.925 138.438Z" fill="#C5DDFF"/>
</g>
<g opacity="0.5">
<g opacity="0.5">
<path opacity="0.5" d="M337.847 174.813C337.847 174.813 341.613 151.263 354.301 137.624C355.987 135.811 359.023 137.129 358.873 139.599C358.872 139.641 358.868 139.682 358.864 139.725C358.539 143.938 344.255 161.205 337.847 174.813Z" fill="#AEC3FF"/>
</g>
<g opacity="0.5">
<path opacity="0.5" d="M336.104 181.529C336.104 181.529 349.363 152.434 370.52 140.175C371.81 139.428 373.504 139.785 374.297 141.047C374.814 141.868 375.012 143.126 374.318 145.053C372.467 150.189 348.754 166.783 336.104 181.529Z" fill="#AEC3FF"/>
</g>
</g>
<g opacity="0.2">
<path opacity="0.2" d="M229.355 120.713L238.593 119.699C239.362 119.623 240.111 119.983 240.529 120.633C241.061 121.463 241.631 122.279 242.241 123.077C243.373 124.561 244.584 125.931 245.887 127.169C246.496 127.75 246.696 128.631 246.382 129.406L242.814 138.44C242.424 139.4 242.848 140.507 243.791 140.974L251.737 144.937C252.639 145.384 253.721 145.081 254.269 144.243L259.1 136.717C259.554 135.976 260.454 135.632 261.32 135.866C264.972 136.842 268.777 137.23 272.582 137.019C273.501 136.969 274.354 137.568 274.626 138.444L276.243 143.64C276.559 144.624 277.563 145.236 278.586 145.04L287.233 143.317C287.41 143.283 287.576 143.233 287.733 143.153C288.482 142.798 288.946 141.984 288.844 141.132L288.093 134.23L287.906 132.548C289.346 131.743 290.757 130.819 292.105 129.792C293.92 128.409 295.572 126.88 297.036 125.253C297.596 124.634 298.474 124.413 299.249 124.727L306.523 127.608C307.519 127.994 308.647 127.569 309.116 126.611L312.148 120.536L313.012 118.792C313.486 117.843 313.175 116.678 312.28 116.111L305.994 112.067C305.26 111.606 304.9 110.734 305.113 109.908C305.707 107.427 306.041 104.89 306.093 102.349C306.115 102.129 306.114 101.925 306.114 101.709C306.108 101.636 306.119 101.565 306.129 101.494C306.209 100.68 306.778 100.004 307.562 99.7631L315.992 97.1213C316.089 97.0989 316.182 97.0522 316.266 97.013C317.086 96.6172 317.558 95.6968 317.385 94.7838L315.68 86.1619C315.473 85.122 314.511 84.4125 313.447 84.5227L303.812 85.585C302.996 85.6859 302.213 85.262 301.825 84.5358C300.961 82.9507 299.96 81.4048 298.823 79.913C298.22 79.1233 297.591 78.3653 296.937 77.6409C296.409 77.0491 296.254 76.2108 296.549 75.4752L299.975 66.7917C300.356 65.8376 299.939 64.7398 299.012 64.275L291.146 60.3654C290.197 59.8912 289.042 60.1974 288.455 61.1029L284.63 67.0568C284.116 67.8559 283.138 68.1938 282.246 67.8932C278.749 66.6703 275.084 66.0113 271.385 65.9105C270.512 65.9011 269.735 65.3186 269.473 64.4729L267.095 56.8741C266.776 55.8547 265.738 55.2442 264.69 55.444L256.098 57.1392C255.066 57.3409 254.364 58.3098 254.485 59.3386L254.524 59.7418L255.398 67.7607C255.491 68.6195 255.051 69.4279 254.282 69.8237L254.274 69.8293C252.431 70.7759 250.646 71.8942 248.936 73.1993C248.025 73.8938 247.166 74.6257 246.334 75.3893C245.762 75.927 244.937 76.0838 244.209 75.7982L236.825 72.8725C235.815 72.4693 234.663 72.9155 234.187 73.877L230.29 81.7091C230.18 81.9332 230.121 82.1703 230.089 82.398C230.01 83.1467 230.354 83.9178 231.013 84.3453L236.043 87.5622C236.655 87.9636 237.008 88.6619 236.978 89.3732C236.967 89.5599 236.935 89.7503 236.874 89.937C235.328 94.4309 234.704 99.1806 235.02 103.927C235.085 104.731 234.637 105.482 233.937 105.85C233.836 105.902 233.729 105.945 233.616 105.98L226.788 108.114C225.798 108.422 225.201 109.427 225.395 110.452L225.432 110.652L227.087 119.057C227.307 120.119 228.283 120.829 229.355 120.713ZM288.511 94.655C289.036 95.9768 289.458 97.4014 289.753 98.9248C290.309 101.828 289.708 106.408 288.39 109.059C288.25 109.345 288.104 109.621 287.959 109.897C278.876 126.646 255.198 123.243 251.35 104.306C250.852 101.83 251.177 98.2266 252.069 95.4671C252.286 94.8305 252.517 94.233 252.781 93.7252C253.994 91.3205 255.495 89.3079 257.205 87.6724C266.96 78.356 283.205 81.4608 288.511 94.655Z" fill="#91B5F8"/>
</g>
<path d="M346.241 105.584L351.979 104.955C352.457 104.907 352.922 105.131 353.181 105.534C353.512 106.051 353.866 106.557 354.243 107.052C354.945 107.972 355.698 108.826 356.506 109.595C356.885 109.955 357.009 110.502 356.814 110.984L354.598 116.594C354.355 117.19 354.619 117.877 355.205 118.168L360.139 120.629C360.7 120.907 361.372 120.718 361.712 120.198L364.712 115.524C364.994 115.063 365.552 114.852 366.09 114.996C368.358 115.603 370.72 115.844 373.083 115.713C373.653 115.681 374.183 116.055 374.353 116.598L375.358 119.824C375.554 120.435 376.177 120.815 376.814 120.694L382.183 119.624C382.293 119.604 382.396 119.572 382.493 119.522C382.958 119.301 383.247 118.797 383.184 118.267L382.719 113.98L382.603 112.937C383.498 112.436 384.375 111.863 385.21 111.225C386.336 110.366 387.362 109.416 388.272 108.405C388.621 108.021 389.164 107.883 389.646 108.079L394.162 109.867C394.782 110.108 395.482 109.843 395.773 109.247L397.655 105.476L398.191 104.393C398.486 103.803 398.292 103.081 397.737 102.728L393.833 100.217C393.378 99.9311 393.154 99.3878 393.286 98.8762C393.656 97.3359 393.863 95.7602 393.895 94.1826C393.908 94.0444 393.908 93.9193 393.908 93.7849C393.906 93.7401 393.912 93.6953 393.917 93.6505C393.968 93.1445 394.321 92.7244 394.808 92.5751L400.043 90.934C400.103 90.919 400.161 90.891 400.213 90.8667C400.723 90.6203 401.016 90.049 400.908 89.4814L399.849 84.1268C399.72 83.4808 399.123 83.0402 398.464 83.1093L392.48 83.7684C391.972 83.83 391.487 83.5667 391.246 83.1168C390.708 82.1329 390.088 81.1732 389.381 80.2472C389.007 79.7562 388.615 79.2857 388.21 78.8357C387.881 78.4679 387.786 77.947 387.969 77.4915L390.098 72.0995C390.335 71.5077 390.075 70.8244 389.498 70.5368L384.612 68.1097C384.022 67.8147 383.305 68.0052 382.941 68.5671L380.566 72.2638C380.247 72.7605 379.64 72.9696 379.086 72.7829C376.915 72.023 374.639 71.6141 372.342 71.5525C371.799 71.5469 371.317 71.1847 371.155 70.6601L369.678 65.9421C369.48 65.3092 368.834 64.9302 368.184 65.0534L362.849 66.1064C362.208 66.2315 361.771 66.8327 361.848 67.4731L361.872 67.7233L362.415 72.7026C362.473 73.2365 362.199 73.7388 361.721 73.9834L361.715 73.9871C360.571 74.5752 359.462 75.2697 358.401 76.08C357.836 76.5113 357.303 76.965 356.784 77.4392C356.43 77.7734 355.918 77.8705 355.464 77.6931L350.879 75.8765C350.252 75.6263 349.537 75.9026 349.24 76.5001L346.82 81.3637C346.751 81.5018 346.714 81.6512 346.695 81.7912C346.647 82.2561 346.859 82.734 347.27 83.001L350.394 84.9987C350.775 85.247 350.993 85.6821 350.974 86.1245C350.967 86.2403 350.946 86.3598 350.909 86.4755C349.949 89.2667 349.561 92.2166 349.757 95.1627C349.798 95.6631 349.52 96.128 349.085 96.3576C349.021 96.3894 348.956 96.4174 348.885 96.4379L344.645 97.7635C344.031 97.9539 343.659 98.5794 343.781 99.2142L343.805 99.3392L344.832 104.559C344.97 105.215 345.577 105.657 346.241 105.584ZM382.979 89.403C383.304 90.2245 383.567 91.1095 383.75 92.0542C384.095 93.8577 383.722 96.7012 382.902 98.3479C382.816 98.5252 382.725 98.697 382.635 98.8688C376.995 109.27 362.29 107.156 359.902 95.3961C359.592 93.8577 359.794 91.621 360.349 89.9071C360.483 89.5113 360.627 89.1398 360.791 88.8261C361.545 87.3325 362.477 86.0835 363.539 85.0678C369.594 79.2801 379.682 81.2087 382.979 89.403Z" fill="#AEC3FF"/>
<path d="M312.792 70.5444L316.709 69.2301C317.036 69.1237 317.394 69.2095 317.639 69.4522C317.949 69.764 318.273 70.0628 318.613 70.3521C319.244 70.8898 319.901 71.3715 320.585 71.786C320.904 71.9802 321.074 72.3442 321.012 72.712L320.318 76.9744C320.239 77.4281 320.527 77.8687 320.981 77.9826L324.808 78.9535C325.243 79.0618 325.684 78.8284 325.842 78.412L327.229 74.6855C327.356 74.3195 327.715 74.0862 328.114 74.1048C329.793 74.1833 331.483 73.9928 333.116 73.541C333.51 73.4327 333.938 73.6119 334.139 73.9667L335.332 76.0708C335.562 76.4685 336.057 76.6384 336.482 76.4573L340.076 74.8909C340.151 74.8591 340.218 74.8218 340.278 74.7714C340.569 74.5455 340.694 74.1497 340.569 73.7874L339.591 70.86L339.352 70.1468C339.901 69.6614 340.427 69.1255 340.915 68.5523C341.572 67.7794 342.145 66.9598 342.627 66.114C342.812 65.7929 343.172 65.6118 343.538 65.6753L346.971 66.2391C347.442 66.3138 347.89 66.0207 348.004 65.5614L348.747 62.6358L348.958 61.7975C349.074 61.3401 348.829 60.864 348.386 60.7016L345.272 59.5384C344.91 59.4077 344.671 59.0623 344.686 58.6833C344.708 57.5482 344.615 56.4149 344.397 55.3059C344.385 55.2069 344.365 55.1192 344.344 55.0258C344.335 54.9941 344.333 54.9624 344.329 54.9306C344.287 54.5703 344.471 54.2212 344.789 54.0419L348.202 52.0965C348.241 52.0778 348.278 52.048 348.31 52.0237C348.629 51.7735 348.747 51.3292 348.584 50.9483L347.029 47.3636C346.841 46.9305 346.355 46.7139 345.903 46.8633L341.818 48.2355C341.473 48.3569 341.094 48.2467 340.857 47.9685C340.33 47.3618 339.75 46.7848 339.115 46.2453C338.779 45.9596 338.433 45.6889 338.081 45.4369C337.795 45.2296 337.649 44.8805 337.707 44.5332L338.374 40.437C338.448 39.9871 338.165 39.5483 337.716 39.4344L333.928 38.4804C333.471 38.3646 332.999 38.6073 332.831 39.0554L331.731 42.0034C331.583 42.3992 331.191 42.6382 330.775 42.5934C329.139 42.3936 327.485 42.4534 325.868 42.7596C325.488 42.838 325.095 42.6587 324.901 42.3171L323.15 39.2403C322.915 38.8276 322.405 38.6615 321.97 38.8463L318.399 40.3959C317.969 40.5808 317.756 41.0681 317.906 41.5031L317.962 41.6748L319.101 45.0765C319.224 45.4406 319.108 45.8345 318.811 46.0791L318.807 46.0829C318.096 46.6672 317.426 47.3225 316.808 48.0525C316.477 48.4409 316.175 48.8386 315.884 49.2493C315.686 49.5368 315.342 49.6825 314.999 49.6283L311.513 49.0551C311.037 48.9749 310.578 49.2773 310.462 49.7422L309.51 53.5136C309.484 53.6218 309.48 53.7301 309.487 53.8328C309.525 54.1651 309.747 54.4676 310.074 54.5908L312.562 55.5131C312.867 55.6289 313.087 55.8996 313.139 56.2114C313.152 56.2935 313.156 56.3794 313.147 56.4672C312.9 58.5657 313.078 60.6885 313.664 62.7198C313.768 63.0633 313.645 63.4311 313.374 63.657C313.335 63.6888 313.292 63.7186 313.247 63.7448L310.482 65.3187C310.081 65.5465 309.917 66.0393 310.098 66.4669L310.133 66.5509L311.647 70.046C311.847 70.4791 312.338 70.6957 312.792 70.5444ZM336.031 53.6275C336.383 54.1521 336.703 54.7309 336.973 55.3656C337.491 56.5755 337.662 58.6198 337.339 59.8969C337.306 60.0332 337.268 60.1676 337.231 60.302C334.869 68.4385 324.259 69.2002 320.796 61.3345C320.344 60.3058 320.146 58.7095 320.273 57.4268C320.307 57.13 320.351 56.848 320.417 56.6035C320.717 55.444 321.179 54.4284 321.767 53.5546C325.125 48.5828 332.478 48.3961 336.031 53.6275Z" fill="#F99746"/>
<path d="M31.7596 282.258H48.6505C49.556 281.491 48.0232 279.747 46.4232 279.629C45.7286 279.577 44.8493 279.723 43.8448 279.934C43.6133 276.845 42.2859 262.968 37.2823 263.526C31.657 264.15 37.2823 269.639 38.873 272.887C40.0511 275.294 41.2926 278.744 41.8621 280.374C41.4046 280.473 40.9323 280.57 40.4506 280.66C39.7057 278.371 36.9313 270.671 33.4026 271.119C29.2616 271.644 30.9251 274.732 33.8619 276.565C36.0164 277.913 38.6601 279.829 39.9166 280.753C38.8524 280.927 37.7397 281.044 36.6139 281.018C33.72 280.947 32.3086 281.801 31.7596 282.258Z" fill="#A8D29F"/>
<path d="M445.999 281.849H426.9C425.877 280.981 427.607 279.009 429.418 278.877C430.204 278.817 431.198 278.981 432.335 279.222C432.598 275.731 434.099 260.037 439.756 260.668C446.117 261.374 439.756 267.58 437.958 271.254C436.627 273.976 435.221 277.878 434.579 279.719C435.094 279.831 435.63 279.941 436.175 280.042C437.019 277.452 440.156 268.747 444.144 269.252C448.828 269.846 446.944 273.337 443.625 275.41C441.19 276.933 438.199 279.099 436.776 280.146C437.981 280.343 439.237 280.475 440.512 280.445C443.783 280.365 445.38 281.33 445.999 281.849Z" fill="#A8D29F"/>
<path d="M234.086 165.355L224.848 275.208C224.848 275.208 223.879 281.868 228.834 281.879C236.978 281.898 269.371 281.879 269.371 281.879C269.371 281.879 263.241 280.494 263.316 277.374C263.404 273.698 274.115 164.317 274.115 164.317L234.086 165.355Z" fill="#D8702A"/>
<path d="M272.418 279.928C270.816 279.934 239.458 279.986 231.526 279.883C228.071 279.84 227.464 276.81 227.436 274.85C227.421 273.909 227.54 273.214 227.54 273.214L227.781 270.36L228.394 263.082L228.935 256.652L229.63 248.391L230.216 241.417L236.78 163.359L276.805 162.321C276.805 162.321 272.295 208.097 269.104 241.417C268.747 245.129 268.409 248.689 268.096 252.013C267.995 253.073 267.898 254.111 267.801 255.121C267.506 258.275 267.235 261.168 267 263.724C266.877 265.072 266.761 266.323 266.658 267.47C266.251 271.963 266.012 274.833 266.008 275.378C266.007 275.696 266.035 275.993 266.087 276.267C266.74 279.771 271.817 279.928 272.418 279.928Z" fill="#F99746"/>
<path d="M136.882 105.577L159.387 195.972L162.467 208.352L172.949 250.455H367.676L329.044 105.577H136.882Z" fill="#F99746"/>
<path d="M136.882 105.577L133.764 106.617L168.802 253.599L172.949 250.455L136.882 105.577Z" fill="#D8702A"/>
<path d="M168.802 253.6H362.333L367.677 250.456H172.949L168.802 253.6Z" fill="#ED7D2B"/>
<path d="M236.765 281.921H278.666V279.931H236.765V281.921Z" fill="#F99746"/>
<path d="M268.015 253.6L267.799 255.121L228.392 263.082L228.933 256.654L229.191 253.6H268.015Z" fill="#E27329"/>
<g opacity="0.5">
<path opacity="0.5" d="M272.418 279.928C270.816 279.933 239.457 279.986 231.526 279.883C228.071 279.84 227.464 276.81 227.436 274.85L266.656 267.471C266.249 271.965 266.01 274.835 266.006 275.38C266.005 275.697 266.033 275.994 266.085 276.269C266.74 279.771 271.817 279.928 272.418 279.928Z" fill="#ED7D2B"/>
</g>
<path d="M136.882 105.577H329.044L360.223 222.013H165.869L136.882 105.577Z" fill="#ED7D2B"/>
<path d="M351.159 216.969H171.237L164.807 191.355L162.32 181.445L161.306 177.403L154.699 151.082L154.355 149.712L150.862 135.799L149.299 129.574L147.966 124.262L144.841 111.815H322.17L325.602 124.262L327.065 129.574L328.781 135.799L340.088 176.811V176.813L341.046 180.288L341.492 181.901L349.298 210.214L351.159 216.969Z" fill="#505ABA"/>
<path d="M238.877 222.013L173.016 250.795L165.869 222.013H238.877Z" fill="#ED7D2B"/>
<path d="M255.006 177.644C240.307 177.644 226.364 165.686 223.926 150.985C221.488 136.284 231.463 124.326 246.164 124.326C260.863 124.326 274.806 136.286 277.244 150.985C279.682 165.684 269.705 177.644 255.006 177.644ZM246.926 128.922C234.76 128.922 226.504 138.819 228.523 150.985C230.541 163.15 242.079 173.047 254.244 173.047C266.41 173.047 274.666 163.15 272.647 150.985C270.629 138.821 259.091 128.922 246.926 128.922Z" fill="#E6F0FF"/>
<path d="M255.015 177.706C240.283 177.706 226.308 165.719 223.864 150.985C221.42 136.252 231.42 124.264 246.153 124.264C254.157 124.264 262.259 127.808 268.383 133.988C273.109 138.756 276.277 144.792 277.304 150.985C277.52 152.288 276.639 153.343 275.336 153.343C274.033 153.343 272.802 152.286 272.586 150.985C271.74 145.886 269.132 140.916 265.243 136.99C260.198 131.9 253.527 128.982 246.937 128.982C234.805 128.982 226.571 138.851 228.584 150.983C230.597 163.115 242.103 172.984 254.235 172.984C255.538 172.984 256.768 174.041 256.985 175.344C257.2 176.649 256.319 177.706 255.015 177.706Z" fill="#F99746"/>
<path d="M305.597 198.175L306.018 200.726C306.25 202.117 305.3 203.254 303.909 203.254H214.595C213.204 203.254 211.878 202.117 211.647 200.726L211.223 198.175C210.991 196.784 211.942 195.647 213.332 195.647H302.647C304.039 195.646 305.365 196.783 305.597 198.175Z" fill="#E6F0FF"/>
<path d="M276.742 195.646L278.004 203.252H214.595C213.204 203.252 211.878 202.115 211.647 200.724L211.223 198.173C210.991 196.783 211.942 195.646 213.332 195.646H276.742Z" fill="#F99746"/>
<path d="M263.583 195.646L257.829 203.252H244.702L250.456 195.646H263.583Z" fill="#F78248"/>
<path d="M276.742 195.646L278.004 203.252H265.838L271.593 195.646H276.742Z" fill="#F78248"/>
<path d="M242.447 195.646L236.692 203.252H223.565L229.32 195.646H242.447Z" fill="#F78248"/>
<path d="M221.312 195.646L215.558 203.252H214.597C213.206 203.252 211.88 202.115 211.649 200.724L211.225 198.173C210.993 196.783 211.943 195.646 213.334 195.646H221.312Z" fill="#F78248"/>
<path d="M240.651 147.451H235.673L235.419 145.923H242.378L242.596 147.238L239.551 155.822H237.6L240.651 147.451Z" fill="#E6F0FF"/>
<path d="M244.413 150.873C243.944 148.044 245.288 145.753 247.891 145.753C250.479 145.753 252.566 148.016 253.038 150.873C253.507 153.701 252.163 155.992 249.56 155.992C246.959 155.992 244.887 153.729 244.413 150.873ZM251.244 150.873C250.921 148.922 249.651 147.324 248.124 147.324C246.597 147.324 245.878 148.879 246.211 150.873C246.534 152.824 247.79 154.422 249.33 154.422C250.871 154.422 251.573 152.852 251.244 150.873Z" fill="#E6F0FF"/>
<path d="M254.104 148.341C253.877 146.969 254.633 145.81 256.033 145.81C257.418 145.81 258.542 146.956 258.772 148.341C259 149.713 258.243 150.873 256.845 150.873C255.458 150.873 254.334 149.727 254.104 148.341ZM257.513 148.341C257.383 147.55 256.821 146.898 256.186 146.898C255.521 146.898 255.234 147.548 255.365 148.341C255.499 149.148 256.057 149.784 256.692 149.784C257.357 149.783 257.644 149.133 257.513 148.341ZM261.948 145.922H263.348L257.749 155.82H256.348L261.948 145.922ZM260.926 153.405C260.699 152.032 261.455 150.873 262.855 150.873C264.24 150.873 265.364 152.019 265.594 153.405C265.822 154.777 265.065 155.936 263.665 155.936C262.28 155.934 261.156 154.79 260.926 153.405ZM264.334 153.405C264.203 152.613 263.641 151.961 263.006 151.961C262.341 151.961 262.054 152.611 262.185 153.405C262.319 154.211 262.877 154.848 263.512 154.848C264.177 154.846 264.466 154.196 264.334 153.405Z" fill="#E6F0FF"/>
<path d="M248.081 189.634H248.617L249.043 192.197H250.646L250.727 192.686H248.587L248.081 189.634Z" fill="#E6F0FF"/>
<path d="M250.863 191.538C250.755 190.879 251.186 190.335 251.892 190.335C252.597 190.335 253.206 190.871 253.316 191.538C253.425 192.191 252.991 192.736 252.282 192.736C251.582 192.736 250.973 192.201 250.863 191.538ZM252.79 191.538C252.723 191.133 252.375 190.797 251.961 190.797C251.539 190.797 251.322 191.127 251.391 191.538C251.459 191.939 251.806 192.279 252.217 192.279C252.642 192.279 252.857 191.943 252.79 191.538Z" fill="#E6F0FF"/>
<path d="M255.452 192.684L255.405 192.4C255.28 192.587 255.064 192.731 254.715 192.731C254.28 192.731 253.854 192.483 253.776 192.012C253.692 191.502 254.048 191.258 254.584 191.258C254.862 191.258 255.049 191.297 255.235 191.353L255.228 191.31C255.176 190.991 254.946 190.817 254.58 190.817C254.323 190.817 254.141 190.873 253.945 190.961L253.731 190.539C253.964 190.425 254.199 190.347 254.575 190.347C255.254 190.347 255.644 190.703 255.747 191.319L255.973 192.684H255.452ZM255.305 191.721C255.161 191.669 254.967 191.629 254.761 191.629C254.431 191.629 254.255 191.764 254.295 191.995C254.33 192.214 254.547 192.335 254.795 192.335C255.144 192.335 255.372 192.139 255.325 191.851L255.305 191.721Z" fill="#E6F0FF"/>
<path d="M256.294 191.531C256.167 190.767 256.615 190.336 257.164 190.336C257.543 190.336 257.816 190.528 258.016 190.741L257.81 189.503H258.338L258.867 192.684H258.34L258.277 192.3C258.146 192.541 257.939 192.731 257.564 192.731C257.02 192.733 256.421 192.302 256.294 191.531ZM258.154 191.531C258.079 191.086 257.717 190.793 257.364 190.793C257.002 190.793 256.748 191.073 256.824 191.538C256.899 191.982 257.252 192.275 257.609 192.275C257.965 192.275 258.228 191.979 258.154 191.531Z" fill="#E6F0FF"/>
<path d="M259.009 189.529H259.576L259.66 190.032H259.093L259.009 189.529ZM259.171 190.384H259.7L260.08 192.686H259.552L259.171 190.384Z" fill="#E6F0FF"/>
<path d="M260.389 190.384H260.917L260.977 190.741C261.089 190.522 261.272 190.335 261.628 190.335C262.147 190.335 262.506 190.685 262.594 191.22L262.836 192.686H262.31L262.093 191.379C262.034 191.023 261.821 190.817 261.507 190.817C261.203 190.817 261.023 191.03 261.083 191.388L261.298 192.688H260.77L260.389 190.384Z" fill="#E6F0FF"/>
<path d="M263.54 193.115L263.671 192.72C263.94 192.873 264.216 192.964 264.531 192.964C265.002 192.964 265.218 192.72 265.142 192.258L265.112 192.079C264.961 192.328 264.75 192.501 264.371 192.501C263.831 192.501 263.258 192.1 263.144 191.416C263.032 190.737 263.475 190.335 264.01 190.335C264.399 190.335 264.668 190.515 264.882 190.728L264.825 190.384H265.351L265.655 192.216C265.719 192.604 265.667 192.891 265.508 193.084C265.334 193.293 265.028 193.394 264.614 193.394C264.235 193.392 263.865 193.295 263.54 193.115ZM265.006 191.416C264.942 191.037 264.591 190.78 264.225 190.78C263.859 190.78 263.613 191.032 263.678 191.42C263.742 191.799 264.076 192.057 264.438 192.057C264.802 192.057 265.067 191.795 265.006 191.416Z" fill="#E6F0FF"/>
<path d="M125.116 172.328C125.116 172.328 125.566 167.42 120.083 167.42C120.083 167.42 121.744 167.872 122.605 168.772C122.605 168.772 119.106 166.718 115.299 169.873C111.492 173.028 113.858 180.943 112.7 182.446C111.543 183.949 107.034 184.249 107.585 189.107C108.136 193.965 121.892 200.052 121.009 204.071C121.009 204.071 126.401 196.146 122.545 192.529C122.545 192.529 124.423 194.299 124.616 196.403C124.616 196.403 125.125 192.296 122.512 190.982C120.198 189.818 118.303 185.567 118.505 184.807C118.705 184.049 125.116 172.328 125.116 172.328Z" fill="#2C3A64"/>
<path d="M119.717 195.896C119.717 195.896 123.815 212.846 127.836 216.237C130.254 218.274 137.442 222.949 137.442 222.949L134.451 224.033C134.451 224.033 124.481 220.665 122.248 218.042C120.015 215.417 113.905 202.266 113.905 202.266L119.717 195.896Z" fill="#FFB27D"/>
<path d="M143.246 229.143L142.283 226.759C141.251 224.203 138.769 222.528 136.012 222.528H118.249V233.799V281.92H191.731V233.799H150.147C147.113 233.799 144.382 231.957 143.246 229.143Z" fill="#6376E5"/>
<path d="M81.2056 225.678C81.241 225.743 81.2802 225.81 81.3176 225.878C82.2137 227.437 84.2712 231.255 86.5359 235.433C87.6075 237.416 88.7296 239.481 89.7938 241.422C91.6272 244.774 93.2963 247.759 94.269 249.337C95.2586 250.94 95.9886 252.066 96.2836 252.518C96.2854 252.52 96.2854 252.52 96.2854 252.52C96.375 252.658 96.3937 252.822 96.3806 252.985C96.2779 254.4 96.306 255.804 96.446 257.187C97.8126 270.783 106.98 278.068 106.98 278.068L109.706 278.471C109.706 278.471 105.848 264.179 104.711 256.101C104.519 254.732 104.435 253.621 104.502 252.897C104.704 250.793 104.33 247.701 103.623 244.154C102.364 237.849 100.055 230.11 98.0497 223.915C97.9228 223.52 94.0898 209.653 94.0898 209.653C90.8729 212.465 79.1369 213.626 79.1369 213.626C79.1369 213.626 77.1504 218.464 81.2056 225.678Z" fill="#2F539B"/>
<path d="M115.43 281.92H104.054C104.054 281.92 103.782 280.186 104.375 278.871C104.945 277.609 105.757 277.568 104.48 275.591C105.202 276.336 107.527 276.644 109.172 276.422C109.373 276.748 110.471 278.94 111.143 279.424C111.886 279.958 115.202 279.767 115.43 281.92Z" fill="#233862"/>
<path d="M81.2056 225.678C81.241 225.743 81.2802 225.81 81.3176 225.878C82.2137 227.437 87.0624 236.393 89.3289 240.571C86.7039 229.77 88.5299 218.97 88.5299 218.97L81.2056 225.678Z" fill="#233862"/>
<path d="M123.564 171.637C123.639 171.339 117.067 174.608 116.733 174.977C113.651 178.396 114.53 182.858 116.292 182.901C117.424 182.929 117.203 184.809 117.203 184.809L129.804 179.479C129.806 179.479 128.29 170.631 123.564 171.637Z" fill="#2C3A64"/>
<path d="M119.33 193.351C119.33 193.351 121.248 197.182 121.009 200.29C121.009 200.29 118.697 203.94 112.7 204.864C112.699 204.864 117.855 193.347 119.33 193.351Z" fill="#AEC3FF"/>
<path d="M90.0758 214.472L90.115 212.344C85.875 212.878 75.4981 207.279 75.4981 207.279C75.4981 207.279 71.064 210.229 70.4553 218.653C70.1585 222.764 68.284 240.153 68.0768 245.345C68.0002 247.227 67.976 248.57 67.9666 249.107C67.9685 249.109 67.9666 249.111 67.9666 249.113C67.9648 249.277 67.8863 249.421 67.7855 249.552C66.908 250.666 66.1481 251.848 65.4891 253.073C59.0199 265.11 62.4029 281.463 62.4029 281.463L63.9059 281.08C63.9059 281.08 69.3762 264.126 72.9497 256.792C73.5565 255.549 74.1072 254.581 74.5684 254.021C75.9126 252.39 77.3297 249.617 78.7262 246.281C81.368 239.972 90.0758 214.472 90.0758 214.472Z" fill="#2F539B"/>
<path d="M71.4505 281.92H60.073C60.073 281.92 59.8004 280.186 60.3941 278.871C60.9635 277.609 61.856 277.036 61.6412 275.509C62.3638 276.254 63.5419 277.086 65.1867 276.866C65.3883 277.193 66.488 278.942 67.1601 279.426C67.9069 279.958 71.2209 279.767 71.4505 281.92Z" fill="#233862"/>
<path d="M111.931 207.307C110.402 207.568 112.181 208.782 110.079 209.011C107.088 209.338 103.998 209.562 102.381 210.206C101.791 210.441 101.397 210.733 101.274 211.104C100.572 213.214 96.1305 216.836 96.1305 216.836C76.3196 215.934 75.0444 207.105 75.0444 207.105C87.9007 194.619 98.8395 187.813 107.88 186.969C110.079 186.764 113.046 187.04 114.437 187.658C117.597 189.066 119.33 193.349 119.33 193.349C119.33 193.349 117.737 206.317 111.931 207.307Z" fill="#AEC3FF"/>
<path d="M110.079 209.011C107.088 209.338 103.998 209.562 102.381 210.206C97.7045 200.884 106.382 192.895 106.382 192.895C106.382 192.895 109.424 205.271 110.079 209.011Z" fill="#94B0ED"/>
<path d="M112.659 191.222C112.659 191.222 105.137 190.812 103.8 195.535C102.463 200.259 106.308 219.11 107.137 221.055C108.645 224.597 116.251 235.148 116.251 235.148L118.69 233.885C118.69 233.885 113.792 218.44 112.7 216.912C110.983 214.513 114.911 193.276 112.659 191.222Z" fill="#FFB27D"/>
<path d="M118.688 233.886C118.688 233.886 119.317 234.433 119.823 235.051C120.329 235.669 119.885 235.893 121.337 238.691C121.337 238.691 121.262 239.08 120.947 239.009C120.631 238.938 119.535 237.851 118.972 237.93C118.972 237.93 118.57 238.26 118.525 239.358C118.484 240.385 118.481 242.655 118.303 243.081C118.124 243.508 116.819 241.292 116.177 239.692C115.613 238.288 116.162 233.555 116.162 233.555L118.688 233.886Z" fill="#FFB27D"/>
<path d="M102.316 201.849C102.336 201.96 109.435 203.156 113.875 200.901C113.875 200.901 117.584 189.281 112.284 189.835C106.983 190.392 103.843 192.061 103.711 194.598C103.576 197.139 102.316 201.849 102.316 201.849Z" fill="#AEC3FF"/>
<path d="M114.267 188.474C114.343 189.415 114.465 190.517 115.695 191.783C116.638 192.754 118.001 193.512 118.958 192.554C119.446 192.066 120.105 191.338 120.439 190.765C121.266 189.342 122.252 187.89 122.252 187.89L117.993 184.16L117.739 183.938C116.625 185.885 115.527 186.82 114.567 187.537C114.276 187.754 114.237 188.114 114.267 188.474Z" fill="#FFB27D"/>
<path d="M122.25 187.893C122.25 187.893 121.266 189.342 120.439 190.767C117.794 189.135 117.79 185.858 117.993 184.161L122.25 187.893Z" fill="#ED985F"/>
<path d="M122.368 189.762C122.368 189.762 115.941 186.187 118.23 182.22C120.519 178.252 121.231 175.12 125.43 177.235C129.629 179.35 129.546 181.32 129.104 182.83C128.663 184.339 124.098 190.59 122.368 189.762Z" fill="#FFB27D"/>
<path d="M130.191 180.515C129.896 178.754 129.001 178.585 128.378 178.702C126.005 174.778 122.127 176.309 122.127 176.309C120.056 178.908 117.062 179.352 117.062 179.352C117.062 179.352 117.807 180.739 120.88 181.598C121.819 181.861 122.883 181.701 123.91 181.355C121.778 182.545 119.549 182.998 119.549 182.998C123.596 183.368 127.45 179.667 127.849 179.272C128.036 179.845 128.365 181.045 128.169 181.925C127.902 183.118 126.843 185.278 127.489 185.558C127.489 185.558 130.631 183.157 130.191 180.515Z" fill="#2C3A64"/>
<path d="M138.618 222.956C138.618 222.956 136.826 224.3 138.176 225.18C139.527 226.059 141.94 226.296 141.949 225.719C141.984 223.783 141.017 222.407 138.618 222.956Z" fill="#FFB27D"/>
<path d="M137.5 264.241H175.467C177.032 264.241 178.238 261.848 178.259 260.154C178.32 254.835 172.613 246.336 159.672 250.098C159.672 250.098 156.021 240.243 143.189 241.437C135.655 242.139 131.456 249.826 130.95 256.678C130.648 260.768 133.708 264.241 137.5 264.241Z" fill="#AEC3FF"/>
<path d="M150.917 273.101H158.271V256.206H150.917V273.101Z" fill="#F99746"/>
<path d="M163.72 259.618H145.468L154.594 251.04L163.72 259.618Z" fill="#F99746"/>
<path d="M326.382 180.547L316.787 182.75L312.021 191.367L308.457 171.692L326.382 180.547Z" fill="#233862"/>
<path d="M316.263 180.855L314.862 181.91L320.964 190.01L322.365 188.955L316.263 180.855Z" fill="#233862"/>
<path d="M176.855 131.254C176.539 131.616 176.498 132.021 176.655 132.453C176.655 132.455 176.657 132.456 176.659 132.458C176.948 133.257 177.904 134.15 179.013 135.042C179.155 135.156 179.282 135.261 179.39 135.358C179.418 135.384 179.448 135.408 179.474 135.434C179.496 135.455 179.517 135.474 179.539 135.494C180.574 136.448 180.185 136.667 182.045 138.603C184.166 140.809 185.626 140.849 186.04 140.647C186.391 140.475 185.678 139.305 184.887 137.99C184.847 137.927 184.81 137.863 184.771 137.798C184.666 137.622 184.562 137.445 184.455 137.27C183.527 135.686 183.766 134.943 183.987 132.587C184.166 130.673 186.965 121.891 186.965 121.891L182.9 121.191C182.9 121.191 181.675 128.183 180.327 129.26C179.607 129.833 178.8 129.841 178.106 130.266C178.057 130.296 178.008 130.326 177.962 130.358C177.573 130.621 177.172 130.89 176.855 131.254Z" fill="#FFB27D"/>
<path d="M176.855 131.254C176.539 131.616 176.498 132.021 176.655 132.453C176.655 132.455 176.657 132.456 176.659 132.458C177.013 133.257 177.945 134.146 179.017 135.033C179.157 135.149 179.28 135.257 179.39 135.356C179.418 135.382 179.448 135.406 179.474 135.432C179.496 135.453 179.517 135.472 179.539 135.492C180.574 136.446 180.185 136.665 182.045 138.601C184.166 140.808 185.626 140.847 186.04 140.645C186.391 140.473 185.678 139.303 184.887 137.988C184.474 137.837 182.556 137.059 181.106 135.203C179.875 133.633 179.039 131.631 178.203 130.403C178.111 130.386 178.055 130.375 177.964 130.358C177.573 130.621 177.172 130.89 176.855 131.254Z" fill="#233862"/>
<path d="M209.624 128.715C209.875 129.969 211.663 129.76 213.661 129.271C215.659 128.784 215.184 129.362 218.028 129.049C220.871 128.733 221.732 127.675 221.82 127.251C221.898 126.876 220.492 126.743 218.986 126.569C218.795 126.549 218.607 126.525 218.416 126.5C216.715 126.287 215.468 125.19 213.924 124.288C212.46 123.435 210.276 119.955 210.276 119.955L206.378 120.263C206.378 120.263 208.424 123.371 209.216 124.721C209.68 125.516 209.656 126.568 209.598 127.378C209.565 127.822 209.535 128.274 209.624 128.715Z" fill="#FFB27D"/>
<path d="M213.661 129.273C215.659 128.786 215.184 129.364 218.028 129.051C220.871 128.735 221.732 127.677 221.82 127.253C221.898 126.877 220.492 126.745 218.986 126.571L218.971 126.599C218.971 126.599 217.266 127.809 214.899 127.865C212.97 127.912 210.928 127.359 209.595 127.382C209.565 127.822 209.535 128.274 209.624 128.715C209.875 129.969 211.663 129.76 213.661 129.273Z" fill="#233862"/>
<path d="M194.681 103.783L191.036 113.592L186.277 126.399C186.277 126.399 184.985 126.525 183.749 126.168C182.611 125.839 181.304 124.979 181.304 124.979C181.304 124.979 182.626 111.228 185.09 103.334C185.721 101.309 186.431 99.6695 187.211 98.7472C191.033 94.229 194.681 103.783 194.681 103.783Z" fill="#94B0ED"/>
<path d="M190.975 88.2061C188.901 87.5377 183.486 88.1949 177.615 89.2591C175.992 89.5522 174.357 88.811 173.501 87.4014L158.724 86.2476C158.724 86.2476 153.847 97.0613 156.517 103.952C156.909 104.964 157.77 105.597 159.099 105.618C159.099 105.618 168.029 105.631 170.886 105.631C178.234 105.631 186.44 100.579 187.5 100.366C189.237 100.019 189.933 103.493 191.669 107.141C193.406 110.789 207.998 123.297 207.998 123.297C207.998 123.297 210.241 123.319 211.168 122.972C212.165 122.598 212.53 122.113 212.53 122.113C212.53 122.113 196.361 89.9424 190.975 88.2061Z" fill="#AEC3FF"/>
<path d="M171.931 44.0046C170.833 43.3512 169.764 43.2522 169.108 43.2709C168.653 43.284 168.197 43.2541 167.745 43.1888C162.105 42.3617 158.709 50.5541 158.509 53.0298C158.143 57.5741 155.741 58.2668 152.356 61.1139C145.571 66.8214 147.559 73.453 151.271 75.9156C153.496 77.3943 157.421 75.9156 157.421 75.9156C157.477 75.9548 168.152 69.9468 173.414 67.051C181.304 65.929 175.101 45.8922 171.931 44.0046Z" fill="#233862"/>
<path d="M169.004 64.5827C169.026 64.5976 166.414 65.4901 164.669 64.7153C163.026 63.989 161.78 61.2856 161.805 61.2837C162.551 61.2482 163.373 60.5948 164.006 56.3081L164.323 56.422L169.676 58.3488C169.676 58.3488 169.288 60.0664 169.037 61.7019C168.825 63.0742 168.712 64.3885 169.004 64.5827Z" fill="#FFB27D"/>
<path d="M169.676 58.3491C169.676 58.3491 169.463 59.2752 169.151 61.0059C166.076 60.4532 164.756 58.084 164.325 56.4224L169.676 58.3491Z" fill="#ED975D"/>
<path d="M170.473 60.0533C170.473 60.0533 163.151 59.0713 163.832 54.5195C164.514 49.9677 164.028 46.777 168.733 47.212C173.438 47.647 174.084 49.5196 174.226 51.0935C174.366 52.6693 172.394 60.1915 170.473 60.0533Z" fill="#FFB27D"/>
<path d="M173.957 48.5993C173.957 48.5993 169.269 52.6395 166.08 52.9644C162.891 53.2892 161.685 52.2661 161.685 52.2661C161.685 52.2661 163.565 50.7053 164.695 48.1885C165.029 47.4473 165.733 46.9358 166.543 46.8667C168.821 46.6707 173.137 46.581 173.957 48.5993Z" fill="#233862"/>
<path d="M171.028 48.2391C171.028 48.2391 172.596 49.7551 173.089 50.879C173.565 51.9638 173.709 54.5608 173.33 55.5914C173.33 55.5914 175.773 50.8398 174.39 48.5322C172.923 46.0845 171.028 48.2391 171.028 48.2391Z" fill="#233862"/>
<path d="M175.17 75.3704C174.948 90.1926 175.109 87.0952 173.488 88.503C173.098 88.8409 171.998 89.0425 170.553 89.1396C166.009 89.4421 158.018 88.6934 157.714 87.8532C156.665 84.9463 157.406 84.0445 156.53 79.5936C156.439 79.1212 156.327 78.6078 156.194 78.0496C155.464 74.9933 154.755 73.9533 157.342 69.0431C159.689 64.5959 162.126 60.9851 162.346 61.1157C168.537 64.79 169.035 61.702 169.035 61.702C169.035 61.702 175.279 68.1395 175.17 75.3704Z" fill="#F99746"/>
<path d="M191.036 113.592L186.277 126.4C186.277 126.4 184.985 126.525 183.749 126.168C182.611 125.839 181.304 124.979 181.304 124.979C181.304 124.979 182.626 111.228 185.09 103.334L191.036 113.592Z" fill="#AEC3FF"/>
<path d="M169.037 61.7021C169.037 61.7021 175.408 62.7813 176.154 65.5239C176.903 68.2666 179.364 84.9129 179.364 84.9129C179.364 84.9129 177.568 86.6679 176.072 85.1705C174.577 83.675 171.364 69.5959 171.364 69.5959L169.037 61.7021Z" fill="#F99746"/>
<path d="M170.553 89.1379C166.009 89.4403 158.018 88.6916 157.714 87.8515C156.665 84.9445 157.406 84.0428 156.53 79.5918L158.722 73.4194C158.722 73.4194 158.36 80.2938 160.388 82.1011C162.413 83.9083 168.688 85.5905 169.674 87.1028C170.15 87.8272 170.462 88.5553 170.553 89.1379Z" fill="#ED7D2B"/>
<path d="M165.346 86.2475C165.346 86.2475 169.831 85.2486 170.554 85.6463C171.278 86.044 173.046 87.4928 173.266 87.9968C173.488 88.5009 171.655 87.6141 171.059 87.4535C170.673 87.3509 169.657 87.7037 169.155 87.8699C167.038 88.5756 165.742 88.2115 165.742 88.2115L165.346 86.2475Z" fill="#FFB27D"/>
<path d="M162.342 61.1138C162.342 61.1138 156.321 61.4853 154.238 64.3922C151.303 68.4847 145.483 85.9245 148.82 88.2508C152.576 90.8702 165.916 88.936 165.916 88.936C165.916 88.936 166.36 86.8617 165.742 85.8573C165.124 84.8528 155.087 83.2323 154.624 82.7693C154.161 82.3062 160.416 73.7348 160.416 72.3457C160.414 70.9529 162.342 61.1138 162.342 61.1138Z" fill="#F99746"/>
<path d="M170.77 86.8955C170.77 86.8955 171.709 88.1072 172.017 88.2528C172.325 88.3966 172.525 88.3611 172.525 88.3611L171.892 87.2222L170.77 86.8955Z" fill="#FFB27D"/>
<path d="M170.553 85.6465L173.285 86.9739C173.285 86.9739 173.169 87.1644 172.833 87.1494C172.497 87.1345 171.648 86.8246 171.648 86.8246L170.553 85.6465Z" fill="#FFB27D"/>
<path d="M193.88 88.7646H165.346V89.3957H193.626L193.88 88.7646Z" fill="#233862"/>
<path d="M172.019 89.3956H193.626L200.127 73.231H178.552L172.019 89.3956Z" fill="#233862"/>
<path d="M188.172 81.3134C188.335 80.7458 188.006 80.2847 187.439 80.2847C186.871 80.2847 186.277 80.7458 186.115 81.3134C185.953 81.881 186.281 82.3421 186.849 82.3421C187.416 82.3421 188.008 81.881 188.172 81.3134Z" fill="white"/>
<path d="M399.219 155.186C399.219 155.186 409.691 165.839 410.227 170.262C410.763 174.685 404.798 181.589 404.798 181.589L399.219 155.186Z" fill="#ED7D2B"/>
<path d="M393.235 275.869C393.235 275.869 392.836 282.101 391.63 282.189C391.469 282.2 385.514 282.187 385.514 282.187L377.909 282.127C377.909 282.127 377.963 280.296 380.187 279.913C382.411 279.53 386.133 277.977 387.487 275.042C388.91 271.954 393.235 275.869 393.235 275.869Z" fill="#0E2644"/>
<path d="M410.173 275.905C410.173 275.905 409.773 282.137 408.567 282.224C408.407 282.236 402.451 282.223 402.451 282.223L394.847 282.161C394.847 282.161 394.901 280.329 397.124 279.947C399.348 279.564 403.071 278.011 404.424 275.076C405.845 271.989 410.173 275.905 410.173 275.905Z" fill="#0E2644"/>
<path d="M384.961 208.855C384.961 208.855 386.921 221.578 394.292 244.173C401.661 266.767 402.651 276.547 402.651 276.547L410.61 276.341C410.61 276.341 410.731 251.665 407.337 240.304C403.943 228.944 406.687 199.37 406.687 199.37L384.961 208.855Z" fill="#163560"/>
<path d="M381.107 200.01C381.107 200.01 380.784 219.177 384.05 242.718C387.315 266.259 386.169 276.246 386.169 276.246L394.111 276.528C394.111 276.528 398.909 252.996 397.572 241.213C396.238 229.431 404.159 200.807 404.159 200.807L381.107 200.01Z" fill="#1C468A"/>
<path d="M396.58 155.191L392.342 157.956L386.229 156.802C386.315 156.31 386.724 154.263 387.095 152.411C387.118 152.301 387.14 152.193 387.161 152.086C387.48 150.511 387.754 149.155 387.754 149.155L393.471 146.648L395.603 145.712C395.598 145.746 395.435 147.462 395.411 147.712C395.002 152.165 396.58 155.191 396.58 155.191Z" fill="#FFB27D"/>
<path d="M387.802 153.772C387.922 153.722 395.172 151.601 395.959 151.862C396.745 152.124 397.208 153.649 397.208 153.649L385.351 156.302C385.349 156.302 386.286 154.407 387.802 153.772Z" fill="#ED7D2B"/>
<path d="M407.208 202.434C405.969 208.035 385.525 208.655 380.267 203.556C379.67 202.975 379.646 200.277 379.879 196.641C380.336 189.537 381.78 178.852 381.847 173.391C381.88 170.754 382.248 168.057 382.735 165.609C383.774 160.391 385.349 156.298 385.349 156.298C385.349 156.298 395.34 153.092 397.207 153.645C406.202 156.311 408.448 196.833 407.208 202.434Z" fill="#F99746"/>
<path d="M379.879 196.642C380.336 189.539 381.78 178.854 381.847 173.393C381.88 170.756 382.248 168.059 382.735 165.611L388.743 164.563C388.743 164.563 395.367 190.018 379.879 196.642Z" fill="#ED7D2B"/>
<path d="M383.154 186.745C383.154 186.745 383.561 187.725 382.7 188.379C381.84 189.034 381.279 190.098 381.474 190.875C381.67 191.654 383.551 192.927 384.207 192.723C384.86 192.52 386.193 191.499 386.051 191.088C385.909 190.677 386.953 187.488 385.362 186.258C383.772 185.028 383.154 186.745 383.154 186.745Z" fill="#FFB27D"/>
<path d="M389.774 155.206C389.774 155.206 384.078 155.957 379.395 162.825C374.713 169.694 371.632 174.8 372.486 177.282C373.341 179.763 381.158 188.377 382.51 188.379C383.861 188.383 386.044 187.405 386.171 185.194C386.171 185.194 381.218 176.399 382.306 175.163C382.771 174.634 388.936 169.724 389.888 172.183C391.462 176.249 389.774 155.206 389.774 155.206Z" fill="#F99746"/>
<path d="M394.983 147.792C393.725 149.915 389.046 151.741 387.095 152.413C387.118 152.303 387.14 152.194 387.161 152.088C387.48 150.512 387.754 149.157 387.754 149.157L393.471 146.649C394.733 146.635 395.502 146.918 394.983 147.792Z" fill="#FCA56B"/>
<path d="M385.601 148.804C385.601 148.804 394.796 151.694 396.508 145.94C398.22 140.186 400.56 136.683 394.761 134.596C388.962 132.507 387.164 134.363 386.126 136.144C385.086 137.925 383.253 147.904 385.601 148.804Z" fill="#FFB27D"/>
<path d="M386.488 135.589C386.488 135.589 387.061 142.29 388.447 142.002C389.832 141.715 391.09 141.502 390.883 143.52C390.676 145.538 388.749 147.867 393.019 148.234C397.289 148.6 403.452 137.602 402.283 135.514C398.909 129.491 381.612 128.241 386.488 135.589Z" fill="#163560"/>
<path d="M495.429 283.281H0.571306C0.257648 283.281 0 283.023 0 282.71V282.491C0 282.178 0.257648 281.92 0.571306 281.92H495.429C495.742 281.92 496 282.178 496 282.491V282.71C496 283.025 495.742 283.281 495.429 283.281Z" fill="#2E3552"/>
</g>
</g>
<defs>
<clipPath id="clip0_229_4645">
<rect width="496" height="282.563" fill="white" transform="translate(0 0.718262)"/>
</clipPath>
</defs>
</svg>
