<svg width="54" height="20" viewBox="0 0 54 20" fill="none" xmlns="http://www.w3.org/2000/svg">
<path d="M51.3017 12.2694V10.5877V7.22767H46.26H42.8982V5.54591H51.3017V2.18414H42.8982H37.8564V5.54591V7.22767V10.5877H42.8982H46.26V12.2694H37.8564V15.6312H46.26H51.3017V12.2694Z" fill="#DF9C43"/>
<path d="M36.1764 2.18414H32.8147V15.6294H36.1764V2.18414Z" fill="#DF9C43"/>
<path d="M17.6895 2.18414V5.54591H27.773V7.22767H21.0494H17.6895V10.5877V15.6312H21.0494V10.6388L26.093 15.6312H31.1347L25.8741 10.5877H27.773H31.1347V7.22767V5.54591V2.18414H27.773H17.6895Z" fill="#DF9C43"/>
<path d="M7.60413 10.5876H10.9571V7.23471H7.60413V10.5876ZM8.44589 8.06765H10.1259V9.74765H8.44589V8.06765Z" fill="#DF9C43"/>
<path d="M5.92414 2.18414H2.98238C2.87121 2.18499 2.76479 2.22933 2.68591 2.30767C2.64667 2.34678 2.61555 2.39326 2.59435 2.44445C2.57315 2.49563 2.56228 2.55051 2.56238 2.60591V15.2094C2.56228 15.2648 2.57315 15.3197 2.59435 15.3709C2.61555 15.4221 2.64667 15.4686 2.68591 15.5077C2.76497 15.5855 2.87142 15.6292 2.98238 15.6294H10.9659V12.2765H5.92414V2.18414Z" fill="#DF9C43"/>
<path d="M15.5877 2.18414H7.60413V5.54591H12.6477V10.5877H16.0006V2.60591C16.0016 2.49487 15.9592 2.38784 15.8824 2.30767C15.8036 2.23022 15.6981 2.18599 15.5877 2.18414Z" fill="#DF9C43"/>
<path d="M16.0093 12.2694H12.6476V19.8329H16.0093V12.2694Z" fill="#DF9C43"/>
<path d="M7.25295 0.294128H0.949419C0.838171 0.294593 0.731612 0.338992 0.652947 0.417657C0.574282 0.496322 0.529883 0.602882 0.529419 0.71413V7.01768H1.36942V1.54707C1.37172 1.43706 1.41693 1.33229 1.4954 1.25514C1.57386 1.17799 1.67938 1.13457 1.78942 1.13413H7.26001L7.25295 0.294128Z" fill="#DF9C43"/>
<path d="M52.6306 11.2177V16.6882C52.6301 16.7995 52.5857 16.906 52.5071 16.9847C52.4284 17.0634 52.3218 17.1078 52.2106 17.1082H46.74V17.9412H53.0435C53.0992 17.9419 53.1545 17.9315 53.2062 17.9108C53.2578 17.89 53.3049 17.8592 53.3446 17.8202C53.3843 17.7811 53.4158 17.7346 53.4375 17.6833C53.4591 17.632 53.4704 17.5769 53.4706 17.5212V11.2177H52.6306Z" fill="#DF9C43"/>
</svg>
