<svg width="60" height="60" viewBox="0 0 60 60" fill="none" xmlns="http://www.w3.org/2000/svg">
<path d="M29.975 5C16.175 5 5 16.2 5 30C5 43.8 16.175 55 29.975 55C43.8 55 55 43.8 55 30C55 16.2 43.8 5 29.975 5ZM48.675 22.9L36.15 21.825L31.15 10.05C39.175 10.525 45.925 15.725 48.675 22.9ZM36 38.55L30 34.95L24.025 38.55L25.6 31.75L20.325 27.175L27.275 26.575L30 20.15L32.725 26.55L39.675 27.15L34.4 31.725L36 38.55V38.55ZM28.85 10.05L23.85 21.85L11.3 22.925C14.05 15.725 20.8 10.5 28.85 10.05V10.05ZM10 30C10 28.4 10.2 26.85 10.575 25.35L20.05 33.55L17.275 45.425C12.825 41.75 10 36.2 10 30ZM19.6 47.05L30 40.775L40.4 47.025C37.35 48.9 33.8 50 29.975 50C26.175 50 22.625 48.9 19.6 47.05ZM42.725 45.425L39.95 33.55L49.425 25.35C49.775 26.825 50 28.4 50 30C50 36.2 47.15 41.75 42.725 45.425Z" fill="#DF9C43"/>
</svg>
