<svg width="50" height="50" viewBox="0 0 50 50" fill="none" xmlns="http://www.w3.org/2000/svg">
<path d="M34.9773 29.4343C34.5363 29.4343 34.1133 29.6095 33.8015 29.9213C33.4896 30.2332 33.3144 30.6561 33.3144 31.0971C33.3144 31.5382 33.4896 31.9611 33.8015 32.273C34.1133 32.5848 34.5363 32.76 34.9773 32.76H40.5202C40.9613 32.76 41.3842 32.5848 41.6961 32.273C42.0079 31.9611 42.1831 31.5382 42.1831 31.0971C42.1831 30.6561 42.0079 30.2332 41.6961 29.9213C41.3842 29.6095 40.9613 29.4343 40.5202 29.4343H34.9773ZM0.0567656 6.7082C0.0567656 5.09111 0.699151 3.54025 1.8426 2.3968C2.98606 1.25335 4.53691 0.610962 6.154 0.610962H36.0859C37.703 0.610962 39.2538 1.25335 40.3973 2.3968C41.5407 3.54025 42.1831 5.09111 42.1831 6.7082V9.49741C44.2877 9.63803 46.2602 10.5733 47.7011 12.1138C49.1419 13.6543 49.9434 15.6848 49.9432 17.7941V41.0744C49.9432 43.2796 49.0673 45.3944 47.508 46.9536C45.9487 48.5129 43.8339 49.3888 41.6288 49.3888H8.38005C6.17493 49.3888 4.06012 48.5129 2.50087 46.9536C0.941615 45.3944 0.0656342 43.2796 0.0656342 41.0744V17.7941H0.0567656V7.26249H0.0811544C0.0647238 7.07819 0.0565861 6.89323 0.0567656 6.7082ZM41.6288 12.8054H3.3914V41.0744C3.3914 42.3975 3.91699 43.6664 4.85254 44.6019C5.78809 45.5375 7.05697 46.0631 8.38005 46.0631H41.6288C42.9519 46.0631 44.2208 45.5375 45.1563 44.6019C46.0919 43.6664 46.6175 42.3975 46.6175 41.0744V17.7941C46.6175 16.471 46.0919 15.2021 45.1563 14.2666C44.2208 13.331 42.9519 12.8054 41.6288 12.8054ZM38.8574 6.7082C38.8574 5.17835 37.6157 3.93673 36.0859 3.93673H6.154C5.41896 3.93673 4.71403 4.22872 4.19428 4.74847C3.67452 5.26822 3.38253 5.97316 3.38253 6.7082C3.38253 7.44324 3.67452 8.14817 4.19428 8.66792C4.71403 9.18768 5.41896 9.47967 6.154 9.47967H38.8574V6.7082Z" fill="#DF9C43"/>
</svg>
