<svg width="40" height="50" viewBox="0 0 40 50" fill="none" xmlns="http://www.w3.org/2000/svg">
<path d="M36.0715 0H3.92861C2.98169 0.000945494 2.07384 0.377523 1.40427 1.04709C0.734702 1.71666 0.358123 2.62452 0.357178 3.57143V48.2143C0.357178 48.6879 0.545315 49.1421 0.880202 49.477C1.21509 49.8119 1.66929 50 2.14289 50H3.92861C4.20585 50.0001 4.47932 49.9357 4.7273 49.8117C4.97527 49.6877 5.19094 49.5076 5.35718 49.2857L9.28575 44.0482L13.2143 49.2857C13.3877 49.4969 13.6057 49.6671 13.8528 49.7839C14.0998 49.9007 14.3696 49.9613 14.6429 49.9613C14.9161 49.9613 15.186 49.9007 15.433 49.7839C15.68 49.6671 15.8981 49.4969 16.0715 49.2857L20 44.0482L23.9286 49.2857C24.102 49.4969 24.32 49.6671 24.567 49.7839C24.8141 49.9007 25.0839 49.9613 25.3572 49.9613C25.6304 49.9613 25.9003 49.9007 26.1473 49.7839C26.3943 49.6671 26.6124 49.4969 26.7857 49.2857L30.7143 44.0482L34.6429 49.2857C34.8092 49.5075 35.0249 49.6875 35.2729 49.8115C35.5208 49.9355 35.7942 50 36.0715 50H37.8572C38.3308 50 38.785 49.8119 39.1199 49.477C39.4548 49.1421 39.6429 48.6879 39.6429 48.2143V3.57143C39.6419 2.62452 39.2654 1.71666 38.5958 1.04709C37.9262 0.377523 37.0184 0.000945494 36.0715 0ZM36.0715 45.2375L32.1429 40C31.9695 39.7888 31.7515 39.6187 31.5044 39.5018C31.2574 39.385 30.9876 39.3244 30.7143 39.3244C30.4411 39.3244 30.1712 39.385 29.9242 39.5018C29.6772 39.6187 29.4591 39.7888 29.2857 40L25.3572 45.2375L21.4286 40C21.2552 39.7888 21.0372 39.6187 20.7902 39.5018C20.5431 39.385 20.2733 39.3244 20 39.3244C19.7268 39.3244 19.4569 39.385 19.2099 39.5018C18.9629 39.6187 18.7448 39.7888 18.5715 40L14.6429 45.2375L10.7143 40C10.5409 39.7888 10.3229 39.6187 10.0759 39.5018C9.82885 39.385 9.559 39.3244 9.28575 39.3244C9.0125 39.3244 8.74264 39.385 8.49562 39.5018C8.2486 39.6187 8.03055 39.7888 7.85718 40L3.92861 45.2375V3.57143H36.0715V45.2375Z" fill="#DF9C43"/>
</svg>
