<svg width="50" height="30" viewBox="0 0 50 30" fill="none" xmlns="http://www.w3.org/2000/svg">
<path fill-rule="evenodd" clip-rule="evenodd" d="M1.09249 0.160081C0.914333 0.20257 0.655984 0.341072 0.518262 0.46805C0.00732563 0.93894 0 1.00936 0 5.44409C0 9.44143 0.00595817 9.57124 0.204531 9.92462C0.484662 10.423 0.83971 10.6055 1.73109 10.7091C2.14884 10.7578 2.63927 10.8502 2.82085 10.9146C4.76916 11.6049 6.02985 13.6808 5.69346 15.6446C5.41929 17.2452 4.31713 18.5717 2.82085 19.1019C2.63927 19.1662 2.14884 19.2586 1.73109 19.3073C0.837463 19.4112 0.484662 19.5934 0.201601 20.0972C-0.00244188 20.4601 -0.00556746 20.5385 0.0213908 24.714C0.0479583 28.8295 0.0550886 28.9699 0.250243 29.2312C0.361006 29.3795 0.57296 29.5914 0.721328 29.7022L0.991106 29.9036H25.0047H49.0184L49.2881 29.7022C49.4365 29.5914 49.6485 29.3795 49.7592 29.2312C49.9544 28.9699 49.9615 28.8295 49.9881 24.714C50.015 20.5385 50.0119 20.4601 49.8079 20.0972C49.5248 19.5934 49.172 19.4112 48.2784 19.3073C47.8606 19.2586 47.3702 19.1662 47.1886 19.1019C45.6923 18.5717 44.5902 17.2452 44.316 15.6446C43.9796 13.6808 45.2403 11.6049 47.1886 10.9146C47.3702 10.8502 47.8606 10.7578 48.2784 10.7091C49.172 10.6052 49.5248 10.4231 49.8079 9.91925C50.0119 9.55629 50.015 9.47796 49.9881 5.30236C49.9615 1.18694 49.9544 1.04648 49.7592 0.7852C49.6485 0.636929 49.4365 0.424975 49.2881 0.314211L49.0184 0.112807L25.2174 0.0978623C12.1268 0.0896576 1.27055 0.11769 1.09249 0.160081ZM13.9675 5.37279C13.9675 7.68309 13.9738 7.76093 14.1892 8.08326C14.4448 8.46595 14.9606 8.75673 15.3838 8.75673C15.8069 8.75673 16.3227 8.46595 16.5783 8.08326C16.7937 7.76093 16.8001 7.68309 16.8001 5.37279V2.99421H31.9396H47.0792V5.47329V7.95247L46.6388 8.06333C45.02 8.47093 43.3263 9.76522 42.4127 11.293C40.4413 14.5895 41.3714 18.8148 44.5424 20.9682C45.2185 21.4274 45.9896 21.7896 46.6388 21.9531L47.0792 22.0639V24.5431V27.0222H31.9396H16.8001V24.6436C16.8001 22.3333 16.7937 22.2555 16.5783 21.9331C15.9956 21.0609 14.7719 21.0609 14.1892 21.9331C13.9738 22.2555 13.9675 22.3333 13.9675 24.6436V27.0222H8.44886H2.93024V24.5431V22.0639L3.37066 21.9531C4.98952 21.5455 6.6832 20.2512 7.59675 18.7235C9.56812 15.4269 8.63806 11.2016 5.46705 9.04819C4.79095 8.58902 4.0199 8.22684 3.37066 8.06333L2.93024 7.95247V5.47329V2.99421H8.44886H13.9675V5.37279ZM14.5575 11.9431C13.9896 12.421 13.9675 12.5357 13.9675 15.0082C13.9675 17.4807 13.9896 17.5954 14.5575 18.0733C15.1143 18.5418 16.0829 18.3896 16.5559 17.7593C16.7393 17.5148 16.7512 17.347 16.7512 15.0082C16.7512 12.6694 16.7393 12.5016 16.5559 12.2571C16.2579 11.8599 15.893 11.6873 15.3517 11.6873C14.9654 11.6873 14.7971 11.7415 14.5575 11.9431Z" fill="#DF9C43"/>
</svg>
