<svg width="60" height="60" viewBox="0 0 60 60" fill="none" xmlns="http://www.w3.org/2000/svg">
<path fill-rule="evenodd" clip-rule="evenodd" d="M6.09249 15.1601C5.91433 15.2026 5.65598 15.3411 5.51826 15.468C5.00733 15.9389 5 16.0094 5 20.4441C5 24.4414 5.00596 24.5712 5.20453 24.9246C5.48466 25.423 5.83971 25.6055 6.73109 25.7091C7.14884 25.7578 7.63927 25.8502 7.82085 25.9146C9.76916 26.6049 11.0299 28.6808 10.6935 30.6446C10.4193 32.2452 9.31713 33.5717 7.82085 34.1019C7.63927 34.1662 7.14884 34.2586 6.73109 34.3073C5.83746 34.4112 5.48466 34.5934 5.2016 35.0972C4.99756 35.4601 4.99443 35.5384 5.02139 39.714C5.04796 43.8295 5.05509 43.9699 5.25024 44.2312C5.36101 44.3795 5.57296 44.5914 5.72133 44.7022L5.99111 44.9036H30.0047H54.0184L54.2881 44.7022C54.4365 44.5914 54.6485 44.3795 54.7592 44.2312C54.9544 43.9699 54.9615 43.8295 54.9881 39.714C55.015 35.5384 55.0119 35.4601 54.8079 35.0972C54.5248 34.5934 54.172 34.4112 53.2784 34.3073C52.8606 34.2586 52.3702 34.1662 52.1886 34.1019C50.6923 33.5717 49.5902 32.2452 49.316 30.6446C48.9796 28.6808 50.2403 26.6049 52.1886 25.9146C52.3702 25.8502 52.8606 25.7578 53.2784 25.7091C54.172 25.6052 54.5248 25.4231 54.8079 24.9193C55.0119 24.5563 55.015 24.478 54.9881 20.3024C54.9615 16.1869 54.9544 16.0465 54.7592 15.7852C54.6485 15.6369 54.4365 15.425 54.2881 15.3142L54.0184 15.1128L30.2174 15.0979C17.1268 15.0897 6.27055 15.1177 6.09249 15.1601ZM18.9675 20.3728C18.9675 22.6831 18.9738 22.7609 19.1892 23.0833C19.4448 23.466 19.9606 23.7567 20.3838 23.7567C20.8069 23.7567 21.3227 23.466 21.5783 23.0833C21.7937 22.7609 21.8001 22.6831 21.8001 20.3728V17.9942H36.9396H52.0792V20.4733V22.9525L51.6388 23.0633C50.0199 23.4709 48.3263 24.7652 47.4127 26.293C45.4413 29.5895 46.3714 33.8148 49.5424 35.9682C50.2185 36.4274 50.9896 36.7896 51.6388 36.9531L52.0792 37.0639V39.5431V42.0222H36.9396H21.8001V39.6436C21.8001 37.3333 21.7937 37.2555 21.5783 36.9331C20.9956 36.0609 19.7719 36.0609 19.1892 36.9331C18.9738 37.2555 18.9675 37.3333 18.9675 39.6436V42.0222H13.4489H7.93024V39.5431V37.0639L8.37066 36.9531C9.98952 36.5455 11.6832 35.2512 12.5968 33.7235C14.5681 30.4269 13.6381 26.2016 10.4671 24.0482C9.79095 23.589 9.0199 23.2268 8.37066 23.0633L7.93024 22.9525V20.4733V17.9942H13.4489H18.9675V20.3728ZM19.5575 26.9431C18.9896 27.421 18.9675 27.5357 18.9675 30.0082C18.9675 32.4807 18.9896 32.5954 19.5575 33.0733C20.1143 33.5418 21.0829 33.3896 21.5559 32.7593C21.7393 32.5148 21.7512 32.347 21.7512 30.0082C21.7512 27.6694 21.7393 27.5016 21.5559 27.2571C21.2579 26.8599 20.893 26.6873 20.3517 26.6873C19.9654 26.6873 19.7971 26.7415 19.5575 26.9431Z" fill="#DF9C43"/>
<path d="M36.5244 23.2696C36.7835 22.472 37.9119 22.472 38.1711 23.2696L39.0971 26.1194C39.213 26.4761 39.5454 26.7176 39.9204 26.7176H42.9169C43.7556 26.7176 44.1043 27.7908 43.4258 28.2838L41.0016 30.045C40.6981 30.2655 40.5712 30.6563 40.6871 31.013L41.613 33.8628C41.8722 34.6604 40.9593 35.3237 40.2808 34.8307L37.8566 33.0694C37.5532 32.849 37.1423 32.849 36.8389 33.0694L34.4146 34.8307C33.7362 35.3237 32.8232 34.6604 33.0824 33.8628L34.0084 31.013C34.1243 30.6563 33.9973 30.2655 33.6939 30.045L31.2697 28.2838C30.5912 27.7908 30.9399 26.7176 31.7785 26.7176H34.775C35.1501 26.7176 35.4825 26.4761 35.5984 26.1194L36.5244 23.2696Z" fill="#DF9C43"/>
</svg>
